{"glyphs":{"0":{"ha":705,"x_min":69,"x_max":635,"o":"m 515 313 l 515 574 q 473 747 515 689 q 351 806 431 806 q 189 574 189 806 l 189 313 q 231 139 189 197 q 353 80 273 80 q 515 313 515 80 m 635 548 l 635 337 q 561 77 635 168 q 353 -14 486 -14 q 144 77 220 -14 q 69 337 69 168 l 69 548 q 144 808 69 717 q 352 900 219 900 q 560 808 485 900 q 635 548 635 717 z "},"1":{"ha":704,"x_min":113,"x_max":416,"o":"m 416 0 l 296 0 l 296 772 l 113 769 l 113 856 l 416 888 l 416 0 z "},"2":{"ha":704,"x_min":56,"x_max":648,"o":"m 648 94 l 648 -1 l 72 -1 l 72 82 l 363 406 q 469 543 441 492 q 497 655 497 594 q 458 762 497 717 q 355 806 418 806 q 176 626 176 806 l 60 626 l 59 630 q 137 824 56 747 q 355 901 218 901 q 546 832 474 901 q 617 653 617 763 q 577 512 617 584 q 454 351 536 441 l 220 97 l 221 94 l 648 94 z "},"3":{"ha":704,"x_min":58,"x_max":622,"o":"m 341 499 q 453 537 419 499 q 488 651 488 576 q 450 767 488 727 q 340 806 412 806 q 225 765 268 806 q 183 655 183 724 l 68 655 l 66 659 q 140 831 64 762 q 341 901 217 901 q 536 835 465 901 q 608 648 608 769 q 574 536 608 590 q 475 454 539 483 q 622 246 622 407 q 544 56 622 126 q 340 -14 465 -14 q 136 52 214 -14 q 61 229 58 119 l 63 233 l 178 233 q 221 121 178 162 q 340 80 264 80 q 459 122 416 80 q 502 245 502 163 q 463 366 502 327 q 342 404 425 404 l 237 404 l 236 499 l 341 499 z "},"4":{"ha":704,"x_min":34,"x_max":675,"o":"m 433 299 l 433 716 l 429 717 l 418 686 l 162 299 l 433 299 m 553 888 l 553 299 l 675 299 l 675 205 l 553 205 l 553 0 l 433 0 l 433 205 l 34 205 l 34 273 l 425 888 l 553 888 z "},"5":{"ha":704,"x_min":93,"x_max":637,"o":"m 604 888 l 604 781 l 260 781 l 231 532 q 374 581 297 578 q 567 501 496 582 q 637 282 637 420 q 565 65 637 144 q 357 -14 492 -14 q 166 49 239 -14 q 96 229 93 113 l 97 233 l 205 233 q 247 121 205 161 q 360 80 288 80 q 474 133 432 80 q 516 277 516 186 q 473 422 516 368 q 358 476 430 476 q 255 456 287 476 q 207 389 222 435 l 108 400 l 159 888 l 604 888 z "},"6":{"ha":704,"x_min":80,"x_max":659,"o":"m 538 298 l 538 298 q 493 444 538 388 q 371 499 448 499 q 199 408 251 499 l 199 336 q 250 148 199 215 q 377 80 300 80 q 496 141 454 80 q 538 298 538 202 m 81 517 l 80 517 q 174 793 80 687 q 412 900 268 900 q 576 863 509 900 l 551 771 q 412 806 485 806 q 258 730 316 806 q 199 530 199 654 l 199 516 q 399 589 283 589 q 587 507 515 589 q 659 292 659 426 q 583 72 659 158 q 377 -14 507 -14 q 164 82 248 -14 q 81 347 81 178 l 81 517 z "},"7":{"ha":704,"x_min":47,"x_max":648,"o":"m 648 888 l 648 794 q 515 617 568 698 q 430 453 463 537 q 380 290 397 369 q 349 96 363 210 l 339 0 l 219 0 l 229 96 q 327 468 254 302 q 530 794 399 633 l 47 794 l 47 888 l 648 888 z "},"8":{"ha":704,"x_min":62,"x_max":641,"o":"m 182 241 q 182 203 182 241 q 229 123 182 166 q 352 80 275 80 q 475 123 429 80 q 522 241 522 167 q 473 362 522 315 q 351 409 425 409 q 229 362 276 409 q 182 241 182 315 m 208 653 q 208 619 208 653 q 247 544 208 585 q 352 503 287 503 q 456 544 416 503 q 496 652 496 585 q 455 762 496 719 q 350 806 414 806 q 247 764 287 806 q 208 653 208 722 m 87 655 q 158 836 87 772 q 350 900 229 900 q 544 836 471 900 q 616 655 616 771 q 578 534 616 587 q 472 456 540 482 q 595 371 550 428 q 641 239 641 313 q 562 52 641 118 q 351 -14 484 -14 q 140 52 218 -14 q 62 239 62 117 q 107 371 62 313 q 229 456 152 428 q 125 534 162 482 q 87 655 87 586 z "},"9":{"ha":704,"x_min":50,"x_max":625,"o":"m 312 80 q 454 148 402 80 q 505 344 505 215 l 505 385 q 330 296 445 296 q 125 376 200 296 q 50 592 50 456 q 129 814 50 728 q 326 900 208 900 q 547 812 468 900 q 625 557 625 725 l 625 345 q 540 80 625 174 q 311 -14 454 -14 q 130 22 205 -14 l 148 114 q 312 80 211 80 m 330 806 q 217 746 262 806 q 171 595 171 687 q 214 447 171 503 q 326 391 257 391 q 440 418 395 391 q 505 492 484 446 l 505 569 q 461 746 505 686 q 330 806 416 806 z "},"\r":{"ha":342,"x_min":0,"x_max":0,"o":""}," ":{"ha":353,"x_min":0,"x_max":0,"o":""},"!":{"ha":452,"x_min":153,"x_max":274,"o":"m 274 125 l 274 0 l 153 0 l 153 125 l 274 125 m 273 888 l 273 292 l 153 292 l 153 888 l 273 888 z "},"\"":{"ha":574,"x_min":134,"x_max":443,"o":"m 134 635 l 134 952 l 254 952 l 254 787 l 193 635 l 134 635 m 323 635 l 323 952 l 443 952 l 443 787 l 381 635 l 323 635 z "},"#":{"ha":779,"x_min":43,"x_max":724,"o":"m 43 250 l 43 336 l 204 336 l 245 548 l 89 548 l 89 635 l 262 635 l 313 888 l 405 888 l 355 635 l 510 635 l 560 888 l 652 888 l 602 635 l 724 635 l 724 548 l 586 548 l 545 336 l 678 336 l 678 250 l 528 250 l 479 0 l 386 0 l 435 250 l 279 250 l 230 0 l 138 0 l 186 250 l 43 250 m 338 548 l 296 336 l 452 336 l 493 548 l 338 548 z "},"$":{"ha":704,"x_min":67,"x_max":639,"o":"m 518 216 q 479 310 518 271 q 351 379 440 349 q 163 480 224 418 q 102 644 102 543 q 159 809 102 745 q 319 885 216 872 l 319 1020 l 415 1020 l 415 884 q 574 797 518 870 q 631 602 631 724 l 511 602 q 472 736 511 686 q 364 787 433 787 q 258 750 294 787 q 222 650 222 713 q 259 550 222 587 q 393 480 296 513 q 580 378 522 439 q 639 215 639 318 q 576 50 639 113 q 403 -24 514 -12 l 403 -141 l 307 -141 l 307 -24 q 132 55 196 -13 q 70 245 67 122 l 71 248 l 186 248 q 231 116 186 158 q 351 74 276 74 l 351 75 q 474 112 430 75 q 518 216 518 150 z "},"%":{"ha":914,"x_min":64,"x_max":861,"o":"m 583 216 l 583 169 q 608 91 583 121 q 678 60 633 60 q 747 91 722 60 q 772 169 772 121 l 772 216 q 747 294 772 263 q 677 325 721 325 q 608 294 633 325 q 583 216 583 264 m 494 169 l 494 216 q 544 348 494 296 q 677 399 595 399 q 810 348 760 399 q 861 216 861 296 l 861 169 q 811 38 861 90 q 678 -14 760 -14 q 545 38 595 -14 q 494 169 494 90 m 713 760 l 279 66 l 213 106 l 647 801 l 713 760 m 153 716 l 153 669 q 178 592 153 622 q 248 562 203 562 q 317 592 292 562 q 342 669 342 622 l 342 716 q 316 794 342 764 q 247 825 291 825 q 178 794 203 825 q 153 716 153 764 m 64 669 l 64 716 q 114 848 64 796 q 248 900 165 900 q 380 848 330 900 q 431 716 431 796 l 431 669 q 381 538 431 590 q 248 487 331 487 q 114 538 165 487 q 64 669 64 590 z "},"&":{"ha":779,"x_min":39,"x_max":752,"o":"m 559 61 q 328 -14 458 -14 q 118 55 197 -14 q 39 238 39 125 q 80 365 39 310 q 211 479 121 420 q 139 589 161 542 q 117 684 117 636 q 175 844 117 788 q 335 899 234 899 q 496 845 435 899 q 557 710 557 790 q 527 609 557 652 q 431 517 497 566 l 363 469 l 571 219 q 625 409 625 302 l 732 409 q 639 138 732 248 l 752 1 l 751 -1 l 611 -1 l 559 61 m 159 238 q 203 123 159 167 q 332 80 248 80 q 496 138 417 80 l 275 404 l 251 386 q 159 238 159 317 m 447 711 q 417 778 447 749 q 339 806 387 806 q 264 772 292 806 q 237 683 237 739 q 302 543 237 627 l 387 600 q 447 711 447 642 z "},"'":{"ha":386,"x_min":134,"x_max":254,"o":"m 134 644 l 134 952 l 254 952 l 254 816 l 193 644 l 134 644 z "},"(":{"ha":557,"x_min":121,"x_max":449,"o":"m 121 355 l 121 361 q 139 543 121 454 q 186 703 157 632 q 255 833 216 774 q 422 998 331 950 l 426 998 l 449 927 q 300 710 359 857 q 241 362 241 564 l 241 354 q 299 7 241 153 q 449 -217 357 -139 l 426 -283 l 422 -283 q 315 -195 367 -253 q 219 -57 262 -138 q 148 131 175 23 q 121 355 121 239 z "},")":{"ha":557,"x_min":108,"x_max":436,"o":"m 436 361 l 436 355 q 409 130 436 238 q 339 -58 382 22 q 242 -196 295 -138 q 135 -283 190 -254 l 132 -283 l 108 -218 q 256 1 197 -148 q 315 353 315 151 l 315 361 q 255 707 315 557 q 108 932 195 857 l 132 998 l 135 998 q 242 910 190 968 q 339 772 295 852 q 409 585 382 692 q 436 361 436 477 z "},"*":{"ha":540,"x_min":17,"x_max":522,"o":"m 77 473 l 198 641 l 17 695 l 47 789 l 228 721 l 222 930 l 320 930 l 314 718 l 492 785 l 522 690 l 338 635 l 455 470 l 376 412 l 265 587 l 157 416 l 77 473 z "},"+":{"ha":709,"x_min":47,"x_max":656,"o":"m 413 746 l 413 488 l 656 488 l 656 379 l 413 379 l 413 99 l 293 99 l 293 379 l 47 379 l 47 488 l 293 488 l 293 746 l 413 746 z "},",":{"ha":247,"x_min":29,"x_max":193,"o":"m 193 117 l 193 12 l 101 -175 l 29 -175 l 72 18 l 72 117 l 193 117 z "},"-":{"ha":342,"x_min":22,"x_max":321,"o":"m 321 459 l 321 365 l 22 365 l 22 459 l 321 459 z "},".":{"ha":334,"x_min":98,"x_max":218,"o":"m 218 123 l 218 0 l 98 0 l 98 123 l 218 123 z "},"/":{"ha":519,"x_min":9,"x_max":483,"o":"m 483 880 l 113 -85 l 9 -85 l 381 880 l 483 880 z "},":":{"ha":315,"x_min":89,"x_max":197,"o":"m 197 111 l 197 0 l 89 0 l 89 111 l 197 111 m 197 646 l 197 534 l 89 534 l 89 646 l 197 646 z "},";":{"ha":321,"x_min":58,"x_max":205,"o":"m 205 88 l 205 -7 l 122 -175 l 58 -175 l 96 -2 l 96 88 l 205 88 m 197 629 l 197 517 l 90 517 l 90 629 l 197 629 z "},"<":{"ha":635,"x_min":43,"x_max":541,"o":"m 541 490 l 200 347 l 149 336 l 149 332 l 200 321 l 541 182 l 541 59 l 43 290 l 43 381 l 541 612 l 541 490 z "},"=":{"ha":704,"x_min":93,"x_max":602,"o":"m 602 376 l 602 276 l 93 276 l 93 376 l 602 376 m 602 630 l 602 530 l 93 530 l 93 630 l 602 630 z "},">":{"ha":654,"x_min":83,"x_max":606,"o":"m 448 350 l 83 493 l 83 612 l 606 381 l 606 290 l 83 59 l 83 178 l 448 324 l 500 334 l 500 338 l 448 350 z "},"?":{"ha":774,"x_min":138,"x_max":643,"o":"m 444 126 l 444 -1 l 318 -1 l 318 126 l 444 126 m 523 665 q 488 765 523 730 q 393 800 454 800 q 294 769 332 800 q 256 680 256 738 l 142 680 l 140 684 q 208 841 138 782 q 394 901 278 901 q 577 840 511 901 q 643 668 643 779 q 604 531 643 595 q 486 391 565 468 q 447 335 454 359 q 439 250 439 310 l 319 250 q 334 372 319 338 q 411 463 349 406 q 464 526 450 509 q 495 571 477 543 q 518 618 513 598 q 523 665 523 638 z "},"@":{"ha":1119,"x_min":58,"x_max":1063,"o":"m 516 45 q 648 114 599 45 q 650 148 647 129 l 678 477 q 608 492 641 492 l 607 492 q 491 426 532 492 q 438 222 450 360 q 516 45 425 45 m 780 -43 q 703 -18 735 -43 q 657 54 671 7 q 480 -43 597 -43 q 362 30 404 -43 q 331 223 320 104 q 414 477 345 381 q 585 572 484 572 q 685 558 646 572 q 773 508 723 544 l 771 505 l 774 505 l 743 148 q 806 31 734 31 q 926 98 881 31 q 977 276 972 166 q 888 642 986 513 q 586 770 789 770 q 367 706 462 770 q 219 527 273 642 q 161 261 166 412 q 252 -103 150 29 q 547 -235 355 -235 q 655 -222 600 -235 q 748 -188 710 -210 l 772 -253 q 669 -293 731 -278 q 544 -307 606 -307 q 185 -156 311 -307 q 70 261 58 -4 q 115 498 76 390 q 221 682 155 606 q 382 801 288 758 q 589 843 477 843 q 850 774 743 843 q 1011 578 958 706 q 1057 276 1063 451 q 983 51 1051 139 q 898 -18 950 7 q 780 -43 846 -43 z "},"A":{"ha":809,"x_min":12,"x_max":797,"o":"m 675 0 l 591 229 l 219 229 l 135 0 l 12 0 l 356 888 l 459 888 l 797 0 l 675 0 m 406 734 l 256 330 l 555 330 l 409 734 l 406 734 z "},"B":{"ha":799,"x_min":110,"x_max":732,"o":"m 456 417 l 230 417 l 230 94 l 438 94 q 566 135 521 94 q 612 252 612 175 q 573 373 612 330 q 456 417 534 417 m 230 794 l 230 511 l 425 511 q 535 548 493 511 q 576 650 576 585 q 400 794 576 794 l 230 794 m 438 0 l 110 0 l 110 888 l 400 888 q 620 828 543 888 q 696 648 696 767 q 659 543 696 589 q 559 473 622 496 q 685 395 639 456 q 732 251 732 334 q 654 65 732 130 q 438 0 576 0 z "},"C":{"ha":791,"x_min":71,"x_max":742,"o":"m 623 283 l 737 283 l 739 279 q 650 69 741 152 q 410 -14 559 -14 q 166 92 261 -14 q 71 363 71 198 l 71 522 q 166 793 71 687 q 412 900 261 900 q 653 820 564 900 q 739 607 742 741 l 738 604 l 623 604 q 567 752 623 699 q 413 806 512 806 q 253 726 313 806 q 193 523 193 646 l 193 363 q 253 160 193 239 q 413 80 313 80 q 568 133 513 80 q 623 283 623 186 z "},"D":{"ha":823,"x_min":110,"x_max":768,"o":"m 382 794 l 230 794 l 230 94 l 382 94 q 577 174 505 94 q 648 383 648 254 l 648 506 q 576 714 648 635 q 382 794 505 794 m 382 0 l 110 0 l 110 888 l 382 888 q 663 782 557 888 q 768 505 768 676 l 768 383 q 663 106 768 212 q 382 0 557 0 z "},"E":{"ha":730,"x_min":110,"x_max":699,"o":"m 637 507 l 637 412 l 230 412 l 230 94 l 699 94 l 699 0 l 110 0 l 110 888 l 693 888 l 693 794 l 230 794 l 230 507 l 637 507 z "},"F":{"ha":728,"x_min":110,"x_max":698,"o":"m 635 488 l 635 393 l 230 393 l 230 0 l 110 0 l 110 888 l 698 888 l 698 794 l 230 794 l 230 488 l 635 488 z "},"G":{"ha":852,"x_min":73,"x_max":754,"o":"m 754 442 l 754 117 q 637 24 718 62 q 441 -14 557 -14 q 177 89 280 -14 q 73 352 73 191 l 73 535 q 170 799 73 698 q 419 901 267 901 q 660 827 572 901 q 750 631 749 753 l 749 628 l 634 628 q 573 757 628 709 q 419 806 519 806 q 256 730 319 806 q 194 536 194 654 l 194 351 q 263 156 194 233 q 441 80 332 80 q 562 99 512 80 q 633 146 611 117 l 633 348 l 439 348 l 439 442 l 754 442 z "},"H":{"ha":892,"x_min":110,"x_max":782,"o":"m 782 888 l 782 0 l 662 0 l 662 393 l 230 393 l 230 0 l 110 0 l 110 888 l 230 888 l 230 487 l 662 487 l 662 888 l 782 888 z "},"I":{"ha":353,"x_min":116,"x_max":237,"o":"m 237 888 l 237 0 l 116 0 l 116 888 l 237 888 z "},"J":{"ha":690,"x_min":37,"x_max":588,"o":"m 467 245 l 467 887 l 588 887 l 588 245 q 513 56 588 126 q 312 -14 439 -14 q 112 52 186 -14 q 40 239 37 117 l 41 243 l 157 243 q 198 121 157 162 q 312 80 239 80 q 426 125 384 80 q 467 245 467 170 z "},"K":{"ha":804,"x_min":110,"x_max":801,"o":"m 230 401 l 230 0 l 110 0 l 110 888 l 230 888 l 230 496 l 323 496 l 641 888 l 774 888 l 776 886 l 431 459 l 801 3 l 799 0 l 656 0 l 334 401 l 230 401 z "},"L":{"ha":675,"x_min":110,"x_max":650,"o":"m 230 888 l 230 94 l 650 94 l 650 0 l 110 0 l 110 888 l 230 888 z "},"M":{"ha":1098,"x_min":110,"x_max":987,"o":"m 110 888 l 264 888 l 547 167 l 551 167 l 833 888 l 987 888 l 987 0 l 867 0 l 867 351 l 880 713 l 876 713 l 589 0 l 509 0 l 222 711 l 218 711 l 230 351 l 230 0 l 110 0 l 110 888 z "},"N":{"ha":892,"x_min":110,"x_max":782,"o":"m 782 888 l 782 0 l 662 0 l 234 687 l 230 686 l 230 0 l 110 0 l 110 888 l 230 888 l 658 203 l 662 204 l 662 888 l 782 888 z "},"O":{"ha":852,"x_min":69,"x_max":783,"o":"m 663 363 l 663 523 q 596 724 663 647 q 422 801 530 801 q 252 724 315 801 q 189 523 189 646 l 189 363 q 252 161 189 239 q 422 84 315 84 q 596 161 530 84 q 663 363 663 238 m 783 522 l 783 363 q 682 92 783 199 q 422 -14 581 -14 q 166 92 264 -14 q 69 363 69 199 l 69 522 q 166 793 69 686 q 422 900 264 900 q 682 793 581 900 q 783 522 783 687 z "},"P":{"ha":801,"x_min":110,"x_max":749,"o":"m 230 794 l 230 450 l 450 450 q 584 497 538 450 q 629 621 629 544 q 583 746 629 699 q 450 794 537 794 l 230 794 m 450 357 l 230 357 l 230 0 l 110 0 l 110 888 l 450 888 q 670 816 591 888 q 749 622 749 744 q 670 428 749 499 q 450 357 591 357 z "},"Q":{"ha":852,"x_min":69,"x_max":817,"o":"m 663 350 l 663 509 q 596 710 663 633 q 422 787 530 787 q 252 710 315 787 q 189 509 189 633 l 189 350 q 252 148 189 225 q 422 71 315 71 q 596 148 530 71 q 663 350 663 224 m 783 507 l 783 350 q 752 189 783 263 q 667 64 722 115 l 817 -79 l 735 -157 l 566 -1 q 419 -28 497 -28 q 166 78 264 -28 q 69 349 69 184 l 69 507 q 166 779 69 672 q 419 886 264 886 q 609 837 526 886 q 737 702 692 788 q 783 507 783 616 z "},"R":{"ha":828,"x_min":110,"x_max":770,"o":"m 454 385 l 230 385 l 230 0 l 110 0 l 110 888 l 431 888 q 654 824 578 888 q 731 635 731 760 q 591 436 731 497 q 729 227 729 391 l 729 143 q 770 15 729 52 l 770 0 l 646 0 q 608 144 608 33 l 608 225 q 566 341 608 298 q 454 385 524 385 m 230 794 l 230 479 l 419 479 q 566 518 521 479 q 611 637 611 556 q 431 794 611 794 l 230 794 z "},"S":{"ha":779,"x_min":60,"x_max":714,"o":"m 178 254 q 239 125 178 171 q 394 80 300 80 q 541 118 488 80 q 594 221 594 157 q 547 326 594 286 q 386 394 500 367 q 87 657 87 466 q 172 831 87 762 q 396 900 258 900 q 623 822 535 900 q 708 635 711 744 l 707 631 l 592 631 q 540 758 592 711 q 396 806 488 806 q 255 766 304 806 q 207 664 207 726 q 258 563 207 601 q 427 494 310 524 q 714 224 714 422 q 627 51 714 116 q 397 -14 539 -14 q 230 17 307 -14 q 107 111 154 49 q 62 251 60 172 l 64 254 l 178 254 z "},"T":{"ha":732,"x_min":21,"x_max":711,"o":"m 711 888 l 711 794 l 426 794 l 426 0 l 306 0 l 306 794 l 21 794 l 21 888 l 711 888 z "},"U":{"ha":846,"x_min":90,"x_max":760,"o":"m 639 887 l 760 887 l 760 285 q 668 64 760 142 q 422 -14 575 -14 q 179 64 269 -14 q 90 285 90 142 l 90 887 l 210 887 l 210 285 q 266 133 210 186 q 421 80 322 80 q 579 133 520 80 q 639 285 639 186 l 639 887 z "},"V":{"ha":791,"x_min":14,"x_max":777,"o":"m 144 888 l 374 221 l 394 151 l 397 151 l 418 221 l 647 888 l 777 888 l 447 0 l 344 0 l 14 888 l 144 888 z "},"W":{"ha":1104,"x_min":33,"x_max":1064,"o":"m 153 888 l 288 308 l 304 197 l 309 196 l 332 308 l 495 888 l 602 888 l 766 308 l 790 193 l 793 193 l 811 308 l 943 888 l 1064 888 l 850 0 l 742 0 l 567 616 l 551 696 l 547 696 l 532 616 l 354 0 l 247 0 l 33 888 l 153 888 z "},"X":{"ha":791,"x_min":40,"x_max":755,"o":"m 191 888 l 397 542 l 604 888 l 749 888 l 467 448 l 755 0 l 612 0 l 399 353 l 186 0 l 40 0 l 328 448 l 46 888 l 191 888 z "},"Y":{"ha":763,"x_min":12,"x_max":751,"o":"m 439 0 l 319 0 l 319 321 l 12 888 l 150 888 l 382 437 l 614 888 l 751 888 l 439 313 l 439 0 z "},"Z":{"ha":748,"x_min":59,"x_max":692,"o":"m 692 94 l 692 0 l 59 0 l 59 89 l 534 794 l 66 794 l 66 888 l 671 888 l 671 803 l 195 94 l 692 94 z "},"[":{"ha":473,"x_min":129,"x_max":363,"o":"m 363 1016 l 363 921 l 249 921 l 249 -96 l 363 -96 l 363 -191 l 129 -191 l 129 1016 l 363 1016 z "},"\\":{"ha":516,"x_min":24,"x_max":509,"o":"m 395 -85 l 24 880 l 138 880 l 509 -85 l 395 -85 z "},"]":{"ha":474,"x_min":110,"x_max":345,"o":"m 110 921 l 110 1016 l 345 1016 l 345 -191 l 110 -191 l 110 -96 l 225 -96 l 225 921 l 110 921 z "},"^":{"ha":522,"x_min":37,"x_max":484,"o":"m 248 750 l 149 494 l 37 494 l 220 938 l 302 938 l 484 494 l 373 494 l 272 750 l 262 793 l 258 793 l 248 750 z "},"_":{"ha":568,"x_min":3,"x_max":566,"o":"m 566 -10 l 566 -104 l 3 -104 l 3 -10 l 566 -10 z "},"`":{"ha":391,"x_min":50,"x_max":299,"o":"m 193 983 l 299 821 l 203 821 l 50 980 l 52 983 l 193 983 z "},"a":{"ha":687,"x_min":64,"x_max":616,"o":"m 275 -14 q 118 38 172 -14 q 64 184 64 90 q 140 332 64 279 q 349 386 216 386 l 479 386 l 479 451 q 443 543 479 509 q 347 576 408 576 q 250 548 286 576 q 213 476 213 519 l 98 476 l 97 479 q 166 613 94 554 q 352 671 239 671 q 532 613 465 671 q 600 450 600 555 l 600 132 q 616 -1 600 55 l 492 -1 q 479 98 479 62 q 390 17 444 47 q 275 -14 336 -14 m 185 182 l 184 182 q 212 112 184 137 q 298 87 240 87 q 410 120 357 87 q 479 197 463 153 l 479 304 l 345 304 q 229 269 273 304 q 185 182 185 233 z "},"b":{"ha":711,"x_min":87,"x_max":651,"o":"m 361 574 q 206 473 255 574 l 206 187 q 363 83 256 83 q 489 142 446 83 q 531 304 531 201 l 530 317 q 487 504 530 435 q 361 574 444 574 m 651 317 l 651 304 q 582 72 651 159 q 394 -14 513 -14 q 200 86 264 -14 l 186 -1 l 87 -1 l 87 951 l 208 951 l 208 581 q 393 671 273 671 q 583 575 514 671 q 651 317 651 479 z "},"c":{"ha":663,"x_min":59,"x_max":619,"o":"m 180 316 q 220 148 180 210 q 356 80 262 80 q 462 117 417 80 q 507 208 507 155 l 614 208 l 616 203 q 541 52 619 117 q 356 -14 462 -14 q 137 77 215 -14 q 59 316 59 169 l 59 342 q 137 580 59 488 q 356 671 216 671 q 545 604 471 671 q 616 435 619 536 l 615 431 l 507 431 q 464 534 507 492 q 358 576 421 576 q 254 545 294 576 q 197 462 214 513 q 180 342 180 411 l 180 316 z "},"d":{"ha":711,"x_min":59,"x_max":618,"o":"m 59 317 q 127 575 59 479 q 315 671 196 671 q 497 587 433 671 l 497 951 l 618 951 l 618 -1 l 519 -1 l 505 80 q 318 -14 439 -14 q 128 72 197 -14 q 60 304 60 159 l 59 317 m 180 317 l 180 304 q 222 142 180 200 q 348 83 264 83 q 498 176 450 83 l 498 484 q 349 574 448 574 q 222 505 264 574 q 180 317 180 436 z "},"e":{"ha":661,"x_min":60,"x_max":613,"o":"m 492 410 q 454 531 492 485 q 342 576 415 576 q 240 526 283 576 q 186 398 197 476 l 188 395 l 492 395 l 492 410 m 361 -14 q 141 77 223 -14 q 60 316 60 168 l 60 343 q 143 577 60 482 q 342 671 226 671 q 544 592 474 671 q 613 376 613 513 l 613 300 l 184 300 l 182 298 q 232 140 184 200 q 361 80 279 80 q 548 145 476 80 l 595 67 l 595 67 q 361 -14 512 -14 z "},"f":{"ha":431,"x_min":33,"x_max":435,"o":"m 258 0 l 137 0 l 137 571 l 33 571 l 33 661 l 137 661 l 137 744 q 192 907 137 850 q 346 965 246 965 q 435 952 380 965 l 420 861 q 361 867 395 867 q 258 744 258 867 l 258 661 l 395 661 l 395 571 l 258 571 l 258 0 z "},"g":{"ha":711,"x_min":61,"x_max":623,"o":"m 61 275 l 61 288 q 131 547 61 450 q 324 643 201 643 q 513 545 447 643 l 528 631 l 623 631 l 623 -33 q 550 -229 623 -161 q 336 -296 476 -296 q 233 -283 288 -296 q 136 -248 178 -270 l 167 -154 q 245 -184 199 -172 q 335 -195 291 -195 q 463 -156 422 -195 q 503 -33 503 -117 l 503 41 q 319 -43 437 -43 q 131 44 201 -43 q 61 275 61 132 m 181 288 l 181 275 q 224 114 181 173 q 351 55 267 55 q 504 150 454 55 l 504 454 q 353 545 452 545 q 225 476 269 545 q 181 288 181 406 z "},"h":{"ha":711,"x_min":87,"x_max":625,"o":"m 208 952 l 208 572 q 401 673 279 673 q 568 608 510 673 q 625 414 625 544 l 625 0 l 505 0 l 505 415 q 470 536 505 497 q 365 575 435 575 q 208 488 264 575 l 208 0 l 87 0 l 87 952 l 208 952 z "},"i":{"ha":315,"x_min":97,"x_max":217,"o":"m 217 661 l 217 0 l 97 0 l 97 661 l 217 661 m 217 952 l 217 829 l 97 829 l 97 952 l 217 952 z "},"j":{"ha":323,"x_min":-39,"x_max":227,"o":"m 106 631 l 227 631 l 227 -84 q 175 -241 227 -186 q 29 -296 123 -296 q -39 -286 -5 -296 l -31 -191 q 19 -198 -13 -198 q 106 -84 106 -198 l 106 631 m 222 922 l 222 802 l 102 802 l 102 922 l 222 922 z "},"k":{"ha":641,"x_min":88,"x_max":642,"o":"m 208 304 l 208 0 l 88 0 l 88 952 l 208 952 l 208 400 l 285 400 l 466 661 l 610 661 l 384 360 l 642 0 l 500 0 l 286 304 l 208 304 z "},"l":{"ha":315,"x_min":97,"x_max":217,"o":"m 217 952 l 217 0 l 97 0 l 97 952 l 217 952 z "},"m":{"ha":1093,"x_min":88,"x_max":1006,"o":"m 208 0 l 88 0 l 88 661 l 195 661 l 204 574 q 405 673 272 673 q 586 551 538 673 q 788 673 654 673 q 949 603 892 673 q 1006 395 1006 532 l 1006 0 l 886 0 l 886 396 q 853 533 886 492 q 756 575 821 575 q 653 533 691 575 q 608 425 614 492 l 608 0 l 486 0 l 486 396 q 453 532 486 488 q 353 575 419 575 q 208 489 248 575 l 208 0 z "},"n":{"ha":711,"x_min":87,"x_max":623,"o":"m 87 661 l 195 661 l 203 562 q 399 673 272 673 q 566 609 508 673 q 623 417 623 546 l 623 0 l 503 0 l 503 414 q 469 538 503 500 q 363 575 435 575 q 272 551 312 575 q 208 481 232 526 l 208 0 l 87 0 l 87 661 z "},"o":{"ha":711,"x_min":59,"x_max":650,"o":"m 180 335 l 180 321 q 225 146 180 212 q 355 80 270 80 q 485 146 439 80 q 530 321 530 212 l 530 335 q 485 510 530 443 q 354 576 439 576 q 225 510 270 576 q 180 335 180 443 m 59 321 l 59 335 q 139 578 59 484 q 355 671 219 671 q 570 578 490 671 q 650 335 650 485 l 650 321 q 571 78 650 171 q 355 -14 491 -14 q 139 79 219 -14 q 59 321 59 172 z "},"p":{"ha":711,"x_min":87,"x_max":650,"o":"m 650 290 l 650 277 q 582 46 650 132 q 393 -41 513 -41 q 208 41 273 -41 l 208 -282 l 87 -282 l 87 632 l 180 632 l 199 547 q 389 644 264 644 q 582 548 513 644 q 650 290 650 452 m 530 277 l 530 290 q 485 476 530 406 q 355 547 439 547 q 208 459 256 547 l 208 140 q 357 53 255 53 q 485 114 440 53 q 530 277 530 175 z "},"q":{"ha":711,"x_min":60,"x_max":612,"o":"m 180 290 l 180 277 q 222 113 180 173 q 348 53 264 53 q 492 136 440 53 l 492 470 q 353 550 439 550 q 223 479 266 550 q 180 290 180 409 m 60 277 l 60 290 q 128 548 60 452 q 317 644 197 644 q 503 555 437 644 l 520 632 l 612 632 l 612 -282 l 492 -282 l 492 34 q 313 -41 428 -41 q 129 46 197 -41 q 60 277 60 132 z "},"r":{"ha":429,"x_min":87,"x_max":416,"o":"m 208 -1 l 87 -1 l 87 660 l 195 660 l 206 564 q 370 673 267 673 q 416 666 395 673 l 400 553 l 338 557 q 208 471 245 557 l 208 -1 z "},"s":{"ha":654,"x_min":63,"x_max":591,"o":"m 333 81 q 433 107 397 81 q 470 174 470 132 q 439 241 470 216 q 326 285 408 266 q 142 357 201 312 q 83 481 83 402 q 153 617 83 561 q 333 673 222 673 q 513 614 444 673 q 578 469 582 555 l 577 465 l 463 465 q 426 544 463 511 q 329 577 389 577 q 236 550 269 577 q 203 482 203 524 q 232 419 203 441 q 344 380 260 397 q 531 306 471 352 q 591 182 591 259 q 520 40 591 94 q 330 -14 449 -14 q 137 48 210 -14 q 66 199 63 111 l 68 203 l 182 203 q 228 111 186 142 q 334 80 271 80 l 333 81 z "},"t":{"ha":432,"x_min":21,"x_max":377,"o":"m 125 819 l 247 819 l 247 659 l 372 659 l 372 570 l 247 570 l 247 169 q 317 85 247 85 q 361 93 338 85 l 377 11 q 286 -14 345 -14 q 168 31 210 -14 q 125 169 125 77 l 125 570 l 21 570 l 21 659 l 125 659 l 125 819 z "},"u":{"ha":711,"x_min":85,"x_max":623,"o":"m 314 -14 q 144 56 203 -14 q 85 270 85 126 l 85 659 l 205 659 l 205 269 q 235 124 205 165 q 333 83 265 83 q 503 183 457 83 l 503 659 l 623 659 l 623 -1 l 515 -1 l 507 96 q 314 -14 441 -14 z "},"v":{"ha":629,"x_min":28,"x_max":608,"o":"m 151 661 l 308 195 l 318 149 l 321 149 l 333 195 l 486 661 l 608 661 l 365 0 l 274 0 l 28 661 l 151 661 z "},"w":{"ha":946,"x_min":28,"x_max":916,"o":"m 147 661 l 256 241 l 271 161 l 274 161 l 291 241 l 423 661 l 519 661 l 652 241 l 671 151 l 675 151 l 692 241 l 796 661 l 916 661 l 724 0 l 627 0 l 499 402 l 472 515 l 468 514 l 442 402 l 316 0 l 219 0 l 28 661 l 147 661 z "},"x":{"ha":629,"x_min":28,"x_max":598,"o":"m 173 661 l 311 417 l 452 661 l 592 661 l 378 334 l 598 0 l 460 0 l 314 250 l 168 0 l 28 0 l 248 334 l 34 661 l 173 661 z "},"y":{"ha":629,"x_min":16,"x_max":611,"o":"m 135 -296 q 64 -287 109 -296 l 76 -192 q 130 -195 121 -195 q 189 -165 165 -195 q 233 -85 213 -136 l 261 -16 l 16 631 l 150 631 l 290 215 l 311 132 l 315 132 l 477 631 l 611 631 l 334 -131 q 135 -296 271 -296 z "},"z":{"ha":629,"x_min":58,"x_max":583,"o":"m 583 94 l 583 0 l 58 0 l 58 84 l 414 565 l 62 565 l 62 661 l 562 661 l 562 578 l 201 94 l 583 94 z "},"{":{"ha":566,"x_min":79,"x_max":450,"o":"m 207 62 l 207 186 q 175 294 207 256 q 79 332 143 332 l 79 421 q 175 458 143 421 q 207 565 207 495 l 207 691 q 258 871 207 800 q 426 975 310 942 l 450 903 q 327 691 327 863 l 327 565 q 223 376 327 431 q 327 186 327 320 l 327 62 q 356 -76 327 -22 q 450 -150 385 -129 l 426 -222 q 258 -118 310 -189 q 207 62 207 -47 z "},"|":{"ha":391,"x_min":147,"x_max":244,"o":"m 244 888 l 244 -165 l 147 -165 l 147 888 l 244 888 z "},"}":{"ha":566,"x_min":115,"x_max":487,"o":"m 239 62 l 239 186 q 351 376 239 326 q 239 565 239 425 l 239 691 q 115 903 239 863 l 140 975 q 307 871 255 942 q 359 691 359 800 l 359 565 q 487 421 359 421 l 487 332 q 359 186 359 332 l 359 62 q 307 -118 359 -47 q 140 -222 255 -189 l 115 -150 q 239 62 239 -109 z "},"~":{"ha":849,"x_min":78,"x_max":772,"o":"m 586 272 q 487 292 531 272 q 389 357 442 311 q 263 416 318 416 q 193 384 222 416 q 164 306 164 351 l 78 317 q 131 459 78 401 q 263 517 183 517 q 361 497 315 517 q 460 433 406 477 q 525 387 496 401 q 590 373 554 373 q 656 408 626 373 q 686 490 686 443 l 772 479 q 718 333 772 394 q 586 272 665 272 z "}," ":{"ha":353,"x_min":0,"x_max":0,"o":""},"¡":{"ha":304,"x_min":85,"x_max":218,"o":"m 96 -244 l 104 393 l 206 393 l 214 -244 l 96 -244 m 85 583 q 85 597 85 583 q 102 630 85 612 q 152 648 120 648 q 201 630 184 648 q 218 583 218 612 q 201 536 218 554 q 152 518 184 518 q 102 536 120 518 q 85 583 85 555 z "},"¢":{"ha":684,"x_min":64,"x_max":620,"o":"m 357 64 q 464 101 418 64 q 513 192 509 138 l 620 192 q 556 54 616 115 q 408 -23 496 -7 l 408 -165 l 295 -165 l 295 -22 q 124 84 185 -2 q 64 305 64 170 l 64 326 q 125 544 64 457 q 295 650 186 630 l 295 788 l 408 788 l 408 652 q 558 573 500 637 q 620 417 616 509 l 513 417 q 465 523 509 481 q 357 564 422 564 q 224 502 271 564 q 177 322 177 439 l 177 301 l 176 302 q 223 125 176 187 q 357 64 271 64 z "},"£":{"ha":726,"x_min":56,"x_max":688,"o":"m 58 -1 l 58 95 l 105 95 q 145 140 130 100 q 161 240 160 180 l 161 245 l 156 380 l 56 380 l 56 475 l 153 475 l 148 634 q 222 828 148 755 q 416 901 296 901 q 603 837 535 901 q 671 663 671 772 l 554 663 q 515 767 554 730 q 411 804 477 804 q 305 758 345 804 q 266 634 266 711 l 271 475 l 466 475 l 466 380 l 274 379 l 279 245 q 241 95 279 152 l 688 95 l 688 -1 l 58 -1 z "},"¤":{"ha":891,"x_min":64,"x_max":837,"o":"m 225 507 q 190 368 190 443 q 225 229 190 293 q 320 126 260 164 q 449 89 380 88 q 577 127 517 89 q 672 229 637 164 q 706 368 706 293 q 672 508 706 444 q 577 609 637 572 q 448 646 517 646 q 319 609 379 646 q 225 508 260 572 l 225 507 m 673 66 q 449 -15 575 -15 q 225 64 323 -15 l 144 -18 l 64 64 l 149 150 q 85 370 85 246 q 154 594 85 494 l 64 686 l 144 769 l 233 677 q 449 751 330 751 q 665 677 567 751 l 756 770 l 837 686 l 745 592 q 812 371 812 494 q 749 153 812 249 l 837 64 l 756 -18 l 673 66 z "},"¥":{"ha":757,"x_min":19,"x_max":730,"o":"m 666 449 l 666 373 l 431 373 l 431 272 l 666 272 l 666 197 l 431 197 l 431 0 l 314 0 l 314 197 l 83 197 l 83 272 l 314 272 l 314 373 l 83 373 l 83 449 l 274 449 l 19 888 l 153 888 l 375 477 l 597 888 l 730 888 l 475 449 l 666 449 z "},"¦":{"ha":300,"x_min":90,"x_max":203,"o":"m 203 -183 l 90 -183 l 90 300 l 203 300 l 203 -183 m 203 870 l 203 408 l 90 408 l 90 870 l 203 870 z "},"§":{"ha":766,"x_min":57,"x_max":701,"o":"m 701 229 q 587 62 701 113 q 673 -113 673 1 q 593 -276 673 -216 q 369 -336 514 -336 q 142 -267 224 -336 q 57 -74 57 -198 l 170 -73 q 225 -198 170 -153 q 369 -244 279 -244 q 509 -209 458 -244 q 560 -116 560 -173 q 517 -27 560 -59 q 346 42 474 4 q 177 105 235 71 q 89 186 118 138 q 60 302 60 235 q 172 470 60 415 q 88 644 88 532 q 169 807 88 746 q 390 867 250 867 q 608 799 530 867 q 687 604 687 730 l 574 604 q 523 728 574 682 q 385 775 471 775 q 250 741 299 775 q 201 645 201 706 q 218 579 201 604 q 270 538 235 555 q 408 490 304 521 q 545 444 511 458 q 682 323 648 400 q 701 229 701 281 m 585 228 l 587 228 q 569 290 587 265 q 506 338 552 315 q 369 388 459 361 q 267 419 313 403 q 196 377 220 408 q 173 304 173 347 q 189 237 173 261 q 242 194 205 212 q 380 145 278 176 q 486 112 481 114 q 559 155 534 124 q 585 228 585 185 z "},"¨":{"ha":522,"x_min":62,"x_max":458,"o":"m 441 875 q 433 866 441 875 q 391 857 424 857 q 342 875 359 857 q 325 922 325 892 q 342 969 325 951 q 391 987 359 987 q 441 968 424 987 q 458 921 458 950 q 441 875 458 892 m 179 876 q 170 867 179 876 q 129 859 161 859 q 79 876 96 859 q 62 923 62 894 q 79 969 62 951 q 129 987 96 987 q 179 969 161 987 q 196 923 196 951 q 179 876 196 894 z "},"©":{"ha":979,"x_min":54,"x_max":920,"o":"m 589 362 l 678 362 l 680 359 q 629 219 682 267 q 479 171 576 171 q 323 235 381 171 q 266 407 266 300 l 266 479 q 323 651 266 587 q 478 715 381 715 q 629 667 576 715 q 680 528 682 619 l 679 525 l 589 525 q 562 609 589 583 q 478 636 535 636 q 390 594 422 636 q 359 480 359 551 l 359 407 q 390 292 359 334 q 479 250 422 250 q 563 277 536 250 q 589 362 589 303 m 668 775 q 627 800 668 775 q 487 825 586 825 q 306 775 388 825 q 175 637 223 725 q 127 443 127 549 q 175 249 127 337 q 306 110 223 161 q 487 60 388 60 q 668 110 586 60 q 799 249 751 161 q 846 443 846 337 q 799 637 846 549 q 668 775 751 725 m 487 -14 q 318 21 398 -14 q 179 118 237 57 q 87 263 121 178 q 54 444 54 349 q 111 675 54 570 q 268 840 169 780 q 487 899 368 899 q 705 840 606 899 q 862 675 804 780 q 920 444 920 570 q 862 211 920 317 q 705 46 804 106 q 487 -14 606 -14 z "},"ª":{"ha":559,"x_min":90,"x_max":479,"o":"m 368 520 q 245 468 321 468 q 130 505 170 468 q 90 606 90 543 q 297 747 90 747 l 363 747 l 363 779 q 288 862 363 862 q 221 845 245 862 q 197 798 197 829 l 99 805 q 151 908 99 869 q 287 947 203 947 q 416 903 370 947 q 463 778 463 859 l 463 585 q 479 477 463 526 l 378 477 q 368 520 372 496 m 267 551 q 318 563 292 551 q 363 593 345 575 l 363 680 l 295 680 q 217 661 245 680 q 189 610 189 642 l 190 609 q 267 551 190 551 z "},"«":{"ha":587,"x_min":56,"x_max":546,"o":"m 322 588 l 164 345 l 322 102 l 236 102 l 56 339 l 56 351 l 236 588 l 322 588 m 546 588 l 388 345 l 546 102 l 460 102 l 279 339 l 279 351 l 460 588 l 546 588 z "},"¬":{"ha":692,"x_min":77,"x_max":585,"o":"m 585 514 l 585 254 l 471 254 l 471 416 l 77 416 l 77 514 l 585 514 z "},"­":{"ha":345,"x_min":20,"x_max":319,"o":"m 319 459 l 319 365 l 20 365 l 20 459 l 319 459 z "},"®":{"ha":983,"x_min":55,"x_max":921,"o":"m 399 397 l 399 191 l 313 191 l 313 709 l 481 709 q 627 669 576 709 q 677 553 677 629 q 600 438 677 478 q 675 313 674 407 l 675 276 q 685 201 675 222 l 685 191 l 596 191 q 588 271 589 208 q 586 336 586 334 q 506 397 577 395 l 399 397 m 399 632 l 399 475 l 494 475 q 565 497 538 477 q 591 551 591 517 q 568 614 591 595 q 483 632 544 632 l 399 632 m 174 636 q 125 444 125 549 q 174 249 125 338 q 306 109 222 160 q 488 58 389 58 q 670 109 586 58 q 802 249 754 160 q 850 443 850 338 q 803 635 850 547 q 671 774 755 723 q 488 825 587 825 q 306 775 389 825 q 174 635 222 725 l 174 636 m 111 216 q 55 446 55 323 q 112 673 55 568 q 270 840 169 779 q 488 900 372 900 q 706 839 605 900 q 864 673 807 779 q 921 445 921 568 q 866 217 921 321 q 710 50 810 113 q 489 -14 610 -14 q 268 48 369 -14 q 111 217 167 111 l 111 216 z "},"¯":{"ha":572,"x_min":73,"x_max":509,"o":"m 509 978 l 509 890 l 73 890 l 73 978 l 509 978 z "},"°":{"ha":467,"x_min":79,"x_max":388,"o":"m 235 888 q 218 888 235 888 q 179 865 201 888 q 156 808 156 841 q 179 752 156 774 q 235 729 201 729 q 291 751 269 729 q 313 808 313 773 q 291 866 313 843 q 235 888 269 888 m 388 807 q 388 775 388 807 q 343 697 388 743 q 235 651 299 651 q 125 697 171 651 q 79 807 79 743 q 125 919 79 871 q 234 966 170 966 q 343 919 298 966 q 388 807 388 872 z "},"±":{"ha":668,"x_min":59,"x_max":618,"o":"m 592 93 l 592 0 l 82 0 l 82 93 l 592 93 m 396 773 l 396 522 l 618 522 l 618 429 l 396 429 l 396 176 l 294 176 l 294 429 l 59 429 l 59 522 l 294 522 l 294 773 l 396 773 z "},"´":{"ha":392,"x_min":75,"x_max":330,"o":"m 75 841 l 193 1021 l 330 1021 l 166 841 l 75 841 z "},"µ":{"ha":708,"x_min":94,"x_max":614,"o":"m 94 632 l 207 632 l 207 246 q 239 98 208 145 q 340 51 271 51 q 500 144 462 51 l 500 632 l 614 632 l 614 -28 l 512 -28 l 507 42 q 346 -41 450 -41 q 207 4 258 -41 l 207 -282 l 94 -282 l 94 632 z "},"¶":{"ha":611,"x_min":41,"x_max":508,"o":"m 508 0 l 394 0 l 394 317 l 343 317 q 122 394 203 317 q 41 603 41 471 q 122 811 41 734 q 344 888 203 888 l 508 888 l 508 0 z "},"·":{"ha":326,"x_min":90,"x_max":230,"o":"m 211 438 q 202 429 211 438 q 159 420 193 420 q 108 438 126 420 q 90 487 90 457 q 108 536 90 517 q 160 555 126 555 q 212 536 193 555 q 230 487 230 517 q 211 438 230 457 z "},"¸":{"ha":309,"x_min":71,"x_max":260,"o":"m 260 -168 q 211 -261 260 -227 q 75 -296 162 -296 l 71 -231 q 146 -215 119 -231 q 172 -170 172 -199 q 152 -129 172 -142 q 73 -111 132 -117 l 93 -30 l 174 -31 l 167 -62 q 260 -168 260 -79 z "},"º":{"ha":568,"x_min":75,"x_max":492,"o":"m 202 588 q 217 570 202 588 q 283 553 232 553 q 364 588 335 553 q 393 685 393 623 l 393 732 q 364 827 393 793 q 284 862 334 862 q 204 828 233 862 q 174 736 175 795 l 173 684 q 202 588 173 623 m 75 687 l 75 732 q 132 888 75 829 q 284 947 189 947 q 436 889 379 947 q 492 728 492 830 l 492 684 q 435 527 492 586 q 284 468 378 468 q 132 527 189 468 q 75 687 75 587 z "},"»":{"ha":586,"x_min":56,"x_max":559,"o":"m 56 589 l 143 589 l 323 352 l 323 340 l 143 103 l 56 103 l 214 346 l 56 589 m 293 589 l 380 589 l 559 352 l 559 340 l 380 103 l 293 103 l 450 346 l 293 589 z "},"¼":{"ha":916,"x_min":203,"x_max":701,"o":"m 701 774 l 267 80 l 203 120 l 637 815 l 701 774 z "},"½":{"ha":970,"x_min":176,"x_max":674,"o":"m 674 774 l 240 80 l 176 120 l 610 815 l 674 774 z "},"¾":{"ha":972,"x_min":280,"x_max":778,"o":"m 778 774 l 344 80 l 280 120 l 714 815 l 778 774 z "},"¿":{"ha":591,"x_min":41,"x_max":542,"o":"m 155 -27 q 190 -129 155 -94 q 289 -163 225 -163 q 391 -129 353 -163 q 429 -39 429 -95 l 542 -39 q 472 -200 541 -138 q 288 -262 404 -262 q 107 -201 172 -262 q 41 -33 41 -140 q 139 183 41 75 l 205 252 q 246 389 246 300 l 359 389 q 346 286 358 324 q 304 210 334 247 q 255 157 300 206 q 184 70 209 109 q 156 -4 159 32 l 155 -27 m 230 582 q 230 596 230 582 q 248 628 230 610 q 298 646 266 646 q 347 628 330 646 q 363 582 363 610 q 347 535 363 553 q 297 517 330 517 q 248 535 265 517 q 230 582 230 553 z "},"À":{"ha":815,"x_min":10,"x_max":795,"o":"m 673 0 l 589 229 l 217 229 l 133 0 l 10 0 l 354 888 l 457 888 l 795 0 l 673 0 m 404 734 l 254 330 l 553 330 l 407 734 l 404 734 m 397 1194 l 503 1031 l 407 1031 l 254 1190 l 256 1194 l 397 1194 z "},"Á":{"ha":815,"x_min":10,"x_max":795,"o":"m 673 0 l 589 229 l 217 229 l 133 0 l 10 0 l 354 888 l 457 888 l 795 0 l 673 0 m 404 734 l 254 330 l 553 330 l 407 734 l 404 734 m 376 1051 l 494 1231 l 631 1231 l 467 1051 l 376 1051 z "},"Â":{"ha":815,"x_min":10,"x_max":795,"o":"m 673 0 l 589 229 l 217 229 l 133 0 l 10 0 l 354 888 l 457 888 l 795 0 l 673 0 m 404 734 l 254 330 l 553 330 l 407 734 l 404 734 m 608 1059 l 514 1059 l 422 1163 l 332 1059 l 238 1059 l 238 1067 l 389 1233 l 456 1233 l 608 1065 l 608 1059 z "},"Ã":{"ha":815,"x_min":9,"x_max":794,"o":"m 672 0 l 589 229 l 216 229 l 132 0 l 9 0 l 353 888 l 456 888 l 794 0 l 672 0 m 403 734 l 254 330 l 553 330 l 406 734 l 403 734 m 507 1065 q 464 1071 481 1065 q 416 1096 446 1077 q 374 1119 387 1114 q 339 1123 361 1123 q 300 1103 317 1123 q 282 1055 282 1084 l 207 1059 q 244 1167 207 1124 q 337 1210 281 1210 q 376 1204 359 1210 q 422 1180 393 1198 q 467 1157 452 1162 q 505 1151 483 1151 q 545 1171 528 1151 q 563 1220 563 1192 l 638 1213 q 601 1106 638 1147 q 507 1065 564 1065 z "},"Ä":{"ha":815,"x_min":10,"x_max":795,"o":"m 673 0 l 589 229 l 217 229 l 133 0 l 10 0 l 354 888 l 457 888 l 795 0 l 673 0 m 404 734 l 254 330 l 553 330 l 407 734 l 404 734 m 609 1085 q 600 1076 609 1085 q 559 1067 591 1067 q 509 1085 526 1067 q 492 1132 492 1103 q 509 1179 492 1161 q 559 1197 526 1197 q 609 1179 591 1197 q 626 1132 626 1160 q 609 1085 626 1103 m 346 1086 q 338 1078 346 1086 q 296 1069 329 1069 q 247 1086 264 1069 q 230 1133 230 1104 q 247 1180 230 1162 q 296 1198 264 1198 q 346 1180 329 1198 q 363 1133 363 1162 q 346 1086 363 1104 z "},"Å":{"ha":815,"x_min":10,"x_max":795,"o":"m 673 0 l 589 229 l 217 229 l 133 0 l 10 0 l 354 888 l 457 888 l 795 0 l 673 0 m 404 734 l 254 330 l 553 330 l 407 734 l 404 734 m 502 1159 q 502 1174 502 1159 q 481 1210 502 1190 q 431 1231 461 1231 q 380 1210 401 1231 q 360 1159 360 1189 q 380 1109 360 1129 q 431 1088 401 1088 q 481 1109 460 1088 q 502 1159 502 1129 m 300 1159 q 300 1185 300 1159 q 337 1249 300 1212 q 431 1286 375 1286 q 525 1249 487 1286 q 562 1159 562 1212 q 525 1070 562 1105 q 431 1034 487 1034 q 337 1070 374 1034 q 300 1159 300 1105 z "},"Æ":{"ha":1168,"x_min":-9,"x_max":1147,"o":"m 1147 92 l 1147 0 l 608 0 l 599 216 l 254 216 l 130 0 l -9 0 l 528 888 l 1109 888 l 1109 796 l 687 796 l 699 509 l 1059 509 l 1059 416 l 703 416 l 717 92 l 1147 92 m 576 769 l 316 321 l 595 321 l 576 769 z "},"Ç":{"ha":814,"x_min":63,"x_max":734,"o":"m 567 -174 q 518 -268 567 -233 q 382 -302 469 -302 l 378 -237 q 453 -221 427 -237 q 479 -176 479 -205 q 459 -135 479 -148 q 380 -117 439 -123 l 400 -36 l 481 -37 l 474 -68 q 567 -174 567 -85 m 614 283 l 729 283 l 730 279 q 642 69 733 152 q 402 -14 551 -14 q 158 92 253 -14 q 63 363 63 198 l 63 522 q 158 793 63 687 q 404 900 253 900 q 645 820 555 900 q 731 607 734 741 l 730 604 l 614 604 q 559 752 614 699 q 405 806 504 806 q 245 726 305 806 q 184 523 184 646 l 184 363 q 245 160 184 239 q 405 80 305 80 q 559 133 505 80 q 614 283 614 186 z "},"È":{"ha":711,"x_min":100,"x_max":689,"o":"m 627 507 l 627 412 l 220 412 l 220 94 l 689 94 l 689 0 l 100 0 l 100 888 l 683 888 l 683 794 l 220 794 l 220 507 l 627 507 m 353 1202 l 459 1040 l 363 1040 l 210 1198 l 212 1202 l 353 1202 z "},"É":{"ha":711,"x_min":100,"x_max":689,"o":"m 627 507 l 627 412 l 220 412 l 220 94 l 689 94 l 689 0 l 100 0 l 100 888 l 683 888 l 683 794 l 220 794 l 220 507 l 627 507 m 332 1059 l 450 1239 l 587 1239 l 423 1059 l 332 1059 z "},"Ê":{"ha":711,"x_min":100,"x_max":689,"o":"m 627 507 l 627 412 l 220 412 l 220 94 l 689 94 l 689 0 l 100 0 l 100 888 l 683 888 l 683 794 l 220 794 l 220 507 l 627 507 m 563 1067 l 469 1067 l 378 1171 l 287 1067 l 193 1067 l 193 1075 l 344 1241 l 412 1241 l 563 1074 l 563 1067 z "},"Ë":{"ha":711,"x_min":100,"x_max":689,"o":"m 627 507 l 627 412 l 220 412 l 220 94 l 689 94 l 689 0 l 100 0 l 100 888 l 683 888 l 683 794 l 220 794 l 220 507 l 627 507 m 564 1093 q 555 1084 564 1093 q 514 1076 547 1076 q 465 1093 481 1076 q 448 1140 448 1111 q 465 1187 448 1169 q 514 1205 481 1205 q 564 1187 547 1205 q 581 1140 581 1168 q 564 1093 581 1111 m 301 1095 q 293 1086 301 1095 q 252 1077 284 1077 q 202 1095 219 1077 q 185 1141 185 1112 q 202 1188 185 1170 q 252 1206 219 1206 q 301 1188 284 1206 q 319 1141 319 1170 q 301 1095 319 1112 z "},"Ì":{"ha":340,"x_min":-7,"x_max":241,"o":"m 239 888 l 239 0 l 119 0 l 119 888 l 239 888 m 135 1202 l 241 1040 l 145 1040 l -7 1198 l -5 1202 l 135 1202 z "},"Í":{"ha":340,"x_min":100,"x_max":355,"o":"m 226 888 l 226 0 l 105 0 l 105 888 l 226 888 m 100 1059 l 218 1239 l 355 1239 l 191 1059 l 100 1059 z "},"Î":{"ha":340,"x_min":-26,"x_max":344,"o":"m 238 888 l 238 0 l 117 0 l 117 888 l 238 888 m 344 1067 l 250 1067 l 159 1171 l 68 1067 l -26 1067 l -26 1075 l 125 1241 l 193 1241 l 344 1074 l 344 1067 z "},"Ï":{"ha":340,"x_min":-33,"x_max":363,"o":"m 239 888 l 239 0 l 119 0 l 119 888 l 239 888 m 346 1093 q 338 1084 346 1093 q 296 1076 329 1076 q 247 1093 264 1076 q 230 1140 230 1111 q 247 1187 230 1169 q 296 1205 264 1205 q 346 1187 329 1205 q 363 1140 363 1168 q 346 1093 363 1111 m 84 1095 q 75 1086 84 1095 q 34 1077 66 1077 q -16 1095 1 1077 q -33 1141 -33 1112 q -16 1188 -33 1170 q 34 1206 1 1206 q 84 1188 66 1206 q 101 1141 101 1170 q 84 1095 101 1112 z "},"Ð":{"ha":838,"x_min":23,"x_max":764,"o":"m 412 498 l 412 406 l 239 406 l 239 95 l 362 95 q 573 178 498 95 q 649 414 648 262 l 649 471 q 578 707 649 623 q 376 792 507 791 l 239 792 l 239 498 l 412 498 m 122 0 l 122 406 l 23 406 l 23 498 l 122 498 l 122 888 l 373 888 q 578 838 490 888 q 715 692 667 787 q 764 474 764 598 l 764 418 q 716 197 764 291 q 577 52 668 102 q 368 0 489 1 l 122 0 z "},"Ñ":{"ha":891,"x_min":98,"x_max":770,"o":"m 770 888 l 770 0 l 650 0 l 222 687 l 218 686 l 218 0 l 98 0 l 98 888 l 218 888 l 646 203 l 650 204 l 650 888 l 770 888 m 534 1065 q 490 1071 508 1065 q 443 1096 472 1077 q 401 1119 414 1114 q 366 1123 388 1123 q 326 1103 344 1123 q 309 1055 309 1084 l 233 1059 q 270 1167 233 1124 q 363 1210 307 1210 q 402 1204 385 1210 q 449 1180 419 1198 q 494 1157 478 1162 q 532 1151 509 1151 q 572 1171 554 1151 q 589 1220 589 1192 l 665 1213 q 627 1106 665 1147 q 534 1065 590 1065 z "},"Ò":{"ha":859,"x_min":62,"x_max":775,"o":"m 655 363 l 655 523 q 589 724 655 647 q 415 801 522 801 q 245 724 308 801 q 182 523 182 646 l 182 363 q 244 161 182 239 q 415 84 307 84 q 589 161 523 84 q 655 363 655 238 m 775 522 l 775 363 q 674 92 775 199 q 415 -14 573 -14 q 159 92 256 -14 q 62 363 62 199 l 62 522 q 159 793 62 686 q 415 900 256 900 q 674 793 573 900 q 775 522 775 687 m 414 1195 l 521 1033 l 425 1033 l 272 1192 l 274 1195 l 414 1195 z "},"Ó":{"ha":859,"x_min":61,"x_max":774,"o":"m 654 363 l 654 523 q 588 724 654 647 q 414 801 522 801 q 244 724 307 801 q 181 523 181 646 l 181 363 q 244 161 181 239 q 414 84 307 84 q 588 161 522 84 q 654 363 654 238 m 774 522 l 774 363 q 673 92 774 199 q 414 -14 572 -14 q 158 92 256 -14 q 61 363 61 199 l 61 522 q 158 793 61 686 q 414 900 256 900 q 673 793 572 900 q 774 522 774 687 m 393 1053 l 511 1232 l 648 1232 l 484 1053 l 393 1053 z "},"Ô":{"ha":859,"x_min":61,"x_max":774,"o":"m 654 363 l 654 523 q 588 724 654 647 q 414 801 522 801 q 244 724 307 801 q 181 523 181 646 l 181 363 q 244 161 181 239 q 414 84 307 84 q 588 161 522 84 q 654 363 654 238 m 774 522 l 774 363 q 673 92 774 199 q 414 -14 572 -14 q 158 92 256 -14 q 61 363 61 199 l 61 522 q 158 793 61 686 q 414 900 256 900 q 673 793 572 900 q 774 522 774 687 m 624 1061 l 530 1061 l 439 1164 l 348 1061 l 254 1061 l 254 1068 l 405 1234 l 473 1234 l 624 1067 l 624 1061 z "},"Õ":{"ha":859,"x_min":60,"x_max":774,"o":"m 654 363 l 654 523 q 587 724 654 647 q 414 801 521 801 q 243 724 307 801 q 180 523 180 646 l 180 363 q 243 161 180 239 q 414 84 306 84 q 588 161 522 84 q 654 363 654 238 m 774 522 l 774 363 q 673 92 774 199 q 413 -14 572 -14 q 158 92 255 -14 q 60 363 60 199 l 60 522 q 158 793 60 686 q 413 900 255 900 q 673 793 572 900 q 774 522 774 687 m 524 1066 q 480 1072 498 1066 q 433 1097 462 1078 q 391 1120 404 1116 q 356 1124 378 1124 q 316 1105 334 1124 q 298 1056 298 1085 l 223 1060 q 260 1168 223 1126 q 353 1211 297 1211 q 392 1205 375 1211 q 438 1181 409 1199 q 484 1158 468 1164 q 522 1152 499 1152 q 562 1173 544 1152 q 579 1221 579 1193 l 654 1214 q 617 1107 654 1149 q 524 1066 580 1066 z "},"Ö":{"ha":859,"x_min":61,"x_max":774,"o":"m 654 363 l 654 523 q 588 724 654 647 q 414 801 522 801 q 244 724 307 801 q 181 523 181 646 l 181 363 q 244 161 181 239 q 414 84 307 84 q 588 161 522 84 q 654 363 654 238 m 774 522 l 774 363 q 673 92 774 199 q 414 -14 572 -14 q 158 92 256 -14 q 61 363 61 199 l 61 522 q 158 793 61 686 q 414 900 256 900 q 673 793 572 900 q 774 522 774 687 m 625 1086 q 616 1078 625 1086 q 575 1069 608 1069 q 526 1086 543 1069 q 509 1133 509 1104 q 526 1180 509 1162 q 575 1198 543 1198 q 625 1180 608 1198 q 642 1133 642 1162 q 625 1086 642 1104 m 362 1088 q 354 1079 362 1088 q 313 1070 345 1070 q 263 1088 280 1070 q 246 1134 246 1105 q 263 1181 246 1163 q 313 1199 280 1199 q 362 1181 345 1199 q 380 1134 380 1163 q 362 1088 380 1105 z "},"×":{"ha":669,"x_min":54,"x_max":606,"o":"m 131 153 l 54 229 l 254 433 l 54 637 l 131 714 l 330 511 l 529 714 l 606 637 l 406 433 l 606 229 l 529 153 l 330 355 l 131 153 z "},"Ø":{"ha":859,"x_min":71,"x_max":799,"o":"m 618 33 q 431 -18 536 -18 q 245 32 325 -18 l 186 -63 l 100 -63 l 187 78 q 71 415 71 195 l 71 465 q 116 692 71 594 q 242 842 160 790 q 429 895 322 895 q 650 819 559 895 l 713 919 l 799 919 l 702 764 q 787 470 786 648 l 786 410 q 743 182 786 279 q 618 33 699 85 m 670 467 q 635 658 670 578 l 300 120 q 430 81 356 81 q 606 163 544 81 q 670 401 669 245 l 670 467 m 189 410 q 248 174 189 261 l 593 726 q 429 794 530 794 q 254 710 317 794 q 189 475 191 625 l 189 410 z "},"Ù":{"ha":810,"x_min":81,"x_max":751,"o":"m 630 887 l 751 887 l 751 285 q 659 64 751 142 q 413 -14 566 -14 q 170 64 260 -14 q 81 285 81 142 l 81 887 l 201 887 l 201 285 q 257 133 201 186 q 412 80 313 80 q 571 133 511 80 q 630 285 630 186 l 630 887 m 387 1194 l 493 1031 l 397 1031 l 244 1190 l 246 1194 l 387 1194 z "},"Ú":{"ha":810,"x_min":80,"x_max":751,"o":"m 629 887 l 751 887 l 751 285 q 658 64 751 142 q 412 -14 566 -14 q 170 64 259 -14 q 80 285 80 142 l 80 887 l 201 887 l 201 285 q 257 133 201 186 q 412 80 313 80 q 570 133 511 80 q 629 285 629 186 l 629 887 m 366 1051 l 483 1231 l 620 1231 l 456 1051 l 366 1051 z "},"Û":{"ha":810,"x_min":80,"x_max":751,"o":"m 629 887 l 751 887 l 751 285 q 658 64 751 142 q 412 -14 566 -14 q 170 64 259 -14 q 80 285 80 142 l 80 887 l 201 887 l 201 285 q 257 133 201 186 q 412 80 313 80 q 570 133 511 80 q 629 285 629 186 l 629 887 m 596 1059 l 503 1059 l 411 1163 l 320 1059 l 227 1059 l 227 1067 l 377 1233 l 445 1233 l 596 1065 l 596 1059 z "},"Ü":{"ha":810,"x_min":80,"x_max":751,"o":"m 629 887 l 751 887 l 751 285 q 658 64 751 142 q 412 -14 566 -14 q 170 64 259 -14 q 80 285 80 142 l 80 887 l 201 887 l 201 285 q 257 133 201 186 q 412 80 313 80 q 570 133 511 80 q 629 285 629 186 l 629 887 m 597 1085 q 588 1076 597 1085 q 547 1067 580 1067 q 498 1085 515 1067 q 481 1132 481 1103 q 498 1179 481 1161 q 547 1197 515 1197 q 597 1179 580 1197 q 614 1132 614 1160 q 597 1085 614 1103 m 335 1086 q 326 1078 335 1086 q 285 1069 317 1069 q 235 1086 252 1069 q 218 1133 218 1104 q 235 1180 218 1162 q 285 1198 252 1198 q 335 1180 317 1198 q 352 1133 352 1162 q 335 1086 352 1104 z "},"Ý":{"ha":751,"x_min":11,"x_max":749,"o":"m 437 0 l 318 0 l 318 321 l 11 888 l 149 888 l 380 437 l 612 888 l 749 888 l 437 313 l 437 0 m 340 1051 l 458 1231 l 595 1231 l 431 1051 l 340 1051 z "},"Þ":{"ha":739,"x_min":101,"x_max":682,"o":"m 215 617 l 215 284 l 384 284 q 519 329 470 284 q 568 450 568 374 q 519 571 568 525 q 388 617 471 616 l 215 617 m 101 888 l 215 888 l 215 710 l 385 710 q 542 678 475 710 q 645 587 609 646 q 682 450 682 528 q 601 261 682 331 q 382 191 521 191 l 215 191 l 215 0 l 101 0 l 101 888 z "},"ß":{"ha":743,"x_min":85,"x_max":690,"o":"m 85 -3 l 85 675 q 149 875 85 804 q 323 946 212 946 q 495 892 435 946 q 555 739 555 838 q 543 666 555 705 q 517 601 531 628 q 477 497 477 528 q 500 437 477 466 q 580 365 522 409 q 664 279 638 320 q 690 191 690 238 q 629 40 690 94 q 456 -14 567 -14 q 351 -1 406 -14 q 272 31 296 13 l 298 125 q 370 92 328 105 q 443 79 411 79 q 543 107 508 79 q 577 186 577 136 q 555 247 577 218 q 474 321 532 277 q 390 408 416 366 q 363 500 363 450 q 406 617 363 545 q 448 732 448 689 q 417 822 448 789 q 331 854 385 854 q 198 675 198 854 l 199 -3 l 85 -3 z "},"à":{"ha":680,"x_min":57,"x_max":610,"o":"m 269 -14 q 111 38 165 -14 q 57 184 57 90 q 133 332 57 279 q 342 386 209 386 l 472 386 l 472 451 q 436 543 472 509 q 340 576 401 576 q 243 548 279 576 q 206 476 206 519 l 92 476 l 90 479 q 160 613 87 554 q 346 671 233 671 q 526 613 458 671 q 593 450 593 555 l 593 132 q 610 -1 593 55 l 486 -1 q 472 98 473 62 q 383 17 437 47 q 269 -14 329 -14 m 178 182 l 178 182 q 205 112 178 137 q 292 87 233 87 q 403 120 350 87 q 473 197 456 153 l 473 304 l 338 304 q 222 269 267 304 q 178 182 178 233 m 330 983 l 437 821 l 340 821 l 188 980 l 190 983 l 330 983 z "},"á":{"ha":680,"x_min":57,"x_max":610,"o":"m 269 -14 q 111 38 165 -14 q 57 184 57 90 q 133 332 57 279 q 342 386 209 386 l 472 386 l 472 451 q 436 543 472 509 q 340 576 401 576 q 243 548 279 576 q 206 476 206 519 l 92 476 l 90 479 q 160 613 87 554 q 346 671 233 671 q 526 613 458 671 q 593 450 593 555 l 593 132 q 610 -1 593 55 l 486 -1 q 472 98 473 62 q 383 17 437 47 q 269 -14 329 -14 m 178 182 l 178 182 q 205 112 178 137 q 292 87 233 87 q 403 120 350 87 q 473 197 456 153 l 473 304 l 338 304 q 222 269 267 304 q 178 182 178 233 m 310 841 l 427 1021 l 564 1021 l 401 841 l 310 841 z "},"â":{"ha":680,"x_min":57,"x_max":610,"o":"m 269 -14 q 111 38 165 -14 q 57 184 57 90 q 133 332 57 279 q 342 386 209 386 l 472 386 l 472 451 q 436 543 472 509 q 340 576 401 576 q 243 548 279 576 q 206 476 206 519 l 92 476 l 90 479 q 160 613 87 554 q 346 671 233 671 q 526 613 458 671 q 593 450 593 555 l 593 132 q 610 -1 593 55 l 486 -1 q 472 98 473 62 q 383 17 437 47 q 269 -14 329 -14 m 178 182 l 178 182 q 205 112 178 137 q 292 87 233 87 q 403 120 350 87 q 473 197 456 153 l 473 304 l 338 304 q 222 269 267 304 q 178 182 178 233 m 541 849 l 447 849 l 355 953 l 264 849 l 171 849 l 171 857 l 321 1023 l 389 1023 l 541 855 l 541 849 z "},"ã":{"ha":680,"x_min":56,"x_max":609,"o":"m 268 -14 q 111 38 165 -14 q 56 184 56 90 q 132 332 56 279 q 341 386 208 386 l 471 386 l 471 451 q 436 543 471 509 q 339 576 400 576 q 242 548 279 576 q 205 476 205 519 l 91 476 l 90 479 q 159 613 86 554 q 345 671 232 671 q 525 613 458 671 q 592 450 592 555 l 592 132 q 609 -1 592 55 l 485 -1 q 471 98 472 62 q 382 17 436 47 q 268 -14 328 -14 m 178 182 l 177 182 q 205 112 177 137 q 291 87 233 87 q 402 120 349 87 q 472 197 456 153 l 472 304 l 338 304 q 222 269 266 304 q 178 182 178 233 m 440 854 q 396 861 414 854 q 349 885 378 867 q 307 908 320 904 q 272 913 294 913 q 233 893 250 913 q 215 844 215 873 l 140 848 q 177 957 140 914 q 270 1000 214 1000 q 309 994 292 1000 q 355 970 326 987 q 400 946 385 952 q 438 941 416 941 q 478 961 460 941 q 496 1010 496 981 l 571 1002 q 534 896 571 937 q 440 854 496 854 z "},"ä":{"ha":680,"x_min":57,"x_max":610,"o":"m 269 -14 q 111 38 165 -14 q 57 184 57 90 q 133 332 57 279 q 342 386 209 386 l 472 386 l 472 451 q 436 543 472 509 q 340 576 401 576 q 243 548 279 576 q 206 476 206 519 l 92 476 l 90 479 q 160 613 87 554 q 346 671 233 671 q 526 613 458 671 q 593 450 593 555 l 593 132 q 610 -1 593 55 l 486 -1 q 472 98 473 62 q 383 17 437 47 q 269 -14 329 -14 m 178 182 l 178 182 q 205 112 178 137 q 292 87 233 87 q 403 120 350 87 q 473 197 456 153 l 473 304 l 338 304 q 222 269 267 304 q 178 182 178 233 m 542 875 q 533 866 542 875 q 492 857 524 857 q 442 875 459 857 q 425 922 425 892 q 442 969 425 951 q 492 987 459 987 q 542 968 524 987 q 559 921 559 950 q 542 875 559 892 m 279 876 q 270 867 279 876 q 229 859 262 859 q 180 876 197 859 q 163 923 163 894 q 180 969 163 951 q 229 987 197 987 q 279 969 262 987 q 296 923 296 951 q 279 876 296 894 z "},"å":{"ha":680,"x_min":56,"x_max":609,"o":"m 268 -14 q 111 38 165 -14 q 56 184 56 90 q 132 332 56 279 q 341 386 208 386 l 471 386 l 471 451 q 436 543 471 509 q 339 576 400 576 q 242 548 279 576 q 205 476 205 519 l 91 476 l 90 479 q 159 613 86 554 q 345 671 232 671 q 525 613 458 671 q 592 450 592 555 l 592 132 q 609 -1 592 55 l 485 -1 q 471 98 472 62 q 382 17 436 47 q 268 -14 328 -14 m 178 182 l 177 182 q 205 112 177 137 q 291 87 233 87 q 402 120 349 87 q 472 197 456 153 l 472 304 l 338 304 q 222 269 266 304 q 178 182 178 233 m 435 949 q 435 964 435 949 q 414 1000 435 979 q 364 1021 394 1021 q 313 1000 334 1021 q 293 949 293 979 q 313 899 293 919 q 363 878 334 878 q 414 899 393 878 q 435 949 435 919 m 233 948 q 233 975 233 948 q 270 1039 233 1002 q 364 1076 308 1076 q 457 1039 420 1076 q 495 948 495 1002 q 457 860 495 895 q 363 824 420 824 q 270 860 307 824 q 233 948 233 895 z "},"æ":{"ha":1055,"x_min":47,"x_max":1013,"o":"m 901 390 l 901 410 q 860 535 901 491 q 746 580 819 580 q 628 528 674 580 q 572 390 583 477 l 901 390 m 1002 60 l 1002 61 l 1002 60 m 457 303 l 318 303 q 204 269 247 302 q 161 185 161 235 q 194 108 161 136 q 286 80 227 80 q 378 102 330 80 q 457 158 426 125 l 457 303 m 770 -13 q 528 97 611 -13 q 419 16 488 45 q 264 -13 351 -13 q 105 40 162 -13 q 47 187 47 92 q 117 335 47 282 q 321 387 187 387 l 457 387 l 457 439 q 424 542 457 505 q 326 579 390 579 q 220 546 262 579 q 177 463 177 513 l 64 474 q 138 617 64 562 q 327 672 212 672 q 534 570 473 672 q 744 671 615 671 q 943 593 872 671 q 1013 372 1013 515 l 1013 302 l 569 302 q 626 136 573 195 q 769 78 678 78 q 935 124 861 78 l 963 143 l 1002 61 q 770 -13 907 -13 z "},"ç":{"ha":654,"x_min":53,"x_max":613,"o":"m 470 -174 q 421 -268 470 -233 q 286 -302 372 -302 l 281 -237 q 356 -221 330 -237 q 382 -176 382 -205 q 362 -135 382 -148 q 283 -117 342 -123 l 303 -36 l 385 -37 l 377 -68 q 470 -174 470 -85 m 174 316 q 214 148 174 210 q 350 80 256 80 q 456 117 411 80 q 500 208 500 155 l 608 208 l 610 203 q 534 52 613 117 q 350 -14 456 -14 q 131 77 209 -14 q 53 316 53 169 l 53 342 q 131 580 53 488 q 350 671 210 671 q 539 604 465 671 q 610 435 613 536 l 609 431 l 500 431 q 458 534 500 492 q 352 576 415 576 q 248 545 288 576 q 191 462 208 513 q 174 342 174 411 l 174 316 z "},"è":{"ha":663,"x_min":54,"x_max":607,"o":"m 486 410 q 448 531 486 485 q 336 576 409 576 q 234 526 277 576 q 180 398 191 476 l 182 395 l 486 395 l 486 410 m 355 -14 q 135 77 217 -14 q 54 316 54 168 l 54 343 q 137 577 54 482 q 336 671 220 671 q 537 592 468 671 q 607 376 607 513 l 607 300 l 178 300 l 176 298 q 225 140 178 200 q 355 80 273 80 q 542 145 470 80 l 589 67 l 589 67 q 355 -14 506 -14 m 320 983 l 427 821 l 330 821 l 178 980 l 180 983 l 320 983 z "},"é":{"ha":663,"x_min":54,"x_max":607,"o":"m 486 410 q 448 531 486 485 q 336 576 409 576 q 234 526 277 576 q 180 398 191 476 l 182 395 l 486 395 l 486 410 m 355 -14 q 135 77 217 -14 q 54 316 54 168 l 54 343 q 137 577 54 482 q 336 671 220 671 q 537 592 468 671 q 607 376 607 513 l 607 300 l 178 300 l 176 298 q 225 140 178 200 q 355 80 273 80 q 542 145 470 80 l 589 67 l 589 67 q 355 -14 506 -14 m 300 841 l 417 1021 l 554 1021 l 391 841 l 300 841 z "},"ê":{"ha":663,"x_min":54,"x_max":607,"o":"m 486 410 q 448 531 486 485 q 336 576 409 576 q 234 526 277 576 q 180 398 191 476 l 182 395 l 486 395 l 486 410 m 355 -14 q 135 77 217 -14 q 54 316 54 168 l 54 343 q 137 577 54 482 q 336 671 220 671 q 537 592 468 671 q 607 376 607 513 l 607 300 l 178 300 l 176 298 q 225 140 178 200 q 355 80 273 80 q 542 145 470 80 l 589 67 l 589 67 q 355 -14 506 -14 m 530 849 l 437 849 l 345 953 l 254 849 l 161 849 l 161 857 l 311 1023 l 379 1023 l 530 855 l 530 849 z "},"ë":{"ha":663,"x_min":54,"x_max":607,"o":"m 486 410 q 448 531 486 485 q 336 576 409 576 q 234 526 277 576 q 180 398 191 476 l 182 395 l 486 395 l 486 410 m 355 -14 q 135 77 217 -14 q 54 316 54 168 l 54 343 q 137 577 54 482 q 336 671 220 671 q 537 592 468 671 q 607 376 607 513 l 607 300 l 178 300 l 176 298 q 225 140 178 200 q 355 80 273 80 q 542 145 470 80 l 589 67 l 589 67 q 355 -14 506 -14 m 531 875 q 523 866 531 875 q 481 857 514 857 q 432 875 449 857 q 415 922 415 892 q 432 969 415 951 q 481 987 449 987 q 531 968 514 987 q 549 921 549 950 q 531 875 549 892 m 269 876 q 260 867 269 876 q 219 859 252 859 q 170 876 186 859 q 153 923 153 894 q 170 969 153 951 q 219 987 186 987 q 269 969 252 987 q 286 923 286 951 q 269 876 286 894 z "},"ì":{"ha":309,"x_min":-24,"x_max":225,"o":"m 212 661 l 212 0 l 99 0 l 99 661 l 212 661 m 119 983 l 225 821 l 129 821 l -24 979 l -22 983 l 119 983 z "},"í":{"ha":309,"x_min":84,"x_max":338,"o":"m 199 661 l 199 0 l 85 0 l 85 661 l 199 661 m 84 840 l 201 1020 l 338 1020 l 175 840 l 84 840 z "},"î":{"ha":309,"x_min":-40,"x_max":330,"o":"m 213 661 l 213 0 l 100 0 l 100 661 l 213 661 m 330 848 l 236 848 l 144 952 l 54 848 l -40 848 l -40 856 l 111 1022 l 178 1022 l 330 854 l 330 848 z "},"ï":{"ha":309,"x_min":-48,"x_max":348,"o":"m 213 661 l 213 0 l 100 0 l 100 661 l 213 661 m 331 874 q 322 865 331 874 q 281 857 313 857 q 231 874 248 857 q 214 921 214 892 q 231 968 214 950 q 281 986 248 986 q 331 968 313 986 q 348 921 348 949 q 331 874 348 892 m 68 876 q 60 867 68 876 q 18 858 51 858 q -31 876 -14 858 q -48 922 -48 893 q -31 969 -48 951 q 18 987 -14 987 q 68 969 51 987 q 85 922 85 951 q 68 876 85 893 z "},"ð":{"ha":732,"x_min":77,"x_max":652,"o":"m 539 328 l 539 386 l 538 420 q 475 480 517 458 q 376 502 432 502 q 239 444 288 502 q 189 283 189 386 q 240 137 189 196 q 368 78 291 78 q 492 147 446 78 q 539 328 539 216 m 652 381 l 652 325 q 616 151 652 227 q 515 30 581 74 q 367 -14 449 -14 q 217 25 284 -14 q 114 133 151 64 q 77 288 77 202 q 111 444 77 374 q 208 554 144 515 q 351 594 272 594 q 524 525 450 594 q 408 730 495 645 l 275 640 l 231 700 l 348 780 q 156 865 267 836 l 191 962 q 443 845 337 930 l 559 924 l 603 863 l 500 792 q 652 381 652 631 z "},"ñ":{"ha":690,"x_min":77,"x_max":613,"o":"m 77 661 l 184 661 l 193 562 q 389 673 262 673 q 555 609 498 673 q 613 417 613 546 l 613 0 l 493 0 l 493 414 q 459 538 493 500 q 353 575 425 575 q 262 551 302 575 q 197 481 222 526 l 197 0 l 77 0 l 77 661 m 431 854 q 388 861 406 854 q 340 885 370 867 q 298 908 311 904 q 263 913 286 913 q 224 893 241 913 q 206 844 206 873 l 131 848 q 168 957 131 914 q 261 1000 205 1000 q 300 994 283 1000 q 346 970 317 987 q 391 946 376 952 q 429 941 407 941 q 469 961 452 941 q 487 1010 487 981 l 562 1002 q 525 896 562 937 q 431 854 488 854 z "},"ò":{"ha":713,"x_min":54,"x_max":645,"o":"m 174 335 l 174 321 q 219 146 174 212 q 349 80 264 80 q 479 146 434 80 q 525 321 525 212 l 525 335 q 479 510 525 443 q 349 576 433 576 q 219 510 264 576 q 174 335 174 443 m 54 321 l 54 335 q 134 578 54 484 q 349 671 214 671 q 565 578 485 671 q 645 335 645 485 l 645 321 q 565 78 645 171 q 350 -14 486 -14 q 134 79 214 -14 q 54 321 54 172 m 328 983 l 434 821 l 338 821 l 185 980 l 187 983 l 328 983 z "},"ó":{"ha":713,"x_min":54,"x_max":645,"o":"m 174 335 l 174 321 q 219 146 174 212 q 349 80 264 80 q 479 146 434 80 q 525 321 525 212 l 525 335 q 479 510 525 443 q 349 576 433 576 q 219 510 264 576 q 174 335 174 443 m 54 321 l 54 335 q 134 578 54 484 q 349 671 214 671 q 565 578 485 671 q 645 335 645 485 l 645 321 q 565 78 645 171 q 350 -14 486 -14 q 134 79 214 -14 q 54 321 54 172 m 307 841 l 425 1021 l 562 1021 l 398 841 l 307 841 z "},"ô":{"ha":713,"x_min":53,"x_max":644,"o":"m 174 335 l 174 321 q 219 146 174 212 q 349 80 264 80 q 479 146 433 80 q 524 321 524 212 l 524 335 q 478 510 524 443 q 348 576 433 576 q 219 510 264 576 q 174 335 174 443 m 53 321 l 53 335 q 133 578 53 484 q 349 671 213 671 q 564 578 484 671 q 644 335 644 485 l 644 321 q 565 78 644 171 q 349 -14 485 -14 q 133 79 213 -14 q 53 321 53 172 m 537 849 l 444 849 l 352 953 l 261 849 l 168 849 l 168 857 l 318 1023 l 386 1023 l 537 855 l 537 849 z "},"õ":{"ha":713,"x_min":53,"x_max":644,"o":"m 174 335 l 174 321 q 219 146 174 212 q 349 80 264 80 q 479 146 433 80 q 524 321 524 212 l 524 335 q 478 510 524 443 q 348 576 433 576 q 219 510 264 576 q 174 335 174 443 m 53 321 l 53 335 q 133 578 53 484 q 349 671 213 671 q 564 578 484 671 q 644 335 644 485 l 644 321 q 565 78 644 171 q 349 -14 485 -14 q 133 79 213 -14 q 53 321 53 172 m 437 854 q 394 861 412 854 q 347 885 376 867 q 304 908 317 904 q 270 913 292 913 q 230 893 248 913 q 212 844 212 873 l 137 848 q 174 957 137 914 q 267 1000 211 1000 q 306 994 289 1000 q 352 970 323 987 q 397 946 382 952 q 435 941 413 941 q 475 961 458 941 q 493 1010 493 981 l 568 1002 q 531 896 568 937 q 437 854 494 854 z "},"ö":{"ha":713,"x_min":54,"x_max":645,"o":"m 174 335 l 174 321 q 219 146 174 212 q 349 80 264 80 q 479 146 434 80 q 525 321 525 212 l 525 335 q 479 510 525 443 q 349 576 433 576 q 219 510 264 576 q 174 335 174 443 m 54 321 l 54 335 q 134 578 54 484 q 349 671 214 671 q 565 578 485 671 q 645 335 645 485 l 645 321 q 565 78 645 171 q 350 -14 486 -14 q 134 79 214 -14 q 54 321 54 172 m 539 875 q 530 866 539 875 q 489 857 522 857 q 439 875 456 857 q 422 922 422 892 q 439 969 422 951 q 489 987 456 987 q 539 968 522 987 q 556 921 556 950 q 539 875 556 892 m 276 876 q 268 867 276 876 q 227 859 259 859 q 177 876 194 859 q 160 923 160 894 q 177 969 160 951 q 227 987 194 987 q 276 969 259 987 q 294 923 294 951 q 276 876 294 894 z "},"÷":{"ha":714,"x_min":43,"x_max":652,"o":"m 409 246 l 409 122 l 288 122 l 288 246 l 409 246 m 652 492 l 652 376 l 43 376 l 43 492 l 652 492 m 409 746 l 409 622 l 288 622 l 288 746 l 409 746 z "},"ø":{"ha":708,"x_min":55,"x_max":656,"o":"m 55 328 q 93 502 55 425 q 198 621 130 578 q 355 663 266 663 q 479 638 422 663 l 524 728 l 600 728 l 537 603 q 656 314 656 511 q 618 140 656 217 q 512 20 581 62 q 356 -21 446 -21 q 240 0 291 -21 l 195 -91 l 119 -91 l 180 33 q 55 328 55 125 m 356 71 q 492 138 441 71 q 543 317 543 205 l 543 328 q 490 506 543 437 l 282 86 q 356 71 314 71 m 355 571 q 219 504 269 571 q 168 316 168 436 q 228 127 168 195 l 437 551 q 355 571 399 571 z "},"ù":{"ha":689,"x_min":75,"x_max":613,"o":"m 304 -14 q 134 56 193 -14 q 75 270 75 126 l 75 659 l 195 659 l 195 269 q 225 124 195 165 q 323 83 256 83 q 493 183 448 83 l 493 659 l 613 659 l 613 -1 l 505 -1 l 497 96 q 304 -14 432 -14 m 318 983 l 425 821 l 328 821 l 176 980 l 178 983 l 318 983 z "},"ú":{"ha":689,"x_min":75,"x_max":613,"o":"m 304 -14 q 134 56 193 -14 q 75 270 75 126 l 75 659 l 195 659 l 195 269 q 225 124 195 165 q 323 83 256 83 q 493 183 448 83 l 493 659 l 613 659 l 613 -1 l 505 -1 l 497 96 q 304 -14 432 -14 m 298 841 l 415 1021 l 552 1021 l 389 841 l 298 841 z "},"û":{"ha":689,"x_min":75,"x_max":613,"o":"m 304 -14 q 134 56 193 -14 q 75 270 75 126 l 75 659 l 195 659 l 195 269 q 225 124 195 165 q 323 83 256 83 q 493 183 448 83 l 493 659 l 613 659 l 613 -1 l 505 -1 l 497 96 q 304 -14 432 -14 m 528 849 l 435 849 l 343 953 l 252 849 l 159 849 l 159 857 l 309 1023 l 377 1023 l 528 855 l 528 849 z "},"ü":{"ha":689,"x_min":75,"x_max":613,"o":"m 304 -14 q 134 56 193 -14 q 75 270 75 126 l 75 659 l 195 659 l 195 269 q 225 124 195 165 q 323 83 256 83 q 493 183 448 83 l 493 659 l 613 659 l 613 -1 l 505 -1 l 497 96 q 304 -14 432 -14 m 529 875 q 521 866 529 875 q 479 857 512 857 q 430 875 447 857 q 413 922 413 892 q 430 969 413 951 q 479 987 447 987 q 529 968 512 987 q 547 921 547 950 q 529 875 547 892 m 267 876 q 258 867 267 876 q 217 859 250 859 q 168 876 184 859 q 151 923 151 894 q 168 969 151 951 q 217 987 184 987 q 267 969 250 987 q 284 923 284 951 q 267 876 284 894 z "},"ý":{"ha":591,"x_min":14,"x_max":610,"o":"m 134 -296 q 62 -287 108 -296 l 75 -192 q 128 -195 119 -195 q 188 -165 163 -195 q 231 -85 212 -136 l 260 -16 l 14 631 l 149 631 l 289 215 l 310 132 l 314 132 l 476 631 l 610 631 l 332 -131 q 134 -296 269 -296 m 266 841 l 383 1021 l 520 1021 l 357 841 l 266 841 z "},"þ":{"ha":720,"x_min":91,"x_max":650,"o":"m 649 295 q 580 51 649 142 q 392 -41 511 -41 q 204 36 273 -41 l 204 -282 l 91 -282 l 91 909 l 204 909 l 204 564 q 392 644 272 644 q 581 555 511 644 q 650 305 650 465 l 649 295 m 359 52 l 359 52 q 490 117 443 52 q 536 301 536 182 q 489 484 536 420 q 358 549 441 549 q 204 458 254 549 l 204 142 q 359 52 254 52 z "},"ÿ":{"ha":591,"x_min":14,"x_max":610,"o":"m 134 -296 q 62 -287 108 -296 l 75 -192 q 128 -195 119 -195 q 188 -165 163 -195 q 231 -85 212 -136 l 260 -16 l 14 631 l 149 631 l 289 215 l 310 132 l 314 132 l 476 631 l 610 631 l 332 -131 q 134 -296 269 -296 m 497 875 q 489 866 497 875 q 448 857 480 857 q 398 875 415 857 q 381 922 381 892 q 398 969 381 951 q 448 987 415 987 q 497 968 480 987 q 515 921 515 950 q 497 875 515 892 m 235 876 q 226 867 235 876 q 185 859 218 859 q 136 876 153 859 q 119 923 119 894 q 136 969 119 951 q 185 987 153 987 q 235 969 218 987 q 252 923 252 951 q 235 876 252 894 z "},"Ā":{"ha":815,"x_min":10,"x_max":795,"o":"m 673 0 l 589 229 l 217 229 l 133 0 l 10 0 l 354 888 l 457 888 l 795 0 l 673 0 m 404 734 l 254 330 l 553 330 l 407 734 l 404 734 m 643 1194 l 643 1106 l 207 1106 l 207 1194 l 643 1194 z "},"ā":{"ha":680,"x_min":56,"x_max":609,"o":"m 268 -14 q 111 38 165 -14 q 56 184 56 90 q 132 332 56 279 q 341 386 208 386 l 471 386 l 471 451 q 436 543 471 509 q 339 576 400 576 q 242 548 279 576 q 205 476 205 519 l 91 476 l 90 479 q 159 613 86 554 q 345 671 232 671 q 525 613 458 671 q 592 450 592 555 l 592 132 q 609 -1 592 55 l 485 -1 q 471 98 472 62 q 382 17 436 47 q 268 -14 328 -14 m 178 182 l 177 182 q 205 112 177 137 q 291 87 233 87 q 402 120 349 87 q 472 197 456 153 l 472 304 l 338 304 q 222 269 266 304 q 178 182 178 233 m 575 983 l 575 896 l 139 896 l 139 983 l 575 983 z "},"Ă":{"ha":815,"x_min":10,"x_max":795,"o":"m 673 0 l 589 229 l 217 229 l 133 0 l 10 0 l 354 888 l 457 888 l 795 0 l 673 0 m 404 734 l 254 330 l 553 330 l 407 734 l 404 734 m 516 1206 l 608 1206 q 558 1088 608 1133 q 426 1043 508 1043 q 293 1088 343 1043 q 242 1206 242 1133 l 334 1206 q 358 1139 334 1163 q 425 1116 381 1116 q 492 1139 468 1116 q 516 1206 516 1163 z "},"ă":{"ha":680,"x_min":57,"x_max":610,"o":"m 269 -14 q 111 38 165 -14 q 57 184 57 90 q 133 332 57 279 q 342 386 209 386 l 472 386 l 472 451 q 436 543 472 509 q 340 576 401 576 q 243 548 279 576 q 206 476 206 519 l 92 476 l 90 479 q 160 613 87 554 q 346 671 233 671 q 526 613 458 671 q 593 450 593 555 l 593 132 q 610 -1 593 55 l 486 -1 q 472 98 473 62 q 383 17 437 47 q 269 -14 329 -14 m 178 182 l 178 182 q 205 112 178 137 q 292 87 233 87 q 403 120 350 87 q 473 197 456 153 l 473 304 l 338 304 q 222 269 267 304 q 178 182 178 233 m 450 996 l 541 996 q 491 878 541 922 q 359 833 441 833 q 226 878 277 833 q 176 996 176 922 l 268 996 q 291 929 268 953 q 358 905 315 905 q 426 929 401 905 q 450 996 450 953 z "},"Ą":{"ha":815,"x_min":17,"x_max":800,"o":"m 408 715 l 258 299 l 559 299 l 408 715 m 672 -165 q 720 -209 672 -209 q 781 -193 748 -209 l 789 -267 q 691 -294 745 -294 q 605 -262 636 -294 q 573 -178 573 -231 q 676 -24 573 -90 l 594 203 l 222 203 l 138 -29 l 17 -29 l 357 859 l 460 859 l 800 -29 l 777 -29 l 741 -57 q 672 -165 672 -113 z "},"ą":{"ha":680,"x_min":67,"x_max":612,"o":"m 180 169 l 180 169 q 214 86 180 116 q 304 56 249 56 q 407 84 359 56 q 476 155 455 111 l 476 290 l 388 290 q 180 169 180 290 m 478 40 q 296 -41 399 -41 q 130 14 193 -41 q 67 155 67 69 q 145 315 67 258 q 366 372 223 372 l 476 372 l 476 424 q 440 519 476 485 q 340 553 405 553 q 235 522 276 553 q 194 449 194 492 l 81 449 q 116 544 81 498 q 211 617 151 590 q 343 644 270 644 q 522 587 457 644 q 589 430 587 530 l 589 125 q 612 -20 589 35 l 612 -29 l 592 -29 l 557 -57 q 488 -165 488 -113 q 535 -209 488 -209 q 596 -193 564 -209 l 604 -267 q 507 -294 562 -294 q 420 -262 452 -294 q 389 -178 389 -231 l 389 -178 q 492 -26 389 -90 q 478 40 482 -1 z "},"Ć":{"ha":814,"x_min":63,"x_max":734,"o":"m 614 283 l 729 283 l 730 279 q 642 69 733 152 q 402 -14 551 -14 q 158 92 253 -14 q 63 363 63 198 l 63 522 q 158 793 63 687 q 404 900 253 900 q 645 820 555 900 q 731 607 734 741 l 730 604 l 614 604 q 559 752 614 699 q 405 806 504 806 q 245 726 305 806 q 184 523 184 646 l 184 363 q 245 160 184 239 q 405 80 305 80 q 559 133 505 80 q 614 283 614 186 m 375 1074 l 492 1253 l 629 1253 l 466 1074 l 375 1074 z "},"ć":{"ha":654,"x_min":53,"x_max":613,"o":"m 174 316 q 214 148 174 210 q 350 80 256 80 q 456 117 411 80 q 500 208 500 155 l 608 208 l 610 203 q 534 52 613 117 q 350 -14 456 -14 q 131 77 209 -14 q 53 316 53 169 l 53 342 q 131 580 53 488 q 350 671 210 671 q 539 604 465 671 q 610 435 613 536 l 609 431 l 500 431 q 458 534 500 492 q 352 576 415 576 q 248 545 288 576 q 191 462 208 513 q 174 342 174 411 l 174 316 m 277 841 l 395 1021 l 532 1021 l 368 841 l 277 841 z "},"Č":{"ha":814,"x_min":63,"x_max":734,"o":"m 614 283 l 729 283 l 730 279 q 642 69 733 152 q 402 -14 551 -14 q 158 92 253 -14 q 63 363 63 198 l 63 522 q 158 793 63 687 q 404 900 253 900 q 645 820 555 900 q 731 607 734 741 l 730 604 l 614 604 q 559 752 614 699 q 405 806 504 806 q 245 726 305 806 q 184 523 184 646 l 184 363 q 245 160 184 239 q 405 80 305 80 q 559 133 505 80 q 614 283 614 186 m 610 1255 l 610 1249 l 456 1082 l 387 1082 l 233 1249 l 233 1255 l 329 1255 l 421 1152 l 513 1255 l 610 1255 z "},"č":{"ha":654,"x_min":53,"x_max":613,"o":"m 174 316 q 214 148 174 210 q 350 80 256 80 q 456 117 411 80 q 500 208 500 155 l 608 208 l 610 203 q 534 52 613 117 q 350 -14 456 -14 q 131 77 209 -14 q 53 316 53 169 l 53 342 q 131 580 53 488 q 350 671 210 671 q 539 604 465 671 q 610 435 613 536 l 609 431 l 500 431 q 458 534 500 492 q 352 576 415 576 q 248 545 288 576 q 191 462 208 513 q 174 342 174 411 l 174 316 m 513 1023 l 513 1017 l 358 849 l 289 849 l 136 1017 l 136 1023 l 231 1023 l 323 919 l 415 1023 l 513 1023 z "},"Ď":{"ha":820,"x_min":98,"x_max":757,"o":"m 371 794 l 218 794 l 218 94 l 371 94 q 565 174 494 94 q 637 383 637 254 l 637 506 q 565 714 637 635 q 371 794 493 794 m 371 0 l 98 0 l 98 888 l 371 888 q 651 782 546 888 q 757 505 757 676 l 757 383 q 651 106 757 212 q 371 0 546 0 m 559 1241 l 559 1235 l 404 1067 l 335 1067 l 182 1235 l 182 1241 l 277 1241 l 370 1137 l 461 1241 l 559 1241 z "},"ď":{"ha":797,"x_min":52,"x_max":611,"o":"m 52 317 q 121 575 52 479 q 308 671 189 671 q 490 587 427 671 l 490 951 l 611 951 l 611 -1 l 513 -1 l 498 80 q 311 -14 433 -14 q 121 72 190 -14 q 53 304 53 159 l 52 317 m 174 317 l 174 304 q 215 142 174 200 q 341 83 257 83 q 492 176 443 83 l 492 484 q 342 574 441 574 q 216 505 258 574 q 174 317 174 436 z "},"Đ":{"ha":838,"x_min":23,"x_max":764,"o":"m 412 498 l 412 406 l 239 406 l 239 95 l 362 95 q 573 178 498 95 q 649 414 648 262 l 649 471 q 578 707 649 623 q 376 792 507 791 l 239 792 l 239 498 l 412 498 m 122 0 l 122 406 l 23 406 l 23 498 l 122 498 l 122 888 l 373 888 q 578 838 490 888 q 715 692 667 787 q 764 474 764 598 l 764 418 q 716 197 764 291 q 577 52 668 102 q 368 0 489 1 l 122 0 z "},"đ":{"ha":724,"x_min":59,"x_max":730,"o":"m 730 844 l 730 752 l 616 752 l 616 -1 l 512 -1 l 507 69 q 321 -14 439 -14 q 131 80 203 -14 q 59 326 59 174 l 59 334 q 131 579 59 487 q 319 671 202 671 q 503 592 435 671 l 503 752 l 342 752 l 342 844 l 503 844 l 503 936 l 616 936 l 616 844 l 730 844 m 346 82 q 503 179 453 82 l 503 482 q 347 576 452 576 q 217 511 263 576 q 172 328 172 446 q 218 145 172 209 q 346 82 264 82 z "},"Ē":{"ha":711,"x_min":100,"x_max":689,"o":"m 627 507 l 627 412 l 220 412 l 220 94 l 689 94 l 689 0 l 100 0 l 100 888 l 683 888 l 683 794 l 220 794 l 220 507 l 627 507 m 598 1202 l 598 1114 l 162 1114 l 162 1202 l 598 1202 z "},"ē":{"ha":663,"x_min":54,"x_max":607,"o":"m 486 410 q 448 531 486 485 q 336 576 409 576 q 234 526 277 576 q 180 398 191 476 l 182 395 l 486 395 l 486 410 m 355 -14 q 135 77 217 -14 q 54 316 54 168 l 54 343 q 137 577 54 482 q 336 671 220 671 q 537 592 468 671 q 607 376 607 513 l 607 300 l 178 300 l 176 298 q 225 140 178 200 q 355 80 273 80 q 542 145 470 80 l 589 67 l 589 67 q 355 -14 506 -14 m 566 983 l 566 896 l 130 896 l 130 983 l 566 983 z "},"Ė":{"ha":711,"x_min":98,"x_max":688,"o":"m 626 507 l 626 412 l 218 412 l 218 94 l 688 94 l 688 0 l 98 0 l 98 888 l 682 888 l 682 794 l 218 794 l 218 507 l 626 507 m 442 1092 q 433 1083 442 1092 q 392 1074 425 1074 q 342 1092 359 1074 q 326 1139 326 1109 q 342 1186 326 1168 q 392 1204 359 1204 q 442 1185 425 1204 q 459 1138 459 1167 q 442 1092 459 1109 z "},"ė":{"ha":663,"x_min":54,"x_max":607,"o":"m 486 410 q 448 531 486 485 q 336 576 409 576 q 234 526 277 576 q 180 398 191 476 l 182 395 l 486 395 l 486 410 m 355 -14 q 135 77 217 -14 q 54 316 54 168 l 54 343 q 137 577 54 482 q 336 671 220 671 q 537 592 468 671 q 607 376 607 513 l 607 300 l 178 300 l 176 298 q 225 140 178 200 q 355 80 273 80 q 542 145 470 80 l 589 67 l 589 67 q 355 -14 506 -14 m 411 873 q 402 865 411 873 q 361 856 393 856 q 311 873 328 856 q 294 920 294 891 q 311 967 294 949 q 361 985 328 985 q 411 967 393 985 q 428 920 428 949 q 411 873 428 891 z "},"Ę":{"ha":711,"x_min":103,"x_max":669,"o":"m 221 381 l 221 66 l 669 66 l 669 -29 l 624 -29 l 589 -57 q 519 -165 519 -113 q 567 -209 519 -209 q 628 -193 595 -209 l 636 -267 q 538 -294 593 -294 q 452 -262 484 -294 q 420 -178 420 -231 q 515 -29 420 -94 l 103 -29 l 103 859 l 662 859 l 662 763 l 220 763 l 220 477 l 606 477 l 606 381 l 221 381 z "},"ę":{"ha":663,"x_min":58,"x_max":618,"o":"m 505 371 q 459 505 500 458 q 348 551 418 551 q 232 502 277 551 q 175 362 186 452 l 505 362 l 505 371 m 393 -149 q 440 -193 393 -193 q 501 -177 469 -193 l 509 -250 q 411 -277 466 -277 q 325 -246 357 -277 q 294 -161 294 -214 q 353 -40 294 -95 q 138 51 219 -37 q 58 285 58 139 l 58 305 q 95 480 58 404 q 200 601 132 557 q 346 645 268 645 q 547 560 476 645 q 618 317 618 475 l 618 270 l 170 270 q 227 112 173 172 q 366 52 281 52 q 540 142 471 52 l 610 87 q 497 -13 565 18 l 462 -41 q 393 -149 393 -97 z "},"Ě":{"ha":711,"x_min":100,"x_max":689,"o":"m 627 507 l 627 412 l 220 412 l 220 94 l 689 94 l 689 0 l 100 0 l 100 888 l 683 888 l 683 794 l 220 794 l 220 507 l 627 507 m 568 1241 l 568 1235 l 413 1067 l 344 1067 l 191 1235 l 191 1241 l 286 1241 l 378 1137 l 470 1241 l 568 1241 z "},"ě":{"ha":663,"x_min":54,"x_max":607,"o":"m 486 410 q 448 531 486 485 q 336 576 409 576 q 234 526 277 576 q 180 398 191 476 l 182 395 l 486 395 l 486 410 m 355 -14 q 135 77 217 -14 q 54 316 54 168 l 54 343 q 137 577 54 482 q 336 671 220 671 q 537 592 468 671 q 607 376 607 513 l 607 300 l 178 300 l 176 298 q 225 140 178 200 q 355 80 273 80 q 542 145 470 80 l 589 67 l 589 67 q 355 -14 506 -14 m 535 1023 l 535 1017 l 380 849 l 311 849 l 158 1017 l 158 1023 l 254 1023 l 346 919 l 437 1023 l 535 1023 z "},"Ğ":{"ha":852,"x_min":65,"x_max":746,"o":"m 746 442 l 746 117 q 629 24 710 62 q 433 -14 549 -14 q 169 89 272 -14 q 65 352 65 191 l 65 535 q 162 799 65 698 q 411 901 258 901 q 652 827 564 901 q 742 631 741 753 l 741 628 l 626 628 q 565 757 620 709 q 411 806 511 806 q 248 730 311 806 q 186 536 186 654 l 186 351 q 255 156 186 233 q 433 80 324 80 q 553 99 504 80 q 625 146 603 117 l 625 348 l 431 348 l 431 442 l 746 442 m 509 1229 l 601 1229 q 551 1110 601 1155 q 419 1065 501 1065 q 286 1110 336 1065 q 235 1229 235 1155 l 328 1229 q 351 1162 328 1185 q 418 1138 374 1138 q 485 1162 461 1138 q 509 1229 509 1185 z "},"ğ":{"ha":701,"x_min":55,"x_max":617,"o":"m 55 275 l 55 288 q 125 547 55 450 q 318 643 195 643 q 507 545 441 643 l 522 631 l 617 631 l 617 -33 q 544 -229 617 -161 q 330 -296 470 -296 q 227 -283 282 -296 q 130 -248 172 -270 l 161 -154 q 239 -184 193 -172 q 329 -195 285 -195 q 457 -156 416 -195 q 497 -33 497 -117 l 497 41 q 313 -43 431 -43 q 125 44 195 -43 q 55 275 55 132 m 175 288 l 175 275 q 218 114 175 173 q 345 55 261 55 q 498 150 448 55 l 498 454 q 347 545 446 545 q 219 476 262 545 q 175 288 175 406 m 433 996 l 525 996 q 475 878 525 922 q 343 833 425 833 q 210 878 260 833 q 159 996 159 922 l 252 996 q 275 929 252 953 q 342 905 298 905 q 409 929 385 905 q 433 996 433 953 z "},"Ģ":{"ha":852,"x_min":66,"x_max":747,"o":"m 747 442 l 747 117 q 630 24 711 62 q 433 -14 549 -14 q 169 89 273 -14 q 66 352 66 191 l 66 535 q 162 799 66 698 q 412 901 259 901 q 653 827 564 901 q 743 631 741 753 l 741 628 l 627 628 q 566 757 621 709 q 411 806 511 806 q 249 730 311 806 q 186 536 186 654 l 186 351 q 256 156 186 233 q 433 80 325 80 q 554 99 505 80 q 626 146 604 117 l 626 348 l 431 348 l 431 442 l 747 442 z "},"ģ":{"ha":701,"x_min":55,"x_max":617,"o":"m 55 275 l 55 288 q 125 547 55 450 q 318 643 195 643 q 507 545 441 643 l 522 631 l 617 631 l 617 -33 q 544 -229 617 -161 q 330 -296 470 -296 q 227 -283 282 -296 q 130 -248 172 -270 l 161 -154 q 239 -184 193 -172 q 329 -195 285 -195 q 457 -156 416 -195 q 497 -33 497 -117 l 497 41 q 313 -43 431 -43 q 125 44 195 -43 q 55 275 55 132 m 175 288 l 175 275 q 218 114 175 173 q 345 55 261 55 q 498 150 448 55 l 498 454 q 347 545 446 545 q 219 476 262 545 q 175 288 175 406 z "},"Ī":{"ha":340,"x_min":-52,"x_max":384,"o":"m 243 888 l 243 0 l 122 0 l 122 888 l 243 888 m 384 1202 l 384 1114 l -52 1114 l -52 1202 l 384 1202 z "},"ī":{"ha":309,"x_min":-69,"x_max":367,"o":"m 215 661 l 215 0 l 102 0 l 102 661 l 215 661 m 367 982 l 367 895 l -69 895 l -69 982 l 367 982 z "},"Į":{"ha":340,"x_min":12,"x_max":236,"o":"m 115 0 l 115 888 l 236 888 l 236 0 l 184 0 l 215 -23 l 180 -51 q 111 -159 111 -107 q 158 -203 111 -203 q 219 -187 186 -203 l 227 -260 q 130 -288 184 -288 l 130 -288 q 44 -256 75 -288 q 12 -172 12 -224 q 146 0 12 -70 l 115 0 z "},"į":{"ha":303,"x_min":-6,"x_max":218,"o":"m 98 0 l 98 661 l 218 661 l 218 0 l 157 0 l 197 -29 l 161 -57 q 92 -165 92 -113 q 140 -209 92 -209 q 201 -193 168 -209 l 209 -267 q 111 -294 166 -294 l 111 -294 q 25 -262 57 -294 q -6 -178 -6 -231 q 32 -80 -6 -125 q 140 0 70 -35 l 98 0 m 218 952 l 218 829 l 98 829 l 98 952 l 218 952 z "},"İ":{"ha":340,"x_min":95,"x_max":229,"o":"m 226 888 l 226 0 l 105 0 l 105 888 l 226 888 m 211 1092 q 203 1083 211 1092 q 161 1074 194 1074 q 112 1092 129 1074 q 95 1139 95 1109 q 112 1186 95 1168 q 161 1204 129 1204 q 211 1185 194 1204 q 229 1138 229 1167 q 211 1092 229 1109 z "},"ı":{"ha":309,"x_min":95,"x_max":208,"o":"m 208 661 l 208 0 l 95 0 l 95 661 l 208 661 z "},"Ķ":{"ha":784,"x_min":98,"x_max":789,"o":"m 218 401 l 218 0 l 98 0 l 98 888 l 218 888 l 218 496 l 311 496 l 629 888 l 762 888 l 764 886 l 419 459 l 789 3 l 787 0 l 644 0 l 322 401 l 218 401 z "},"ķ":{"ha":633,"x_min":79,"x_max":633,"o":"m 199 304 l 199 0 l 79 0 l 79 952 l 199 952 l 199 400 l 275 400 l 456 661 l 600 661 l 374 360 l 633 0 l 491 0 l 277 304 l 199 304 z "},"Ĺ":{"ha":673,"x_min":90,"x_max":640,"o":"m 219 888 l 219 94 l 640 94 l 640 0 l 99 0 l 99 888 l 219 888 m 90 1048 l 208 1227 l 345 1227 l 181 1048 l 90 1048 z "},"ĺ":{"ha":303,"x_min":83,"x_max":337,"o":"m 208 952 l 208 0 l 87 0 l 87 952 l 208 952 m 83 1116 l 200 1296 l 337 1296 l 174 1116 l 83 1116 z "},"Ļ":{"ha":673,"x_min":98,"x_max":639,"o":"m 218 888 l 218 94 l 639 94 l 639 0 l 98 0 l 98 888 l 218 888 z "},"ļ":{"ha":303,"x_min":87,"x_max":208,"o":"m 208 952 l 208 0 l 87 0 l 87 952 l 208 952 z "},"Ľ":{"ha":673,"x_min":98,"x_max":639,"o":"m 218 888 l 218 94 l 639 94 l 639 0 l 98 0 l 98 888 l 218 888 z "},"ľ":{"ha":395,"x_min":86,"x_max":206,"o":"m 206 952 l 206 0 l 86 0 l 86 952 l 206 952 z "},"Ł":{"ha":673,"x_min":21,"x_max":642,"o":"m 220 888 l 220 515 l 381 566 l 381 490 l 220 438 l 220 96 l 642 96 l 642 0 l 102 0 l 102 401 l 21 376 l 21 452 l 102 477 l 102 888 l 220 888 z "},"ł":{"ha":338,"x_min":21,"x_max":319,"o":"m 222 937 l 222 530 l 319 568 l 319 492 l 222 455 l 222 0 l 109 0 l 109 412 l 21 378 l 21 454 l 109 487 l 109 937 l 222 937 z "},"Ń":{"ha":891,"x_min":100,"x_max":772,"o":"m 772 888 l 772 0 l 652 0 l 224 687 l 220 686 l 220 0 l 100 0 l 100 888 l 220 888 l 648 203 l 652 204 l 652 888 l 772 888 m 405 1051 l 522 1231 l 659 1231 l 496 1051 l 405 1051 z "},"ń":{"ha":690,"x_min":78,"x_max":614,"o":"m 78 661 l 185 661 l 194 562 q 390 673 262 673 q 556 609 498 673 q 614 417 614 546 l 614 0 l 494 0 l 494 414 q 460 538 494 500 q 354 575 426 575 q 262 551 302 575 q 198 481 222 526 l 198 0 l 78 0 l 78 661 m 301 841 l 418 1021 l 555 1021 l 392 841 l 301 841 z "},"Ņ":{"ha":891,"x_min":98,"x_max":770,"o":"m 770 888 l 770 0 l 650 0 l 222 687 l 218 686 l 218 0 l 98 0 l 98 888 l 218 888 l 646 203 l 650 204 l 650 888 l 770 888 z "},"ņ":{"ha":690,"x_min":78,"x_max":614,"o":"m 78 661 l 185 661 l 194 562 q 390 673 262 673 q 556 609 498 673 q 614 417 614 546 l 614 0 l 494 0 l 494 414 q 460 538 494 500 q 354 575 426 575 q 262 551 302 575 q 198 481 222 526 l 198 0 l 78 0 l 78 661 z "},"Ň":{"ha":891,"x_min":98,"x_max":770,"o":"m 770 888 l 770 0 l 650 0 l 222 687 l 218 686 l 218 0 l 98 0 l 98 888 l 218 888 l 646 203 l 650 204 l 650 888 l 770 888 m 639 1233 l 639 1227 l 484 1059 l 415 1059 l 262 1227 l 262 1233 l 357 1233 l 450 1129 l 541 1233 l 639 1233 z "},"ň":{"ha":690,"x_min":78,"x_max":614,"o":"m 78 661 l 185 661 l 194 562 q 390 673 262 673 q 556 609 498 673 q 614 417 614 546 l 614 0 l 494 0 l 494 414 q 460 538 494 500 q 354 575 426 575 q 262 551 302 575 q 198 481 222 526 l 198 0 l 78 0 l 78 661 m 536 1023 l 536 1017 l 382 849 l 313 849 l 159 1017 l 159 1023 l 255 1023 l 347 919 l 439 1023 l 536 1023 z "},"Ō":{"ha":859,"x_min":62,"x_max":775,"o":"m 655 363 l 655 523 q 589 724 655 647 q 415 801 522 801 q 245 724 308 801 q 182 523 182 646 l 182 363 q 244 161 182 239 q 415 84 307 84 q 589 161 523 84 q 655 363 655 238 m 775 522 l 775 363 q 674 92 775 199 q 415 -14 573 -14 q 159 92 256 -14 q 62 363 62 199 l 62 522 q 159 793 62 686 q 415 900 256 900 q 674 793 573 900 q 775 522 775 687 m 660 1195 l 660 1107 l 224 1107 l 224 1195 l 660 1195 z "},"ō":{"ha":713,"x_min":54,"x_max":645,"o":"m 174 335 l 174 321 q 219 146 174 212 q 349 80 264 80 q 479 146 434 80 q 525 321 525 212 l 525 335 q 479 510 525 443 q 349 576 433 576 q 219 510 264 576 q 174 335 174 443 m 54 321 l 54 335 q 134 578 54 484 q 349 671 214 671 q 565 578 485 671 q 645 335 645 485 l 645 321 q 565 78 645 171 q 350 -14 486 -14 q 134 79 214 -14 q 54 321 54 172 m 573 983 l 573 896 l 137 896 l 137 983 l 573 983 z "},"Ő":{"ha":859,"x_min":62,"x_max":775,"o":"m 655 363 l 655 523 q 589 724 655 647 q 415 801 522 801 q 245 724 308 801 q 182 523 182 646 l 182 363 q 244 161 182 239 q 415 84 307 84 q 589 161 523 84 q 655 363 655 238 m 775 522 l 775 363 q 674 92 775 199 q 415 -14 573 -14 q 159 92 256 -14 q 62 363 62 199 l 62 522 q 159 793 62 686 q 415 900 256 900 q 674 793 573 900 q 775 522 775 687 m 467 1047 l 608 1232 l 734 1232 l 570 1047 l 467 1047 m 296 1047 l 401 1232 l 521 1232 l 388 1047 l 296 1047 z "},"ő":{"ha":713,"x_min":54,"x_max":648,"o":"m 174 335 l 174 321 q 219 146 174 212 q 349 80 264 80 q 479 146 434 80 q 525 321 525 212 l 525 335 q 479 510 525 443 q 349 576 433 576 q 219 510 264 576 q 174 335 174 443 m 54 321 l 54 335 q 134 578 54 484 q 349 671 214 671 q 565 578 485 671 q 645 335 645 485 l 645 321 q 565 78 645 171 q 350 -14 486 -14 q 134 79 214 -14 q 54 321 54 172 m 380 836 l 522 1021 l 648 1021 l 484 836 l 380 836 m 210 836 l 314 1021 l 434 1021 l 301 836 l 210 836 z "},"Œ":{"ha":1192,"x_min":64,"x_max":1099,"o":"m 176 350 l 178 350 q 237 149 178 220 q 404 78 296 78 q 534 87 475 78 l 534 798 q 401 807 470 807 q 236 738 295 807 q 176 541 178 668 l 176 350 m 404 -14 q 227 31 304 -14 q 107 160 150 77 q 64 347 64 243 l 64 536 q 106 724 64 642 q 226 853 148 807 q 402 899 302 899 q 582 887 477 899 l 1093 887 l 1093 791 l 652 791 l 652 505 l 1037 505 l 1037 410 l 652 410 l 652 94 l 1099 94 l 1099 -1 l 581 -1 q 404 -14 475 -14 z "},"œ":{"ha":1135,"x_min":58,"x_max":1093,"o":"m 352 578 l 351 578 q 219 512 267 578 q 170 327 170 446 q 219 143 170 209 q 353 78 268 78 q 487 144 439 78 q 534 329 534 210 q 485 513 534 447 q 352 578 436 578 m 979 411 q 937 533 979 488 q 823 578 895 578 q 717 529 762 578 q 658 395 671 479 l 979 395 l 979 411 m 353 671 q 596 539 515 671 q 696 636 637 602 q 824 671 755 671 q 1022 594 951 671 q 1093 373 1093 516 l 1093 302 l 655 302 q 709 138 659 198 q 841 78 759 78 q 1029 144 955 78 l 1074 67 q 841 -14 991 -14 q 595 116 677 -14 q 355 -14 515 -14 q 139 79 220 -14 q 59 327 59 172 l 58 335 q 95 511 58 433 q 199 629 132 588 q 353 671 264 671 z "},"Ŕ":{"ha":770,"x_min":100,"x_max":760,"o":"m 444 385 l 220 385 l 220 0 l 100 0 l 100 888 l 421 888 q 644 824 568 888 q 721 635 721 760 q 581 436 721 497 q 719 227 719 391 l 719 143 q 760 15 719 52 l 760 0 l 635 0 q 598 144 598 33 l 598 225 q 556 341 598 298 q 444 385 514 385 m 220 794 l 220 479 l 409 479 q 556 518 511 479 q 601 637 601 556 q 421 794 601 794 l 220 794 m 326 1051 l 443 1231 l 580 1231 l 416 1051 l 326 1051 z "},"ŕ":{"ha":423,"x_min":79,"x_max":444,"o":"m 199 -1 l 79 -1 l 79 660 l 186 660 l 197 564 q 361 673 258 673 q 408 666 386 673 l 391 553 l 330 557 q 199 471 237 557 l 199 -1 m 190 841 l 307 1021 l 444 1021 l 281 841 l 190 841 z "},"Ŗ":{"ha":770,"x_min":98,"x_max":758,"o":"m 442 385 l 218 385 l 218 0 l 98 0 l 98 888 l 420 888 q 643 824 566 888 q 720 635 720 760 q 580 436 720 497 q 718 227 718 391 l 718 143 q 758 15 718 52 l 758 0 l 634 0 q 597 144 597 33 l 597 225 q 555 341 597 298 q 442 385 513 385 m 218 794 l 218 479 l 408 479 q 554 518 509 479 q 600 637 600 556 q 420 794 600 794 l 218 794 z "},"ŗ":{"ha":423,"x_min":78,"x_max":407,"o":"m 198 -1 l 78 -1 l 78 660 l 185 660 l 197 564 q 361 673 257 673 q 407 666 385 673 l 391 553 l 329 557 q 198 471 236 557 l 198 -1 z "},"Ř":{"ha":770,"x_min":98,"x_max":758,"o":"m 442 385 l 218 385 l 218 0 l 98 0 l 98 888 l 420 888 q 643 824 566 888 q 720 635 720 760 q 580 436 720 497 q 718 227 718 391 l 718 143 q 758 15 718 52 l 758 0 l 634 0 q 597 144 597 33 l 597 225 q 555 341 597 298 q 442 385 513 385 m 218 794 l 218 479 l 408 479 q 554 518 509 479 q 600 637 600 556 q 420 794 600 794 l 218 794 m 559 1233 l 559 1227 l 405 1059 l 336 1059 l 182 1227 l 182 1233 l 278 1233 l 370 1129 l 462 1233 l 559 1233 z "},"ř":{"ha":423,"x_min":51,"x_max":428,"o":"m 201 -1 l 81 -1 l 81 660 l 188 660 l 199 564 q 363 673 260 673 q 410 666 388 673 l 393 553 l 332 557 q 201 471 239 557 l 201 -1 m 428 1023 l 428 1017 l 273 849 l 204 849 l 51 1017 l 51 1023 l 146 1023 l 239 919 l 330 1023 l 428 1023 z "},"Ś":{"ha":742,"x_min":55,"x_max":709,"o":"m 173 254 q 234 125 173 171 q 389 80 294 80 q 536 118 483 80 q 589 221 589 157 q 542 326 589 286 q 380 394 494 367 q 81 657 81 466 q 167 831 81 762 q 391 900 252 900 q 618 822 530 900 q 703 635 706 744 l 701 631 l 587 631 q 534 758 587 711 q 390 806 482 806 q 250 766 298 806 q 201 664 201 726 q 253 563 201 601 q 422 494 304 524 q 709 224 709 422 q 621 51 709 116 q 391 -14 534 -14 q 225 17 301 -14 q 102 111 149 49 q 57 251 55 172 l 58 254 l 173 254 m 339 1053 l 456 1232 l 593 1232 l 430 1053 l 339 1053 z "},"ś":{"ha":644,"x_min":56,"x_max":584,"o":"m 326 81 q 427 107 390 81 q 463 174 463 132 q 432 241 463 216 q 319 285 401 266 q 135 357 194 312 q 77 481 77 402 q 146 617 77 561 q 326 673 215 673 q 506 614 437 673 q 572 469 575 555 l 570 465 l 456 465 q 419 544 456 511 q 322 577 382 577 q 229 550 262 577 q 197 482 197 524 q 225 419 197 441 q 337 380 254 397 q 524 306 465 352 q 584 182 584 259 q 513 40 584 94 q 323 -14 442 -14 q 130 48 203 -14 q 60 199 56 111 l 61 203 l 176 203 q 221 111 179 142 q 328 80 264 80 l 326 81 m 298 841 l 415 1021 l 552 1021 l 389 841 l 298 841 z "},"Š":{"ha":742,"x_min":55,"x_max":709,"o":"m 173 254 q 234 125 173 171 q 389 80 294 80 q 536 118 483 80 q 589 221 589 157 q 542 326 589 286 q 380 394 494 367 q 81 657 81 466 q 167 831 81 762 q 391 900 252 900 q 618 822 530 900 q 703 635 706 744 l 701 631 l 587 631 q 534 758 587 711 q 390 806 482 806 q 250 766 298 806 q 201 664 201 726 q 253 563 201 601 q 422 494 304 524 q 709 224 709 422 q 621 51 709 116 q 391 -14 534 -14 q 225 17 301 -14 q 102 111 149 49 q 57 251 55 172 l 58 254 l 173 254 m 574 1234 l 574 1228 l 420 1061 l 351 1061 l 197 1228 l 197 1234 l 293 1234 l 385 1131 l 477 1234 l 574 1234 z "},"š":{"ha":644,"x_min":56,"x_max":584,"o":"m 326 81 q 427 107 390 81 q 463 174 463 132 q 432 241 463 216 q 319 285 401 266 q 135 357 194 312 q 77 481 77 402 q 146 617 77 561 q 326 673 215 673 q 506 614 437 673 q 572 469 575 555 l 570 465 l 456 465 q 419 544 456 511 q 322 577 382 577 q 229 550 262 577 q 197 482 197 524 q 225 419 197 441 q 337 380 254 397 q 524 306 465 352 q 584 182 584 259 q 513 40 584 94 q 323 -14 442 -14 q 130 48 203 -14 q 60 199 56 111 l 61 203 l 176 203 q 221 111 179 142 q 328 80 264 80 l 326 81 m 533 1023 l 533 1017 l 378 849 l 309 849 l 156 1017 l 156 1023 l 252 1023 l 344 919 l 435 1023 l 533 1023 z "},"Ť":{"ha":746,"x_min":18,"x_max":708,"o":"m 708 888 l 708 794 l 422 794 l 422 0 l 302 0 l 302 794 l 18 794 l 18 888 l 708 888 m 569 1233 l 569 1227 l 414 1059 l 345 1059 l 192 1227 l 192 1233 l 288 1233 l 380 1129 l 471 1233 l 569 1233 z "},"ť":{"ha":433,"x_min":20,"x_max":376,"o":"m 125 819 l 246 819 l 246 659 l 371 659 l 371 570 l 246 570 l 246 169 q 316 85 246 85 q 361 93 338 85 l 376 11 q 285 -14 344 -14 q 167 31 209 -14 q 125 169 125 77 l 125 570 l 20 570 l 20 659 l 125 659 l 125 819 z "},"Ū":{"ha":810,"x_min":80,"x_max":751,"o":"m 629 887 l 751 887 l 751 285 q 658 64 751 142 q 412 -14 566 -14 q 170 64 259 -14 q 80 285 80 142 l 80 887 l 201 887 l 201 285 q 257 133 201 186 q 412 80 313 80 q 570 133 511 80 q 629 285 629 186 l 629 887 m 631 1194 l 631 1106 l 195 1106 l 195 1194 l 631 1194 z "},"ū":{"ha":689,"x_min":75,"x_max":613,"o":"m 304 -14 q 134 56 193 -14 q 75 270 75 126 l 75 659 l 195 659 l 195 269 q 225 124 195 165 q 323 83 256 83 q 493 183 448 83 l 493 659 l 613 659 l 613 -1 l 505 -1 l 497 96 q 304 -14 432 -14 m 564 983 l 564 896 l 127 896 l 127 983 l 564 983 z "},"Ů":{"ha":810,"x_min":80,"x_max":751,"o":"m 629 887 l 751 887 l 751 285 q 658 64 751 142 q 412 -14 566 -14 q 170 64 259 -14 q 80 285 80 142 l 80 887 l 201 887 l 201 285 q 257 133 201 186 q 412 80 313 80 q 570 133 511 80 q 629 285 629 186 l 629 887 m 491 1159 q 491 1174 491 1159 q 471 1210 491 1190 q 420 1231 450 1231 q 370 1210 390 1231 q 349 1159 349 1189 q 370 1109 349 1129 q 420 1088 390 1088 q 470 1109 450 1088 q 491 1159 491 1129 m 289 1159 q 289 1185 289 1159 q 327 1249 289 1212 q 420 1286 364 1286 q 514 1249 476 1286 q 551 1159 551 1212 q 514 1070 551 1105 q 420 1034 476 1034 q 326 1070 363 1034 q 289 1159 289 1105 z "},"ů":{"ha":689,"x_min":75,"x_max":613,"o":"m 304 -14 q 134 56 193 -14 q 75 270 75 126 l 75 659 l 195 659 l 195 269 q 225 124 195 165 q 323 83 256 83 q 493 183 448 83 l 493 659 l 613 659 l 613 -1 l 505 -1 l 497 96 q 304 -14 432 -14 m 423 949 q 423 964 423 949 q 403 1000 423 979 q 352 1021 382 1021 q 302 1000 322 1021 q 281 949 281 979 q 302 899 281 919 q 352 878 322 878 q 402 899 382 878 q 423 949 423 919 m 221 948 q 221 975 221 948 q 259 1039 221 1002 q 352 1076 296 1076 q 446 1039 408 1076 q 484 948 484 1002 q 446 860 484 895 q 352 824 408 824 q 258 860 296 824 q 221 948 221 895 z "},"Ű":{"ha":810,"x_min":80,"x_max":751,"o":"m 629 887 l 751 887 l 751 285 q 658 64 751 142 q 412 -14 566 -14 q 170 64 259 -14 q 80 285 80 142 l 80 887 l 201 887 l 201 285 q 257 133 201 186 q 412 80 313 80 q 570 133 511 80 q 629 285 629 186 l 629 887 m 439 1046 l 580 1231 l 706 1231 l 542 1046 l 439 1046 m 268 1046 l 372 1231 l 492 1231 l 359 1046 l 268 1046 z "},"ű":{"ha":689,"x_min":75,"x_max":638,"o":"m 304 -14 q 134 56 193 -14 q 75 270 75 126 l 75 659 l 195 659 l 195 269 q 225 124 195 165 q 323 83 256 83 q 493 183 448 83 l 493 659 l 613 659 l 613 -1 l 505 -1 l 497 96 q 304 -14 432 -14 m 371 836 l 512 1021 l 638 1021 l 474 836 l 371 836 m 200 836 l 304 1021 l 425 1021 l 292 836 l 200 836 z "},"Ų":{"ha":810,"x_min":85,"x_max":730,"o":"m 611 863 l 730 863 l 730 258 q 687 97 729 165 q 565 -7 645 29 q 470 -135 470 -75 q 517 -179 470 -179 q 578 -163 547 -179 l 587 -237 q 489 -264 545 -264 q 402 -232 434 -264 q 371 -145 371 -201 q 419 -38 371 -90 l 406 -39 q 173 40 258 -39 q 85 257 87 119 l 85 863 l 201 863 l 201 260 q 255 110 201 163 q 407 57 308 57 q 558 110 505 57 q 611 260 611 163 l 611 863 z "},"ų":{"ha":689,"x_min":83,"x_max":609,"o":"m 603 -29 l 597 -29 l 562 -57 q 492 -165 492 -113 q 541 -209 492 -209 q 602 -193 568 -209 l 609 -267 q 512 -294 567 -294 q 425 -262 456 -294 q 393 -178 393 -231 q 496 -26 393 -91 l 493 36 q 300 -41 428 -41 q 138 20 193 -41 q 83 201 83 81 l 83 631 l 196 631 l 196 204 q 318 54 196 54 q 490 151 447 54 l 490 631 l 603 631 l 603 -29 z "},"Ÿ":{"ha":751,"x_min":11,"x_max":749,"o":"m 437 0 l 318 0 l 318 321 l 11 888 l 149 888 l 380 437 l 612 888 l 749 888 l 437 313 l 437 0 m 572 1085 q 563 1076 572 1085 q 522 1067 555 1067 q 473 1085 490 1067 q 456 1132 456 1103 q 473 1179 456 1161 q 522 1197 490 1197 q 572 1179 555 1197 q 589 1132 589 1160 q 572 1085 589 1103 m 310 1086 q 301 1078 310 1086 q 260 1069 292 1069 q 210 1086 227 1069 q 193 1133 193 1104 q 210 1180 193 1162 q 260 1198 227 1198 q 310 1180 292 1198 q 327 1133 327 1162 q 310 1086 327 1104 z "},"Ź":{"ha":748,"x_min":53,"x_max":686,"o":"m 686 94 l 686 0 l 53 0 l 53 89 l 528 794 l 60 794 l 60 888 l 665 888 l 665 803 l 189 94 l 686 94 m 334 1051 l 452 1231 l 589 1231 l 425 1051 l 334 1051 z "},"ź":{"ha":620,"x_min":52,"x_max":577,"o":"m 577 94 l 577 0 l 52 0 l 52 84 l 409 565 l 56 565 l 56 661 l 556 661 l 556 578 l 195 94 l 577 94 m 266 841 l 383 1021 l 520 1021 l 357 841 l 266 841 z "},"Ż":{"ha":748,"x_min":54,"x_max":686,"o":"m 686 94 l 686 0 l 54 0 l 54 89 l 529 794 l 60 794 l 60 888 l 666 888 l 666 803 l 189 94 l 686 94 m 446 1084 q 437 1075 446 1084 q 396 1066 429 1066 q 347 1084 363 1066 q 330 1131 330 1101 q 347 1178 330 1160 q 396 1196 363 1196 q 446 1177 429 1196 q 463 1130 463 1159 q 446 1084 463 1101 z "},"ż":{"ha":620,"x_min":52,"x_max":577,"o":"m 577 94 l 577 0 l 52 0 l 52 84 l 409 565 l 56 565 l 56 661 l 556 661 l 556 578 l 195 94 l 577 94 m 377 873 q 368 865 377 873 q 327 856 359 856 q 277 873 294 856 q 260 920 260 891 q 277 967 260 949 q 327 985 294 985 q 377 967 359 985 q 394 920 394 949 q 377 873 394 891 z "},"Ž":{"ha":748,"x_min":53,"x_max":686,"o":"m 686 94 l 686 0 l 53 0 l 53 89 l 528 794 l 60 794 l 60 888 l 665 888 l 665 803 l 189 94 l 686 94 m 570 1233 l 570 1227 l 415 1059 l 346 1059 l 193 1227 l 193 1233 l 288 1233 l 380 1129 l 472 1233 l 570 1233 z "},"ž":{"ha":620,"x_min":52,"x_max":577,"o":"m 577 94 l 577 0 l 52 0 l 52 84 l 409 565 l 56 565 l 56 661 l 556 661 l 556 578 l 195 94 l 577 94 m 501 1023 l 501 1017 l 347 849 l 277 849 l 124 1017 l 124 1023 l 220 1023 l 312 919 l 404 1023 l 501 1023 z "},"ƒ":{"ha":425,"x_min":-18,"x_max":427,"o":"m 247 543 l 247 -83 q 196 -241 247 -185 q 50 -296 144 -296 q -18 -286 11 -296 l -9 -196 q 50 -203 11 -203 q 111 -172 90 -203 q 133 -84 133 -141 l 133 543 l 28 543 l 28 631 l 133 631 l 133 704 q 188 864 134 807 q 339 921 241 921 q 427 908 372 921 l 413 818 q 353 824 393 824 q 248 705 248 824 l 248 631 l 371 631 l 370 543 l 247 543 z "},"Ț":{"ha":746,"x_min":18,"x_max":709,"o":"m 709 888 l 709 794 l 423 794 l 423 0 l 303 0 l 303 794 l 18 794 l 18 888 l 709 888 z "},"ț":{"ha":408,"x_min":20,"x_max":376,"o":"m 125 819 l 246 819 l 246 659 l 371 659 l 371 570 l 246 570 l 246 169 q 316 85 246 85 q 361 93 338 85 l 376 11 q 285 -14 344 -14 q 167 31 209 -14 q 125 169 125 77 l 125 570 l 20 570 l 20 659 l 125 659 l 125 819 z "},"ʼ":{"ha":441,"x_min":119,"x_max":338,"o":"m 328 1015 l 338 994 l 228 684 l 119 684 l 183 1015 l 328 1015 z "},"ˆ":{"ha":589,"x_min":103,"x_max":473,"o":"m 473 849 l 379 849 l 288 953 l 197 849 l 103 849 l 103 857 l 254 1023 l 321 1023 l 473 855 l 473 849 z "},"ˇ":{"ha":555,"x_min":85,"x_max":463,"o":"m 463 1022 l 463 1016 l 308 848 l 239 848 l 85 1016 l 85 1022 l 181 1022 l 273 918 l 365 1022 l 463 1022 z "},"ˉ":{"ha":573,"x_min":65,"x_max":501,"o":"m 501 978 l 501 890 l 65 890 l 65 978 l 501 978 z "},"˘":{"ha":534,"x_min":79,"x_max":444,"o":"m 353 996 l 444 996 q 394 877 444 922 q 262 832 345 832 q 129 877 180 832 q 79 996 79 922 l 171 996 q 194 928 171 952 q 261 905 218 905 q 329 928 304 905 q 353 996 353 952 z "},"˙":{"ha":303,"x_min":86,"x_max":220,"o":"m 202 873 q 194 865 202 873 q 153 856 185 856 q 103 873 120 856 q 86 920 86 891 q 103 967 86 949 q 153 985 120 985 q 202 967 185 985 q 220 920 220 949 q 202 873 220 891 z "},"˚":{"ha":418,"x_min":74,"x_max":336,"o":"m 276 942 q 276 957 276 942 q 256 992 276 972 q 205 1013 235 1013 q 155 992 175 1013 q 134 941 134 971 q 155 891 134 911 q 205 871 175 871 q 255 891 235 871 q 276 942 276 911 m 74 941 q 74 968 74 941 q 112 1031 74 994 q 205 1068 149 1068 q 299 1031 261 1068 q 336 941 336 994 q 299 852 336 888 q 205 817 261 817 q 111 852 149 817 q 74 941 74 888 z "},"˛":{"ha":338,"x_min":31,"x_max":246,"o":"m 130 -165 q 177 -209 130 -209 q 238 -193 205 -209 l 246 -267 q 148 -294 203 -294 q 62 -262 94 -294 q 31 -177 31 -231 q 71 -77 31 -123 q 187 5 112 -30 l 234 -29 l 199 -57 q 130 -165 130 -113 z "},"˜":{"ha":589,"x_min":75,"x_max":506,"o":"m 375 852 q 331 858 349 852 q 284 883 313 864 q 242 906 255 901 q 207 910 229 910 q 168 890 185 910 q 150 842 150 871 l 75 846 q 112 954 75 911 q 205 997 149 997 q 243 991 227 997 q 290 967 260 985 q 335 944 319 949 q 373 938 351 938 q 413 958 395 938 q 431 1007 431 979 l 506 1000 q 469 893 506 935 q 375 852 431 852 z "},"˝":{"ha":467,"x_min":58,"x_max":496,"o":"m 229 836 l 370 1021 l 496 1021 l 332 836 l 229 836 m 58 836 l 162 1021 l 282 1021 l 149 836 l 58 836 z "},"π":{"ha":745,"x_min":25,"x_max":726,"o":"m 600 566 l 600 167 q 616 107 600 127 q 667 88 633 88 q 725 96 701 88 l 726 3 q 638 -8 682 -8 q 486 172 486 -8 l 486 566 l 241 566 l 241 -1 l 128 -1 l 128 566 l 25 566 l 25 660 l 694 660 l 694 566 l 600 566 z "},"ऀ":{"ha":0,"x_min":-621,"x_max":-135,"o":"m -439 939 l -439 1062 l -319 1062 l -319 939 l -439 939 m -384 1140 q -601 1054 -515 1140 l -621 1144 q -387 1241 -536 1241 q -249 1212 -316 1241 q -135 1139 -182 1183 l -155 1046 q -262 1116 -203 1092 q -384 1140 -322 1140 z "},"ँ":{"ha":0,"x_min":-627,"x_max":-140,"o":"m -378 1046 q -161 1133 -246 1046 l -140 1042 q -375 945 -225 945 q -512 974 -446 945 q -627 1048 -579 1003 l -607 1140 q -499 1070 -559 1095 q -378 1046 -439 1046 m -323 1248 l -323 1124 l -443 1124 l -443 1248 l -323 1248 z "},"ं":{"ha":0,"x_min":-269,"x_max":-149,"o":"m -149 1114 l -149 990 l -269 990 l -269 1114 l -149 1114 z "},"ः":{"ha":348,"x_min":98,"x_max":218,"o":"m 218 205 l 218 81 l 98 81 l 98 205 l 218 205 m 218 658 l 218 534 l 98 534 l 98 658 l 218 658 z "},"ऄ":{"ha":962,"x_min":60,"x_max":983,"o":"m 692 0 l 692 356 l 500 356 q 509 294 509 324 q 443 125 509 186 q 265 64 376 64 q 171 74 216 64 q 60 108 126 83 l 75 205 q 172 170 137 180 q 248 161 207 161 q 352 198 314 161 q 389 294 389 236 q 357 391 389 352 q 269 439 325 429 q 154 429 218 429 l 154 524 q 320 564 269 524 q 372 667 372 604 q 340 746 372 716 q 247 775 308 775 q 188 768 214 775 q 115 738 161 760 l 100 833 q 247 871 172 871 q 426 817 360 871 q 492 665 492 762 q 395 488 492 553 q 442 452 418 475 l 692 452 l 692 772 l 552 772 l 552 867 l 692 867 l 692 905 q 623 990 692 990 q 554 979 610 990 q 466 968 498 968 q 308 1034 385 968 l 339 1110 q 470 1060 404 1060 q 560 1076 493 1060 q 656 1092 627 1092 q 770 1043 728 1092 q 812 911 812 995 l 812 867 l 983 867 l 983 772 l 812 772 l 812 0 l 692 0 z "},"अ":{"ha":962,"x_min":60,"x_max":983,"o":"m 510 294 q 444 125 510 186 q 266 64 377 64 q 172 74 216 64 q 60 108 127 83 l 76 205 q 173 170 138 180 q 248 161 208 161 q 352 198 315 161 q 390 294 390 236 q 358 391 390 352 q 269 439 326 429 q 155 429 219 429 l 155 524 q 321 564 269 524 q 373 667 373 604 q 341 746 373 716 q 248 775 309 775 q 189 768 215 775 q 116 738 162 760 l 101 833 q 248 871 174 871 q 427 817 361 871 q 493 665 493 762 q 396 488 493 553 q 443 452 418 475 l 692 452 l 692 772 l 553 772 l 553 867 l 983 867 l 983 772 l 812 772 l 812 0 l 692 0 l 693 356 l 501 356 q 510 294 510 324 z "},"आ":{"ha":1327,"x_min":60,"x_max":1348,"o":"m 510 294 q 444 125 510 186 q 266 64 377 64 q 172 74 216 64 q 60 108 127 83 l 76 205 q 173 170 138 180 q 248 161 208 161 q 352 198 315 161 q 390 294 390 236 q 358 391 390 352 q 269 439 326 429 q 155 429 219 429 l 155 524 q 321 564 269 524 q 373 667 373 604 q 341 746 373 716 q 248 775 309 775 q 189 768 215 775 q 116 738 162 760 l 101 833 q 248 871 174 871 q 427 817 361 871 q 493 665 493 762 q 396 488 493 553 q 443 452 418 475 l 692 452 l 692 772 l 553 772 l 553 867 l 1348 867 l 1348 772 l 1177 772 l 1177 0 l 1057 0 l 1057 772 l 812 772 l 812 0 l 692 0 l 693 356 l 501 356 q 510 294 510 324 z "},"इ":{"ha":714,"x_min":-21,"x_max":734,"o":"m 262 13 q 139 40 186 13 q 92 108 92 66 q 121 179 92 150 q 192 208 149 208 q 264 188 234 208 q 340 112 294 168 l 340 110 q 467 145 421 111 q 512 227 512 179 q 483 300 512 275 q 404 325 454 325 q 322 315 353 325 q 256 283 291 305 l 242 283 q 122 358 168 306 q 76 481 76 411 q 131 596 76 551 q 286 642 186 642 l 444 642 l 444 770 l -21 770 l -21 866 l 734 866 l 734 770 l 564 770 l 564 547 l 291 547 q 218 524 243 547 q 193 463 193 502 q 245 387 193 411 q 397 422 316 422 q 570 368 507 422 q 632 230 632 315 q 568 89 632 144 q 393 23 503 33 l 504 -114 l 410 -161 l 266 13 l 262 13 z "},"ई":{"ha":714,"x_min":-22,"x_max":734,"o":"m 261 13 q 138 40 185 13 q 92 108 92 66 q 120 179 92 150 q 191 208 149 208 q 263 188 233 208 q 340 112 294 168 l 340 110 q 466 145 420 111 q 511 227 511 179 q 483 300 511 275 q 403 325 454 325 q 321 315 353 325 q 256 283 290 305 l 241 283 q 121 358 168 306 q 75 481 75 411 q 131 596 75 551 q 286 642 186 642 l 443 642 l 443 770 l -22 770 l -22 866 l 437 866 q 394 1026 393 954 q 445 1146 395 1099 q 579 1193 494 1193 q 687 1173 640 1193 l 677 1099 q 610 1107 642 1107 q 536 1081 565 1109 q 507 995 507 1054 q 544 866 507 937 l 734 866 l 734 770 l 564 770 l 564 547 l 291 547 q 218 524 243 547 q 193 463 193 502 q 245 387 193 411 q 397 422 316 422 q 570 368 507 422 q 632 230 632 315 q 568 89 632 144 q 393 23 503 33 l 504 -114 l 410 -161 l 265 13 l 261 13 z "},"उ":{"ha":646,"x_min":-20,"x_max":667,"o":"m 279 43 l 278 43 q 54 92 178 43 l 71 189 q 171 152 130 163 q 263 142 212 142 q 390 180 345 142 q 435 290 435 218 q 397 379 435 340 q 292 430 359 418 q 182 418 246 418 l 154 418 l 154 518 l 168 518 q 329 555 280 518 q 377 659 377 592 q 347 736 377 705 q 263 772 317 767 l -20 772 l -20 867 l 667 867 l 667 772 l 449 772 q 486 657 486 723 q 418 490 486 551 q 514 404 478 459 q 549 284 549 349 q 477 106 549 169 q 279 43 405 43 z "},"ऊ":{"ha":935,"x_min":-20,"x_max":956,"o":"m 549 284 q 477 106 549 169 q 279 43 405 43 q 54 92 179 43 l 71 189 q 172 152 131 163 q 264 142 213 142 q 391 180 346 142 q 436 290 436 218 q 398 379 436 340 q 293 430 359 418 q 182 418 247 418 l 155 418 l 155 518 l 168 518 q 329 555 281 518 q 378 659 378 592 q 348 736 378 705 q 264 772 317 767 l -20 772 l -20 867 l 956 867 l 956 772 l 450 772 q 487 657 487 723 q 441 515 487 572 q 618 557 521 557 q 798 491 730 557 q 866 321 866 425 q 779 89 866 199 l 666 109 q 727 218 709 169 q 745 326 745 267 q 708 423 745 384 q 611 463 671 463 q 496 428 550 463 q 549 284 549 365 z "},"ऋ":{"ha":1052,"x_min":-20,"x_max":1072,"o":"m 464 0 l 464 309 l 165 127 l 102 221 l 437 419 l 385 454 q 284 511 327 492 q 201 530 241 530 q 41 484 132 530 l 19 591 q 202 635 102 635 q 414 559 302 635 l 464 526 l 464 772 l -20 772 l -20 867 l 1072 867 l 1072 772 l 584 772 l 584 482 q 720 517 663 486 q 700 551 705 538 q 695 580 695 564 q 722 629 695 608 q 797 650 748 650 q 881 624 846 650 q 916 563 916 599 q 882 493 916 527 q 876 488 878 489 q 980 271 980 384 q 927 139 980 192 q 793 85 874 85 q 715 94 750 85 l 706 180 q 757 176 733 176 q 839 203 809 176 q 868 277 868 230 q 785 428 868 352 q 584 376 694 384 l 584 0 l 464 0 z "},"ऌ":{"ha":977,"x_min":-20,"x_max":998,"o":"m 837 -29 l 837 -31 q 682 15 736 -31 q 627 136 627 60 q 669 240 627 200 q 779 290 710 281 q 788 353 788 339 q 760 456 788 418 q 676 495 732 495 q 583 443 621 495 q 545 287 545 391 l 545 199 l 425 199 l 425 284 q 384 434 425 381 q 282 486 342 486 q 206 449 237 486 q 176 343 176 412 q 204 209 176 275 q 298 63 232 144 l 200 22 q 56 360 56 188 q 117 528 56 462 q 272 594 178 594 q 393 567 339 594 q 481 493 447 541 q 565 568 515 541 q 673 595 615 595 q 706 593 695 595 l 706 771 l -20 771 l -20 867 l 998 867 l 998 771 l 827 771 l 827 545 q 905 367 905 482 q 876 206 905 308 l 844 206 q 739 127 739 206 q 767 74 739 94 q 842 54 795 54 q 927 71 889 54 l 940 -11 q 837 -29 899 -29 z "},"ऍ":{"ha":760,"x_min":-20,"x_max":780,"o":"m 589 3 q 235 134 357 3 q 113 497 113 264 l 113 771 l -20 771 l -20 867 l 780 867 l 780 771 l 627 771 l 627 553 q 594 404 627 465 q 490 300 562 342 l 414 368 q 484 450 460 404 q 507 565 507 496 l 507 772 l 233 772 l 233 495 q 324 197 233 294 q 609 100 416 100 l 589 3 l 589 3 m 381 1046 q 598 1133 513 1046 l 618 1042 q 384 945 534 945 q 247 974 313 945 q 132 1048 180 1003 l 152 1140 q 260 1070 200 1095 q 381 1046 319 1046 z "},"ऎ":{"ha":760,"x_min":-21,"x_max":780,"o":"m 112 497 l 112 771 l -21 771 l -21 867 l 494 867 l 494 905 q 426 989 494 989 q 357 979 413 989 q 269 968 301 968 q 111 1034 187 968 l 142 1109 q 273 1059 206 1059 q 363 1075 296 1059 q 458 1091 430 1091 q 573 1043 531 1091 q 615 910 615 994 l 615 867 l 780 867 l 780 771 l 627 771 l 627 553 q 594 404 627 465 q 490 300 562 342 l 414 368 q 484 450 460 404 q 507 565 507 496 l 507 772 l 233 772 l 233 495 q 324 197 233 294 q 609 100 416 100 l 588 3 q 234 134 357 3 q 112 497 112 264 z "},"ए":{"ha":760,"x_min":-20,"x_max":780,"o":"m 589 3 q 235 134 357 3 q 113 497 113 264 l 113 771 l -20 771 l -20 867 l 780 867 l 780 771 l 627 771 l 627 553 q 594 404 627 465 q 490 300 562 342 l 414 368 q 484 450 460 404 q 507 565 507 496 l 507 772 l 233 772 l 233 495 q 324 197 233 294 q 609 100 416 100 l 589 3 l 589 3 z "},"ऐ":{"ha":760,"x_min":-20,"x_max":780,"o":"m 589 3 q 235 134 357 3 q 113 497 113 264 l 113 771 l -20 771 l -20 867 l 467 867 l 225 1149 l 317 1200 l 598 867 l 780 867 l 780 771 l 627 771 l 627 553 q 594 404 627 465 q 490 300 562 342 l 414 368 q 484 450 460 404 q 507 565 507 496 l 507 772 l 233 772 l 233 495 q 324 197 233 294 q 609 100 416 100 l 589 3 l 589 3 z "},"ऑ":{"ha":1327,"x_min":60,"x_max":1348,"o":"m 510 294 q 444 125 510 186 q 266 64 377 64 q 172 74 216 64 q 60 108 127 83 l 76 205 q 173 170 138 180 q 248 161 208 161 q 352 198 315 161 q 390 294 390 236 q 358 391 390 352 q 269 439 326 429 q 155 429 219 429 l 155 524 q 321 564 269 524 q 373 667 373 604 q 341 746 373 716 q 248 775 309 775 q 189 768 215 775 q 116 738 162 760 l 101 833 q 248 871 174 871 q 427 817 361 871 q 493 665 493 762 q 396 488 493 553 q 443 452 418 475 l 692 452 l 692 772 l 553 772 l 553 867 l 1348 867 l 1348 772 l 1177 772 l 1177 0 l 1057 0 l 1057 772 l 812 772 l 812 0 l 692 0 l 693 356 l 501 356 q 510 294 510 324 m 952 1046 q 1169 1133 1084 1046 l 1190 1042 q 955 945 1105 945 q 818 974 884 945 q 703 1048 751 1003 l 723 1140 q 831 1070 771 1095 q 952 1046 890 1046 z "},"ऒ":{"ha":1327,"x_min":60,"x_max":1348,"o":"m 692 0 l 692 356 l 500 356 q 509 294 509 324 q 443 125 509 186 q 265 64 376 64 q 171 74 216 64 q 60 108 126 83 l 75 205 q 172 170 137 180 q 248 161 207 161 q 352 198 314 161 q 389 294 389 236 q 357 391 389 352 q 269 439 325 429 q 154 429 218 429 l 154 524 q 320 564 269 524 q 372 667 372 604 q 340 746 372 716 q 247 775 308 775 q 188 768 214 775 q 115 738 161 760 l 100 833 q 247 871 172 871 q 426 817 360 871 q 492 665 492 762 q 395 488 492 553 q 442 452 418 475 l 692 452 l 692 772 l 552 772 l 552 867 l 1057 867 l 1057 905 q 988 990 1057 990 q 919 979 975 990 q 831 968 863 968 q 673 1034 749 968 l 704 1110 q 835 1060 768 1060 q 925 1076 858 1060 q 1021 1092 992 1092 q 1135 1043 1093 1092 q 1177 911 1177 995 l 1177 867 l 1348 867 l 1348 772 l 1177 772 l 1177 0 l 1057 0 l 1057 772 l 812 772 l 812 0 l 692 0 z "},"ओ":{"ha":1327,"x_min":60,"x_max":1348,"o":"m 510 294 q 444 125 510 186 q 266 64 377 64 q 172 74 216 64 q 60 108 127 83 l 76 205 q 173 170 138 180 q 248 161 208 161 q 352 198 315 161 q 390 294 390 236 q 358 391 390 352 q 269 439 326 429 q 155 429 219 429 l 155 524 q 321 564 269 524 q 373 667 373 604 q 341 746 373 716 q 248 775 309 775 q 189 768 215 775 q 116 738 162 760 l 101 833 q 248 871 174 871 q 427 817 361 871 q 493 665 493 762 q 396 488 493 553 q 443 452 418 475 l 692 452 l 692 772 l 553 772 l 553 867 l 1032 867 l 791 1150 l 882 1201 l 1164 867 l 1348 867 l 1348 772 l 1177 772 l 1177 0 l 1057 0 l 1057 772 l 812 772 l 812 0 l 692 0 l 693 356 l 501 356 q 510 294 510 324 z "},"औ":{"ha":1327,"x_min":60,"x_max":1348,"o":"m 510 294 q 444 125 510 186 q 266 64 377 64 q 172 74 216 64 q 60 108 127 83 l 76 205 q 173 170 138 180 q 248 161 208 161 q 352 198 315 161 q 390 294 390 236 q 358 391 390 352 q 269 439 326 429 q 155 429 219 429 l 155 524 q 321 564 269 524 q 373 667 373 604 q 341 746 373 716 q 248 775 309 775 q 189 768 215 775 q 116 738 162 760 l 101 833 q 248 871 174 871 q 427 817 361 871 q 493 665 493 762 q 396 488 493 553 q 443 452 418 475 l 692 452 l 692 772 l 553 772 l 553 867 l 965 867 l 669 1071 l 731 1150 l 1046 924 l 916 1205 l 1006 1238 l 1171 867 l 1348 867 l 1348 772 l 1177 772 l 1177 0 l 1057 0 l 1057 772 l 812 772 l 812 0 l 692 0 l 693 356 l 501 356 q 510 294 510 324 z "},"क":{"ha":1039,"x_min":-21,"x_max":1059,"o":"m 457 180 q 286 130 393 130 q 106 196 178 130 q 33 374 33 263 q 101 548 33 485 q 283 610 169 610 q 456 576 371 610 l 456 772 l -21 772 l -21 867 l 1059 867 l 1059 772 l 576 772 l 576 556 q 716 584 637 584 q 898 518 827 584 q 969 349 969 452 q 882 116 969 227 l 769 136 q 830 245 812 196 q 848 353 848 294 q 811 450 848 411 q 708 490 774 490 q 576 440 641 490 l 576 0 l 457 -1 l 457 180 m 294 515 q 191 477 229 515 q 153 377 153 440 q 193 263 153 304 q 282 226 228 226 q 457 302 390 226 l 457 469 q 294 515 380 515 z "},"ख":{"ha":1152,"x_min":-20,"x_max":1172,"o":"m 755 298 l 756 298 q 822 306 793 298 q 882 336 851 314 l 882 514 q 820 543 849 536 q 743 551 791 551 q 662 517 696 551 q 628 425 628 483 q 665 332 628 366 q 755 298 703 298 m 315 603 l 315 772 l -20 772 l -20 867 l 1172 867 l 1172 772 l 1002 772 l 1002 0 l 882 0 l 882 229 q 749 201 825 201 q 581 267 654 201 q 508 431 508 332 q 574 588 508 529 q 731 646 640 646 q 882 618 822 646 l 882 772 l 435 772 l 435 587 q 277 336 435 379 l 517 55 l 429 -9 l 11 494 l 94 559 l 208 447 q 290 489 264 452 q 315 603 315 526 z "},"ग":{"ha":819,"x_min":-20,"x_max":840,"o":"m 549 0 l 549 772 l 294 772 l 294 352 q 228 271 294 271 q 116 321 169 271 q 62 429 62 372 q 84 472 62 456 q 143 488 105 488 l 174 488 l 174 772 l -20 772 l -20 867 l 840 867 l 840 772 l 669 772 l 669 0 l 549 0 z "},"घ":{"ha":859,"x_min":-20,"x_max":879,"o":"m 363 574 l 393 575 l 439 575 l 446 479 l 390 479 q 211 353 211 479 q 255 260 211 295 q 374 225 300 225 q 587 290 496 225 l 587 771 l 342 771 q 253 746 282 771 q 224 675 224 721 q 255 602 224 630 q 340 574 286 574 l 363 574 m 588 173 q 371 130 499 130 q 167 193 242 130 q 92 363 92 256 q 189 528 92 471 q 105 687 105 585 q 127 772 105 733 l -20 772 l -20 867 l 879 867 l 879 772 l 709 772 l 709 0 l 589 0 l 588 173 z "},"ङ":{"ha":827,"x_min":-20,"x_max":847,"o":"m 356 122 q 486 152 439 122 q 532 229 532 182 q 503 300 532 275 q 419 326 474 326 q 266 281 337 326 l 252 281 q 132 357 178 303 q 85 481 85 412 q 141 597 85 551 q 296 643 196 643 l 463 643 l 463 771 l -20 771 l -20 867 l 847 867 l 847 771 l 584 771 l 584 547 l 300 547 q 201 464 201 547 q 256 385 201 410 q 416 422 336 422 q 589 368 526 422 q 651 225 651 315 q 574 82 651 136 q 366 27 497 27 l 366 26 q 208 49 288 26 q 64 107 127 72 l 94 207 q 222 148 147 173 q 356 122 297 122 m 779 524 l 779 410 l 659 410 l 659 524 l 779 524 z "},"च":{"ha":892,"x_min":-20,"x_max":912,"o":"m 622 0 l 622 178 q 434 132 546 132 q 248 196 322 132 q 173 366 173 261 q 208 487 173 438 l 32 487 l 32 583 l 502 583 l 502 487 l 435 487 q 329 447 364 482 q 293 356 293 412 q 332 267 293 300 q 440 235 372 235 q 622 302 544 235 l 622 772 l -20 772 l -20 867 l 912 867 l 912 772 l 742 772 l 742 0 l 622 0 z "},"छ":{"ha":979,"x_min":-20,"x_max":999,"o":"m 375 538 l 401 539 l 446 539 l 454 444 l 397 444 q 278 407 319 444 q 237 304 237 371 q 299 177 237 225 q 467 128 361 128 l 467 129 q 681 206 595 129 q 766 414 766 283 q 741 510 766 475 q 679 545 716 545 q 573 510 626 545 l 549 604 q 590 623 574 616 q 682 642 631 642 q 709 640 691 642 l 709 771 l 351 771 q 258 741 290 771 q 226 658 226 711 q 260 572 226 605 q 349 538 294 538 l 375 538 m 117 312 q 208 488 117 426 q 133 564 161 517 q 106 668 106 611 q 134 771 106 726 l -20 771 l -20 867 l 999 867 l 999 771 l 829 771 l 829 575 q 880 406 880 511 q 766 140 880 245 q 469 34 652 35 l 469 33 q 216 109 315 32 q 117 312 117 185 z "},"ज":{"ha":918,"x_min":-20,"x_max":939,"o":"m 492 318 q 425 141 492 208 q 234 75 357 75 q 141 86 184 75 q 41 123 97 97 l 64 218 q 145 184 112 193 q 218 176 178 175 q 331 214 292 177 q 371 322 371 251 q 318 439 371 393 q 176 486 265 486 l 125 486 l 125 582 l 648 582 l 648 772 l -20 772 l -20 867 l 939 867 l 939 772 l 768 772 l 768 0 l 648 0 l 649 487 l 413 487 q 471 412 450 456 q 492 318 492 368 z "},"झ":{"ha":1080,"x_min":-20,"x_max":1100,"o":"m 262 14 q 140 40 186 14 q 93 109 93 67 q 121 180 93 151 q 192 209 150 209 q 265 189 235 209 q 341 113 295 169 l 341 111 q 467 145 422 111 q 513 228 513 180 q 484 300 513 275 q 405 326 455 326 q 323 316 354 326 q 257 284 292 306 l 243 284 q 123 359 169 307 q 77 481 77 412 q 132 597 77 551 q 287 643 187 643 l 444 643 l 444 771 l -20 771 l -20 867 l 1100 867 l 1100 771 l 930 771 l 930 -1 l 810 -1 l 810 231 l 632 231 l 632 224 q 568 87 632 143 q 393 22 503 32 l 504 -115 l 410 -163 l 267 14 l 262 14 m 397 422 l 397 420 q 524 395 471 420 q 604 326 577 370 l 809 326 l 809 770 l 564 770 l 564 547 l 291 547 q 218 524 243 547 q 193 463 193 502 q 245 387 193 411 q 397 422 316 422 z "},"ञ":{"ha":990,"x_min":-20,"x_max":1010,"o":"m 720 0 l 720 354 l 538 354 q 461 191 529 254 q 283 127 393 127 q 37 205 155 127 l 62 300 q 176 245 134 258 q 266 233 218 233 q 377 275 335 233 q 418 384 418 316 q 377 493 418 452 q 259 534 336 534 q 104 494 182 534 l 83 591 q 264 634 168 634 q 433 585 361 634 q 530 453 506 535 l 720 453 l 720 772 l -20 772 l -20 867 l 1010 867 l 1010 772 l 840 772 l 840 0 l 720 0 z "},"ट":{"ha":705,"x_min":-20,"x_max":725,"o":"m 412 64 l 412 64 q 151 140 248 64 q 54 338 54 216 q 138 534 54 460 q 367 608 221 608 l 435 608 l 435 771 l -20 771 l -20 867 l 725 867 l 725 771 l 555 771 l 555 513 l 393 513 q 230 465 287 513 q 174 338 174 418 q 237 212 174 258 q 404 167 300 167 q 496 173 462 167 q 584 198 531 180 l 594 95 q 506 71 543 78 q 412 64 468 64 z "},"ठ":{"ha":808,"x_min":-20,"x_max":828,"o":"m 388 149 l 388 149 q 548 198 490 149 q 606 330 606 248 q 589 431 606 390 q 529 507 572 472 l 400 507 q 228 460 287 507 q 169 331 169 414 q 231 198 169 247 q 388 149 292 149 m 398 50 l 398 49 q 146 130 240 49 q 52 334 52 211 q 140 530 52 457 q 365 603 229 603 l 538 603 l 538 772 l -20 772 l -20 867 l 828 867 l 828 772 l 658 772 l 658 532 q 722 331 721 454 q 635 129 722 208 q 398 50 548 50 z "},"ड":{"ha":734,"x_min":-20,"x_max":754,"o":"m 356 122 q 486 152 439 122 q 532 229 532 182 q 503 300 532 275 q 419 326 474 326 q 266 281 337 326 l 252 281 q 132 357 178 303 q 85 481 85 412 q 141 597 85 551 q 296 643 196 643 l 463 643 l 463 771 l -20 771 l -20 867 l 754 867 l 754 771 l 584 771 l 584 547 l 300 547 q 201 464 201 547 q 256 385 201 410 q 416 422 336 422 q 589 368 526 422 q 651 225 651 315 q 574 82 651 136 q 366 27 497 27 l 366 26 q 208 49 288 26 q 64 107 127 72 l 94 207 q 222 148 147 173 q 356 122 297 122 z "},"ढ":{"ha":735,"x_min":-21,"x_max":755,"o":"m 429 31 l 428 31 q 156 115 257 31 q 54 345 54 200 q 137 534 54 463 q 364 605 219 605 l 464 605 l 464 772 l -21 772 l -21 867 l 755 867 l 755 772 l 585 772 l 585 509 l 375 509 q 229 462 284 509 q 173 333 173 414 q 242 179 173 232 q 421 126 311 126 q 526 154 488 126 q 564 225 564 182 q 470 296 564 296 q 405 281 435 296 q 330 233 374 267 l 286 319 q 467 394 366 394 q 623 347 568 394 q 678 227 678 299 q 614 87 678 143 q 429 31 550 31 z "},"ण":{"ha":995,"x_min":-20,"x_max":1015,"o":"m 212 505 q 239 397 212 435 q 318 359 266 359 q 397 396 370 359 q 425 505 425 433 l 425 772 l 212 772 l 212 505 m 725 0 l 725 772 l 545 772 l 545 507 q 489 328 545 392 q 324 263 433 263 q 153 328 215 263 q 92 508 92 393 l 92 772 l -20 772 l -20 867 l 1015 867 l 1015 772 l 845 772 l 845 0 l 725 0 z "},"त":{"ha":774,"x_min":-20,"x_max":794,"o":"m 214 -2 l 216 -3 q 215 -2 215 -2 l 214 -2 m 349 589 l 504 589 l 504 772 l -20 772 l -20 867 l 794 867 l 794 772 l 624 772 l 624 0 l 504 0 l 504 493 l 375 493 q 237 447 286 493 q 189 327 189 401 q 218 185 189 254 q 312 39 246 117 l 215 -2 q 107 165 145 77 q 70 342 69 254 q 144 523 71 456 q 349 589 217 589 z "},"थ":{"ha":848,"x_min":45,"x_max":869,"o":"m 579 197 q 415 157 504 157 q 259 187 327 157 q 134 287 191 218 q 45 460 78 356 l 49 485 q 340 661 340 496 q 314 736 340 709 q 246 764 288 764 q 182 739 205 764 q 159 674 159 714 q 168 621 159 656 l 77 608 q 62 703 60 651 q 113 814 64 770 q 237 857 161 857 q 385 803 330 857 q 440 669 440 748 q 403 532 440 589 q 182 407 332 421 q 272 295 211 336 q 405 254 333 254 q 578 315 509 254 l 578 772 l 509 772 l 509 867 l 869 867 l 869 772 l 699 772 l 699 0 l 578 0 l 579 197 z "},"द":{"ha":713,"x_min":-20,"x_max":734,"o":"m 438 98 l 405 98 q 160 172 256 98 q 64 371 64 247 q 145 544 64 478 q 357 609 226 609 l 444 609 l 444 772 l -20 772 l -20 867 l 734 867 l 734 772 l 564 772 l 564 513 l 377 513 q 233 471 283 513 q 182 358 182 429 q 240 241 182 287 q 382 195 297 195 q 394 196 389 195 q 390 231 390 212 q 416 286 391 264 q 497 309 442 309 q 587 278 551 309 q 622 210 622 248 q 543 117 622 146 l 623 -90 l 513 -111 l 438 98 z "},"ध":{"ha":866,"x_min":78,"x_max":886,"o":"m 372 575 l 401 576 l 447 576 l 454 480 l 398 480 q 218 353 218 480 q 263 260 218 296 q 382 225 308 225 q 596 292 503 225 l 596 772 l 527 772 l 527 867 l 886 867 l 886 772 l 716 772 l 716 0 l 595 0 l 595 178 q 376 128 503 128 q 173 193 249 128 q 98 363 98 257 q 193 528 98 469 q 110 604 142 557 q 78 706 78 650 q 133 828 78 779 q 279 876 187 876 q 400 851 348 876 l 387 768 q 343 781 361 778 q 295 783 326 783 q 223 759 249 783 q 197 690 197 734 q 243 610 197 645 q 349 575 288 575 l 372 575 z "},"न":{"ha":758,"x_min":-20,"x_max":779,"o":"m 488 0 l 488 447 l 239 447 l 239 348 q 172 267 239 267 q 87 323 125 267 q 50 452 50 379 q 164 546 50 546 l 488 546 l 488 772 l -20 772 l -20 867 l 779 867 l 779 772 l 608 772 l 608 0 l 488 0 z "},"ऩ":{"ha":758,"x_min":-20,"x_max":779,"o":"m 264 53 l 264 -57 l 144 -57 l 144 53 l 264 53 m 488 0 l 488 447 l 239 447 l 239 348 q 172 267 239 267 q 87 323 125 267 q 50 452 50 379 q 164 546 50 546 l 488 546 l 488 772 l -20 772 l -20 867 l 779 867 l 779 772 l 608 772 l 608 0 l 488 0 z "},"प":{"ha":742,"x_min":-20,"x_max":762,"o":"m 472 772 l 208 772 l 208 534 q 240 414 208 452 q 330 376 272 376 l 330 376 q 472 428 417 376 l 472 772 m 472 0 l 472 311 q 332 280 416 280 q 154 351 220 280 q 87 560 87 421 l 87 772 l -20 772 l -20 867 l 762 867 l 762 772 l 592 772 l 592 0 l 472 0 z "},"फ":{"ha":1054,"x_min":-19,"x_max":1076,"o":"m 593 1 l 473 1 l 473 312 q 334 281 417 281 q 155 351 221 281 q 89 561 89 422 l 89 772 l -19 772 l -19 868 l 1076 868 l 1076 772 l 593 772 l 593 556 q 738 585 658 585 q 917 519 849 585 q 985 349 985 453 q 898 117 985 227 l 785 137 q 846 246 828 197 q 864 353 864 295 q 827 451 864 412 q 724 490 791 490 q 593 441 657 490 l 593 1 m 472 772 l 208 772 l 208 534 q 240 414 208 452 q 330 376 272 376 l 330 376 q 472 428 417 376 l 472 772 z "},"ब":{"ha":756,"x_min":-20,"x_max":777,"o":"m 323 243 q 369 247 346 243 l 222 513 q 165 397 165 472 q 209 282 165 322 q 323 243 252 243 m 486 0 l 486 188 q 322 145 420 145 q 123 219 201 145 q 45 400 45 293 q 117 574 45 508 q 316 641 189 641 q 486 606 408 641 l 486 772 l -20 772 l -20 867 l 777 867 l 777 772 l 606 772 l 606 0 l 486 0 m 486 500 q 331 545 418 545 q 297 543 311 545 l 446 273 q 486 303 470 287 l 486 500 z "},"भ":{"ha":778,"x_min":-9,"x_max":798,"o":"m 508 0 l 508 368 l 286 368 l 286 331 q 220 250 286 250 q 108 300 161 250 q 55 408 55 351 q 76 451 55 435 q 136 467 98 467 l 166 467 l 166 654 q 145 744 166 714 q 95 772 125 773 q 51 767 66 772 q 9 747 36 762 l -9 840 q 105 872 40 872 q 237 816 188 872 q 286 650 286 760 l 286 467 l 508 467 l 508 772 l 439 772 l 439 867 l 798 867 l 798 772 l 628 772 l 628 0 l 508 0 z "},"म":{"ha":800,"x_min":-20,"x_max":820,"o":"m 530 0 l 530 368 l 286 368 l 286 332 q 220 250 286 250 q 108 301 161 250 q 55 409 55 351 q 76 452 55 436 q 136 467 98 467 l 166 467 l 166 772 l -20 772 l -20 867 l 820 867 l 820 772 l 650 772 l 650 0 l 530 0 m 530 772 l 286 772 l 286 467 l 530 467 l 530 772 z "},"य":{"ha":805,"x_min":-20,"x_max":825,"o":"m 376 294 l 377 294 q 465 306 430 294 q 535 348 500 318 l 535 772 l 286 772 q 328 701 313 741 q 344 621 344 661 q 297 493 344 548 q 181 427 251 439 q 262 328 211 362 q 376 294 313 294 m 384 194 q 181 261 269 194 q 44 466 92 329 l 47 487 q 189 535 144 499 q 233 629 233 570 q 215 704 233 670 q 155 772 197 738 l -20 772 l -20 867 l 825 867 l 825 772 l 655 772 l 655 0 l 535 0 l 534 227 q 384 194 472 194 z "},"र":{"ha":576,"x_min":-20,"x_max":596,"o":"m 315 603 l 315 772 l -20 772 l -20 867 l 596 867 l 596 772 l 435 772 l 435 587 q 277 336 435 379 l 517 55 l 429 -9 l 11 494 l 94 559 l 208 447 q 290 489 264 452 q 315 603 315 526 z "},"ऱ":{"ha":584,"x_min":-20,"x_max":596,"o":"m 163 53 l 163 -57 l 43 -57 l 43 53 l 163 53 m 315 603 l 315 772 l -20 772 l -20 867 l 596 867 l 596 772 l 435 772 l 435 587 q 277 336 435 379 l 517 55 l 429 -9 l 11 494 l 94 559 l 208 447 q 290 489 264 452 q 315 603 315 526 z "},"ल":{"ha":1035,"x_min":-20,"x_max":1055,"o":"m 764 0 l 764 465 q 668 499 722 499 q 580 447 614 499 q 545 290 545 395 l 545 201 l 425 201 l 425 287 q 384 436 425 384 q 282 489 342 489 q 206 452 237 489 q 176 346 176 415 q 204 212 176 277 q 298 66 232 146 l 200 25 q 56 363 56 191 q 117 531 56 465 q 272 597 178 597 q 392 571 338 597 q 479 498 445 545 q 561 572 513 545 q 661 599 608 599 q 764 579 714 599 l 764 772 l -20 772 l -20 867 l 1055 867 l 1055 772 l 885 772 l 885 0 l 764 0 z "},"ळ":{"ha":1063,"x_min":-20,"x_max":1084,"o":"m 167 333 q 167 287 167 333 q 207 195 167 242 q 313 147 247 147 q 417 194 378 147 q 456 335 456 241 q 306 517 456 517 q 205 470 243 517 q 167 333 167 423 m 879 337 q 879 381 879 337 q 841 472 879 425 q 741 518 803 518 q 641 473 679 518 q 603 336 603 427 q 641 198 603 245 q 742 151 679 151 q 842 200 806 151 q 879 337 879 249 m 747 56 q 624 83 681 56 q 530 163 566 111 q 447 87 502 115 q 314 57 392 59 q 127 132 199 54 q 56 336 56 210 q 122 536 56 463 q 307 610 189 610 q 435 579 378 610 q 527 499 492 549 q 617 581 561 551 q 734 610 673 610 q 792 605 760 610 l 792 772 l -20 772 l -20 867 l 1084 867 l 1084 772 l 913 772 l 913 547 q 992 341 992 472 q 925 133 992 210 q 747 56 857 56 z "},"ऴ":{"ha":1063,"x_min":-20,"x_max":1084,"o":"m 275 -15 l 275 -125 l 155 -125 l 155 -15 l 275 -15 m 167 333 q 167 287 167 333 q 207 195 167 242 q 313 147 247 147 q 417 194 378 147 q 456 335 456 241 q 306 517 456 517 q 205 470 243 517 q 167 333 167 423 m 879 337 q 879 381 879 337 q 841 472 879 425 q 741 518 803 518 q 641 473 679 518 q 603 336 603 427 q 641 198 603 245 q 742 151 679 151 q 842 200 806 151 q 879 337 879 249 m 747 56 q 624 83 681 56 q 530 163 566 111 q 447 87 502 115 q 314 57 392 59 q 127 132 199 54 q 56 336 56 210 q 122 536 56 463 q 307 610 189 610 q 435 579 378 610 q 527 499 492 549 q 617 581 561 551 q 734 610 673 610 q 792 605 760 610 l 792 772 l -20 772 l -20 867 l 1084 867 l 1084 772 l 913 772 l 913 547 q 992 341 992 472 q 925 133 992 210 q 747 56 857 56 z "},"व":{"ha":756,"x_min":-20,"x_max":777,"o":"m 323 243 q 486 303 423 243 l 486 500 q 338 545 418 545 q 211 505 257 545 q 165 393 165 465 q 208 282 165 322 q 323 243 251 243 m 486 0 l 486 188 q 322 145 420 145 q 123 219 201 145 q 45 400 45 293 q 117 574 45 508 q 316 641 189 641 q 486 606 408 641 l 486 772 l -20 772 l -20 867 l 777 867 l 777 772 l 606 772 l 606 0 l 486 0 z "},"श":{"ha":980,"x_min":92,"x_max":1000,"o":"m 265 260 q 185 248 224 248 q 119 270 146 248 q 93 340 93 292 q 124 424 93 389 q 199 458 156 458 q 293 404 252 458 q 400 487 363 433 q 437 616 437 542 q 400 734 437 691 q 311 777 364 777 q 227 744 258 777 q 197 661 197 712 q 208 591 197 629 l 116 573 q 92 682 92 625 q 152 821 92 767 q 312 876 211 876 q 481 804 414 876 q 548 611 548 732 q 494 434 548 516 q 357 300 441 351 l 536 56 l 439 5 l 265 260 m 709 0 l 709 772 l 641 772 l 641 867 l 1000 867 l 1000 772 l 830 772 l 830 0 l 709 0 z "},"ष":{"ha":742,"x_min":-20,"x_max":762,"o":"m 330 376 l 330 376 q 406 388 372 376 l 208 746 l 208 534 q 240 414 208 452 q 330 376 272 376 m 472 772 l 283 772 l 472 433 l 472 772 m 472 0 l 472 311 q 332 280 416 280 q 154 351 220 280 q 87 560 87 421 l 87 772 l -20 772 l -20 867 l 762 867 l 762 772 l 592 772 l 592 0 l 472 0 z "},"स":{"ha":915,"x_min":-20,"x_max":935,"o":"m 291 603 l 291 772 l -20 772 l -20 867 l 935 867 l 935 772 l 765 772 l 765 0 l 645 0 l 645 360 l 310 360 q 261 339 290 347 l 465 50 l 372 -3 l 9 508 l 90 566 l 203 446 q 270 495 249 457 q 291 603 291 533 m 411 587 q 389 456 411 511 l 645 456 l 645 772 l 411 772 l 411 587 z "},"ह":{"ha":732,"x_min":-20,"x_max":753,"o":"m 101 148 q 165 304 101 238 q 71 472 71 376 q 129 592 71 547 q 283 638 186 638 l 462 638 l 462 772 l -20 772 l -20 867 l 753 867 l 753 772 l 583 772 l 583 543 l 295 543 q 217 520 244 543 q 190 460 190 498 q 255 364 190 399 q 376 387 309 387 q 563 323 488 387 q 637 177 637 260 q 618 70 637 130 l 507 80 q 519 172 519 125 q 482 253 519 219 q 377 286 446 286 q 265 243 309 286 q 221 135 221 201 q 239 50 221 86 q 298 -15 258 13 q 567 -71 379 -71 l 554 -166 q 216 -81 330 -166 q 101 148 101 4 z "},"ऺ":{"ha":0,"x_min":-271,"x_max":-151,"o":"m -271 991 l -151 991 l -151 797 l -271 797 l -271 991 z "},"ऻ":{"ha":382,"x_min":-20,"x_max":403,"o":"m 113 0 l 113 772 l -20 772 l -20 867 l 111 867 l 111 991 l 231 991 l 231 867 l 403 867 l 403 772 l 233 772 l 233 0 l 113 0 z "},"़":{"ha":0,"x_min":-585,"x_max":-465,"o":"m -465 53 l -465 -57 l -585 -57 l -585 53 l -465 53 z "},"ऽ":{"ha":695,"x_min":79,"x_max":591,"o":"m 340 56 q 210 72 266 56 q 79 129 155 87 l 102 231 q 224 178 170 193 q 339 162 278 162 q 436 193 399 162 q 472 284 472 224 q 298 458 472 392 q 87 687 87 538 q 144 818 87 769 q 306 867 201 867 l 562 867 l 562 772 l 313 772 q 234 747 260 772 q 208 682 208 723 q 241 612 208 641 q 366 547 275 583 q 591 279 591 458 l 591 278 q 521 117 591 177 q 340 56 452 56 z "},"ा":{"ha":382,"x_min":-20,"x_max":403,"o":"m 113 0 l 113 772 l -20 772 l -20 867 l 403 867 l 403 772 l 233 772 l 233 0 l 113 0 z "},"ि":{"ha":382,"x_min":-20,"x_max":926,"o":"m -20 772 l -20 867 l 113 867 l 113 895 q 209 1094 113 1019 q 498 1168 304 1168 q 713 1142 592 1168 q 926 1072 834 1115 l 905 988 q 703 1048 810 1027 q 504 1070 596 1070 q 299 1021 366 1070 q 233 886 233 971 l 233 867 l 403 867 l 403 772 l 233 772 l 233 0 l 113 0 l 113 772 l -20 772 z "},"ी":{"ha":382,"x_min":-311,"x_max":403,"o":"m -20 772 l -20 867 l 99 867 q -2 1013 55 960 q -118 1065 -59 1065 q -199 984 -199 1065 q -183 908 -199 947 q -141 838 -168 869 l -264 838 q -297 910 -283 867 q -311 1001 -311 954 q -264 1118 -311 1074 q -132 1161 -217 1161 q 63 1089 -24 1161 q 220 867 150 1017 l 403 867 l 403 772 l 233 772 l 233 0 l 113 0 l 113 772 l -20 772 z "},"ु":{"ha":0,"x_min":-561,"x_max":3,"o":"m -224 28 q -56 -25 -114 28 q 3 -161 3 -78 q -58 -294 3 -245 q -232 -343 -118 -342 q -561 -213 -401 -345 l -519 -121 q -368 -217 -440 -187 q -236 -246 -296 -246 q -141 -222 -175 -246 q -107 -155 -107 -198 q -226 -69 -107 -69 q -357 -106 -294 -69 l -384 -17 q -306 17 -349 5 q -224 28 -262 28 z "},"ू":{"ha":0,"x_min":-427,"x_max":156,"o":"m -193 -347 q -361 -295 -295 -347 q -427 -160 -427 -243 q -369 -29 -427 -78 q -210 20 -312 20 q -15 -42 -109 20 q 156 -233 78 -104 l 91 -300 q -204 -77 -52 -77 q -287 -102 -258 -77 q -316 -169 -316 -127 q -283 -234 -316 -211 q -194 -258 -250 -258 q -100 -246 -138 -258 l -87 -335 q -193 -347 -125 -347 z "},"ृ":{"ha":0,"x_min":-436,"x_max":-98,"o":"m -212 -336 q -377 -285 -318 -336 q -436 -152 -436 -233 q -377 -22 -436 -71 q -226 26 -318 26 l -149 26 l -149 -62 l -199 -62 q -293 -88 -261 -62 q -324 -157 -324 -115 q -294 -226 -324 -200 q -214 -252 -263 -252 q -110 -232 -164 -252 l -98 -313 q -212 -336 -140 -336 z "},"ॄ":{"ha":0,"x_min":-411,"x_max":-92,"o":"m -93 -406 l -92 -406 q -93 -406 -92 -406 m -93 -406 q -199 -428 -145 -428 q -321 -392 -277 -428 q -365 -296 -365 -355 q -335 -228 -365 -256 q -391 -177 -371 -208 q -411 -111 -411 -146 q -358 -12 -411 -51 q -225 26 -306 26 l -149 26 l -149 -61 l -192 -61 q -279 -75 -255 -61 q -303 -117 -303 -88 q -278 -161 -303 -145 q -212 -176 -254 -176 q -126 -166 -170 -176 l -110 -237 q -215 -257 -158 -257 l -222 -257 q -271 -304 -271 -267 q -199 -352 -271 -352 q -108 -335 -161 -352 l -93 -406 z "},"ॅ":{"ha":0,"x_min":-654,"x_max":-168,"o":"m -405 1046 q -188 1133 -273 1046 l -168 1042 q -402 945 -252 945 q -539 974 -473 945 q -654 1048 -606 1003 l -634 1140 q -526 1070 -586 1095 q -405 1046 -467 1046 z "},"ॆ":{"ha":0,"x_min":-654,"x_max":-150,"o":"m -150 828 l -271 828 l -271 905 q -339 990 -271 990 q -408 979 -352 990 q -496 968 -464 968 q -654 1034 -578 968 l -623 1110 q -492 1060 -559 1060 q -402 1076 -469 1060 q -307 1092 -335 1092 q -192 1043 -234 1092 q -150 911 -150 995 l -150 828 z "},"े":{"ha":0,"x_min":-540,"x_max":-134,"o":"m -134 828 l -265 828 l -540 1150 l -448 1201 l -134 828 z "},"ै":{"ha":0,"x_min":-666,"x_max":-146,"o":"m -313 828 l -666 1071 l -604 1150 l -290 924 l -419 1205 l -329 1238 l -146 828 l -313 828 z "},"ॉ":{"ha":382,"x_min":-79,"x_max":408,"o":"m 113 0 l 113 772 l -20 772 l -20 867 l 403 867 l 403 772 l 233 772 l 233 0 l 113 0 m 170 1047 q 387 1133 302 1047 l 408 1043 q 173 946 323 946 q 36 975 102 946 q -79 1048 -31 1004 l -59 1141 q 49 1071 -11 1095 q 170 1047 109 1047 z "},"ॊ":{"ha":382,"x_min":-272,"x_max":403,"o":"m -21 772 l -21 867 l 112 867 l 112 905 q 43 990 112 990 q -25 979 31 990 q -114 968 -81 968 q -272 1034 -195 968 l -241 1110 q -110 1060 -176 1060 q -20 1076 -87 1060 q 76 1092 47 1092 q 191 1043 149 1092 q 233 911 233 995 l 233 867 l 403 867 l 403 772 l 233 772 l 233 0 l 113 0 l 112 772 l -21 772 z "},"ो":{"ha":382,"x_min":-159,"x_max":403,"o":"m 113 0 l 113 772 l -20 772 l -20 867 l 83 867 l -159 1150 l -67 1201 l 214 867 l 403 867 l 403 772 l 233 772 l 233 0 l 113 0 z "},"ौ":{"ha":382,"x_min":-278,"x_max":403,"o":"m 113 0 l 113 772 l -20 772 l -20 867 l 18 867 l -278 1071 l -216 1150 l 98 924 l -31 1205 l 59 1238 l 224 867 l 403 867 l 403 772 l 233 772 l 233 0 l 113 0 z "},"्":{"ha":0,"x_min":-317,"x_max":53,"o":"m -317 -150 l -267 -62 l 53 -232 l 4 -318 l -317 -150 z "},"ॎ":{"ha":382,"x_min":113,"x_max":402,"o":"m 113 0 l 113 867 l 402 867 l 402 772 l 233 772 l 233 0 l 113 0 z "},"ॏ":{"ha":382,"x_min":-329,"x_max":403,"o":"m -22 772 l -22 867 l 55 867 q 8 919 31 906 q -40 932 -14 932 q -113 922 -65 932 q -181 912 -161 912 q -329 965 -258 912 l -303 1037 q -192 998 -249 998 q -115 1011 -174 998 q -33 1025 -57 1025 q 124 936 64 1025 l 124 1019 q 109 1067 124 1049 q 71 1085 93 1085 q 5 1077 50 1085 q -62 1068 -40 1068 q -212 1132 -146 1068 l -180 1203 q -119 1163 -145 1173 q -66 1154 -94 1154 q 16 1166 -39 1154 q 98 1179 72 1179 q 196 1138 159 1179 q 233 1023 233 1098 l 233 867 l 403 867 l 403 772 l 233 772 l 233 0 l 113 0 l 111 772 l -22 772 z "},"ॐ":{"ha":1257,"x_min":107,"x_max":1160,"o":"m 313 64 l 313 65 q 218 74 263 65 q 107 109 174 83 l 123 206 q 219 171 184 180 q 295 161 254 161 q 399 199 361 161 q 437 295 437 237 q 405 391 437 353 q 316 440 372 430 q 201 429 266 429 l 201 525 q 368 565 316 525 q 420 667 420 605 q 388 746 420 717 q 294 776 355 776 q 235 768 262 776 q 163 739 209 761 l 148 833 q 294 872 220 872 q 474 818 408 872 q 540 665 540 763 q 443 489 540 554 q 524 410 494 458 q 557 301 555 361 q 600 298 571 298 q 715 424 686 298 q 800 606 743 549 q 944 663 857 663 q 1101 593 1042 663 q 1160 413 1160 523 q 1102 234 1160 302 q 945 166 1044 166 q 835 186 896 166 l 849 273 q 935 258 897 258 q 1017 296 986 258 q 1047 413 1047 334 q 1021 531 1047 492 q 951 569 994 569 q 875 529 907 569 q 829 417 843 488 q 755 253 808 304 q 612 202 702 202 q 544 209 578 202 q 460 102 521 140 q 313 64 399 64 m 794 831 q 1011 917 926 831 l 1031 827 q 797 730 947 730 q 660 759 726 730 q 545 832 593 787 l 565 924 q 673 855 613 879 q 794 831 732 831 m 849 1032 l 849 909 l 729 909 l 729 1032 l 849 1032 z "},"॑":{"ha":0,"x_min":-271,"x_max":-151,"o":"m -271 1155 l -151 1155 l -151 960 l -271 960 l -271 1155 z "},"॒":{"ha":0,"x_min":-627,"x_max":-149,"o":"m -149 -144 l -627 -144 l -627 -52 l -149 -52 l -149 -144 z "},"॓":{"ha":0,"x_min":-408,"x_max":-154,"o":"m -247 1221 l -154 963 l -260 963 l -408 1221 l -247 1221 z "},"॔":{"ha":0,"x_min":-266,"x_max":-13,"o":"m -266 963 l -172 1221 l -13 1221 l -159 963 l -266 963 z "},"ॕ":{"ha":0,"x_min":-648,"x_max":-155,"o":"m -155 936 l -633 936 l -633 1028 l -155 1028 l -155 936 m -628 1249 q -398 1166 -528 1166 q -182 1242 -268 1166 l -161 1162 q -396 1076 -248 1076 q -533 1102 -467 1076 q -648 1167 -600 1128 l -628 1249 z "},"ॖ":{"ha":0,"x_min":-474,"x_max":79,"o":"m 79 -129 q -188 -221 -28 -221 q -474 -133 -349 -221 l -441 -47 q -194 -124 -333 -124 q 41 -44 -54 -124 l 79 -129 z "},"ॗ":{"ha":0,"x_min":-486,"x_max":94,"o":"m 94 -290 q -185 -372 -16 -372 q -486 -294 -355 -372 l -452 -217 q -191 -286 -338 -286 q 55 -215 -44 -286 l 94 -290 m 79 -124 q -190 -208 -28 -208 q -474 -127 -351 -208 l -441 -49 q -194 -120 -332 -120 q 41 -46 -55 -120 l 79 -124 z "},"क़":{"ha":1039,"x_min":-21,"x_max":1059,"o":"m 183 52 l 183 -58 l 63 -58 l 63 52 l 183 52 m 457 180 q 286 130 393 130 q 106 196 178 130 q 33 374 33 263 q 101 548 33 485 q 283 610 169 610 q 456 576 371 610 l 456 772 l -21 772 l -21 867 l 1059 867 l 1059 772 l 576 772 l 576 556 q 716 584 637 584 q 898 518 827 584 q 969 349 969 452 q 882 116 969 227 l 769 136 q 830 245 812 196 q 848 353 848 294 q 811 450 848 411 q 708 490 774 490 q 576 440 641 490 l 576 0 l 457 -1 l 457 180 m 294 515 q 191 477 229 515 q 153 377 153 440 q 193 263 153 304 q 282 226 228 226 q 457 302 390 226 l 457 469 q 294 515 380 515 z "},"ख़":{"ha":1152,"x_min":-20,"x_max":1172,"o":"m 238 53 l 238 -57 l 118 -57 l 118 53 l 238 53 m 755 298 l 756 298 q 822 306 793 298 q 882 336 851 314 l 882 514 q 820 543 849 536 q 743 551 791 551 q 662 517 696 551 q 628 425 628 483 q 665 332 628 366 q 755 298 703 298 m 315 603 l 315 772 l -20 772 l -20 867 l 1172 867 l 1172 772 l 1002 772 l 1002 0 l 882 0 l 882 229 q 749 201 825 201 q 581 267 654 201 q 508 431 508 332 q 574 588 508 529 q 731 646 640 646 q 882 618 822 646 l 882 772 l 435 772 l 435 587 q 277 336 435 379 l 517 55 l 429 -9 l 11 494 l 94 559 l 208 447 q 290 489 264 452 q 315 603 315 526 z "},"ग़":{"ha":819,"x_min":-20,"x_max":840,"o":"m 271 53 l 271 -57 l 151 -57 l 151 53 l 271 53 m 549 0 l 549 772 l 294 772 l 294 352 q 228 271 294 271 q 116 321 169 271 q 62 429 62 372 q 84 472 62 456 q 143 488 105 488 l 174 488 l 174 772 l -20 772 l -20 867 l 840 867 l 840 772 l 669 772 l 669 0 l 549 0 z "},"ज़":{"ha":918,"x_min":-20,"x_max":939,"o":"m 214 0 l 214 -110 l 94 -110 l 94 0 l 214 0 m 492 318 q 425 141 492 208 q 234 75 357 75 q 141 86 184 75 q 41 123 97 97 l 64 218 q 145 184 112 193 q 218 176 178 175 q 331 214 292 177 q 371 322 371 251 q 318 439 371 393 q 176 486 265 486 l 125 486 l 125 582 l 648 582 l 648 772 l -20 772 l -20 867 l 939 867 l 939 772 l 768 772 l 768 0 l 648 0 l 649 487 l 413 487 q 471 412 450 456 q 492 318 492 368 z "},"ड़":{"ha":734,"x_min":-20,"x_max":754,"o":"m 440 -70 l 440 -180 l 320 -180 l 320 -70 l 440 -70 m 356 122 q 486 152 439 122 q 532 229 532 182 q 503 300 532 275 q 419 326 474 326 q 266 281 337 326 l 252 281 q 132 357 178 303 q 85 481 85 412 q 141 597 85 551 q 296 643 196 643 l 463 643 l 463 771 l -20 771 l -20 867 l 754 867 l 754 771 l 584 771 l 584 547 l 300 547 q 201 464 201 547 q 256 385 201 410 q 416 422 336 422 q 589 368 526 422 q 651 225 651 315 q 574 82 651 136 q 366 27 497 27 l 366 26 q 208 49 288 26 q 64 107 127 72 l 94 207 q 222 148 147 173 q 356 122 297 122 z "},"ढ़":{"ha":735,"x_min":-21,"x_max":755,"o":"m 460 -69 l 460 -179 l 340 -179 l 340 -69 l 460 -69 m 429 31 l 428 31 q 156 115 257 31 q 54 345 54 200 q 137 534 54 463 q 364 605 219 605 l 464 605 l 464 772 l -21 772 l -21 867 l 755 867 l 755 772 l 585 772 l 585 509 l 375 509 q 229 462 284 509 q 173 333 173 414 q 242 179 173 232 q 421 126 311 126 q 526 154 488 126 q 564 225 564 182 q 470 296 564 296 q 405 281 435 296 q 330 233 374 267 l 286 319 q 467 394 366 394 q 623 347 568 394 q 678 227 678 299 q 614 87 678 143 q 429 31 550 31 z "},"फ़":{"ha":1054,"x_min":-19,"x_max":1076,"o":"m 266 54 l 266 -56 l 146 -56 l 146 54 l 266 54 m 593 1 l 473 1 l 473 312 q 334 281 417 281 q 155 351 221 281 q 89 561 89 422 l 89 772 l -19 772 l -19 868 l 1076 868 l 1076 772 l 593 772 l 593 556 q 738 585 658 585 q 917 519 849 585 q 985 349 985 453 q 898 117 985 227 l 785 137 q 846 246 828 197 q 864 353 864 295 q 827 451 864 412 q 724 490 791 490 q 593 441 657 490 l 593 1 m 472 772 l 208 772 l 208 534 q 240 414 208 452 q 330 376 272 376 l 330 376 q 472 428 417 376 l 472 772 z "},"य़":{"ha":805,"x_min":-20,"x_max":825,"o":"m 292 53 l 292 -57 l 172 -57 l 172 53 l 292 53 m 376 294 l 377 294 q 465 306 430 294 q 535 348 500 318 l 535 772 l 286 772 q 328 701 313 741 q 344 621 344 661 q 297 493 344 548 q 181 427 251 439 q 262 328 211 362 q 376 294 313 294 m 384 194 q 181 261 269 194 q 44 466 92 329 l 47 487 q 189 535 144 499 q 233 629 233 570 q 215 704 233 670 q 155 772 197 738 l -20 772 l -20 867 l 825 867 l 825 772 l 655 772 l 655 0 l 535 0 l 534 227 q 384 194 472 194 z "},"ॠ":{"ha":1052,"x_min":-21,"x_max":1072,"o":"m 201 532 q 40 485 131 532 l 18 592 q 202 636 102 636 q 413 561 302 636 l 463 527 l 463 773 l -21 773 l -21 869 l 1072 869 l 1072 773 l 583 773 l 583 484 q 720 518 662 487 q 700 552 705 540 q 694 581 694 565 q 721 630 694 609 q 797 651 747 651 q 881 626 846 651 q 916 564 916 600 q 882 494 916 528 q 867 482 875 487 l 962 314 l 958 283 q 834 218 854 250 q 826 185 826 204 q 845 139 826 155 q 900 123 864 123 q 972 135 936 123 l 982 48 q 892 35 931 35 q 765 77 812 35 q 717 189 717 119 q 835 331 717 280 l 779 425 q 584 376 688 384 l 584 0 l 463 1 l 463 310 l 165 128 l 102 222 l 436 420 l 385 455 q 283 513 326 494 q 201 532 241 532 z "},"ॡ":{"ha":977,"x_min":-20,"x_max":998,"o":"m 846 -161 q 724 -124 768 -161 q 680 -29 680 -88 q 710 39 680 11 q 654 91 674 60 q 634 156 634 121 q 676 247 634 210 q 787 292 719 284 q 789 355 789 349 q 761 458 789 419 q 677 496 733 496 q 584 445 621 496 q 546 288 546 393 l 546 200 l 426 200 l 426 286 q 385 435 426 382 q 283 488 343 488 q 207 451 237 488 q 176 345 176 414 q 204 211 176 276 q 298 64 233 145 l 201 24 q 57 361 57 189 q 118 529 57 463 q 273 595 178 595 q 394 569 340 595 q 481 494 448 542 q 566 569 516 543 q 674 596 616 596 q 707 594 696 596 l 707 772 l -20 772 l -20 868 l 998 868 l 998 772 l 828 772 l 828 547 q 906 368 906 484 q 885 207 906 294 l 853 207 q 766 193 790 207 q 742 151 742 180 q 767 107 742 123 q 833 92 791 92 q 919 102 875 92 l 935 31 q 830 11 887 11 l 823 11 q 774 -37 774 1 q 846 -84 774 -84 q 937 -67 884 -84 l 952 -138 l 954 -138 q 846 -161 901 -161 z "},"ॢ":{"ha":0,"x_min":-471,"x_max":59,"o":"m -7 -241 l -7 -241 q -99 -220 -64 -241 q -133 -167 -133 -198 q -111 -117 -133 -136 q -55 -92 -88 -98 q -54 -74 -54 -79 q -67 -38 -54 -52 q -108 -24 -81 -24 q -148 -44 -134 -24 q -162 -91 -162 -63 l -162 -136 l -267 -136 l -267 -92 q -284 -43 -267 -64 q -328 -23 -302 -23 q -368 -37 -354 -23 q -382 -73 -382 -51 q -309 -204 -382 -125 l -389 -226 q -471 -64 -471 -144 q -435 16 -471 -16 q -334 47 -399 47 q -218 9 -269 47 q -105 47 -170 47 q -3 14 -40 47 q 33 -71 33 -20 q 22 -134 33 -103 l 1 -134 q -54 -165 -54 -134 q -40 -187 -54 -179 q -6 -195 -26 -195 q 50 -186 13 -195 l 59 -232 q -7 -241 32 -241 z "},"ॣ":{"ha":0,"x_min":-464,"x_max":68,"o":"m 5 -300 l 5 -300 q -70 -283 -43 -300 q -97 -239 -97 -267 q -83 -209 -97 -222 q -125 -154 -125 -190 q -104 -112 -125 -129 q -47 -91 -83 -95 q -46 -73 -46 -79 q -60 -37 -46 -51 q -100 -24 -74 -24 q -141 -43 -127 -24 q -155 -91 -155 -62 l -155 -136 l -260 -136 l -260 -92 q -277 -43 -260 -63 q -321 -23 -294 -23 q -361 -37 -347 -23 q -375 -73 -375 -50 q -302 -204 -375 -125 l -382 -226 q -464 -64 -464 -142 q -428 16 -464 -16 q -326 47 -391 47 q -210 9 -260 47 q -98 47 -163 47 q 4 14 -33 47 q 41 -71 41 -20 q 29 -134 41 -103 l 9 -134 q -34 -139 -21 -134 q -46 -156 -46 -144 q -2 -179 -46 -179 q 45 -174 16 -179 l 56 -213 q -4 -222 33 -222 q -26 -239 -26 -226 q -16 -254 -26 -249 q 12 -260 -7 -260 q 57 -252 31 -260 l 68 -291 q 5 -300 37 -300 z "},"।":{"ha":541,"x_min":210,"x_max":330,"o":"m 330 -106 l 210 -106 l 210 937 l 330 937 l 330 -106 z "},"॥":{"ha":791,"x_min":210,"x_max":581,"o":"m 581 -106 l 461 -106 l 461 937 l 581 937 l 581 -106 m 330 -106 l 210 -106 l 210 937 l 330 937 l 330 -106 z "},"०":{"ha":737,"x_min":73,"x_max":664,"o":"m 193 447 q 193 402 193 447 q 244 303 193 358 q 371 248 295 248 q 495 302 447 248 q 544 446 544 356 q 494 591 544 535 q 367 646 445 646 q 241 591 289 646 q 193 447 193 535 m 73 445 q 73 510 73 445 q 154 658 73 574 q 367 742 235 742 q 581 659 498 742 q 664 446 664 576 q 583 234 664 317 q 371 152 501 152 q 157 234 240 152 q 73 445 73 316 z "},"१":{"ha":578,"x_min":57,"x_max":524,"o":"m 171 651 q 218 556 171 591 q 352 518 266 522 q 401 581 387 551 q 414 654 414 610 q 379 733 414 698 q 291 768 344 768 q 205 734 239 768 q 171 651 171 701 m 376 15 l 376 47 q 369 98 376 83 q 334 129 361 113 l 90 273 l 87 298 l 260 441 q 112 517 168 458 q 57 660 57 576 q 121 805 57 745 q 289 865 185 865 q 458 801 392 865 q 524 650 524 738 q 496 536 524 587 q 389 416 469 486 l 250 295 l 412 199 q 472 142 454 173 q 490 59 490 111 l 490 15 l 376 15 z "},"२":{"ha":611,"x_min":70,"x_max":541,"o":"m 249 271 q 174 261 214 261 q 108 283 134 261 q 81 354 81 305 q 114 437 81 402 q 187 472 146 472 q 290 412 242 472 q 388 485 351 436 q 424 597 424 533 q 372 708 424 662 q 243 754 321 754 q 166 747 197 754 q 87 721 136 740 l 70 821 q 243 858 151 858 q 459 784 378 858 q 541 592 541 710 q 486 429 541 503 q 347 310 431 355 l 532 51 l 435 -3 l 249 271 z "},"३":{"ha":618,"x_min":72,"x_max":530,"o":"m 241 135 q 119 162 165 135 q 72 230 72 189 q 100 301 72 272 q 169 330 129 330 q 239 311 208 330 q 312 243 270 292 q 384 278 359 250 q 409 353 409 307 q 377 432 409 399 q 286 473 346 465 q 212 467 255 467 l 168 467 l 168 562 l 180 562 q 334 592 283 562 q 386 669 386 623 q 354 741 386 716 q 260 766 322 766 q 197 758 227 766 q 122 728 168 750 l 107 823 q 260 862 179 862 q 440 809 375 862 q 506 669 506 757 q 420 523 506 581 q 500 447 471 494 q 530 346 530 399 q 485 218 530 272 q 369 144 441 165 l 481 5 l 387 -42 l 245 135 l 241 135 z "},"४":{"ha":684,"x_min":68,"x_max":637,"o":"m 257 253 q 286 185 257 210 q 357 161 315 161 q 426 185 400 161 q 452 245 452 209 q 433 309 452 281 q 351 374 414 336 q 257 253 257 319 m 354 63 l 354 62 q 201 117 262 62 q 140 250 140 172 q 256 431 140 349 q 122 563 176 486 q 68 726 68 640 q 94 852 68 793 l 203 822 q 182 713 182 773 q 199 646 182 680 q 243 583 216 612 q 353 492 292 531 q 491 603 456 553 q 527 715 527 653 q 523 769 527 747 q 506 828 519 790 l 610 847 q 637 720 637 772 q 448 429 637 550 q 562 244 562 342 q 506 113 562 162 q 354 63 450 63 z "},"५":{"ha":666,"x_min":60,"x_max":666,"o":"m 338 258 q 200 291 263 258 q 99 385 137 323 q 60 525 60 447 q 121 711 60 623 q 300 864 182 799 l 382 791 q 226 662 275 733 q 176 518 176 591 q 221 404 176 446 q 332 362 266 362 q 392 368 363 362 q 380 395 382 384 q 377 427 377 406 q 404 490 377 465 q 483 515 431 515 q 571 485 534 515 q 608 416 608 455 q 540 309 608 355 l 666 38 l 566 -6 l 442 269 q 338 258 394 258 z "},"६":{"ha":629,"x_min":94,"x_max":604,"o":"m 357 123 q 168 181 243 123 q 94 340 94 239 q 201 519 94 462 q 106 674 106 570 q 169 809 106 761 q 334 857 232 857 q 520 825 437 857 l 505 734 q 363 761 431 761 q 261 734 295 761 q 227 664 227 708 q 262 592 227 619 q 357 561 298 564 q 425 564 385 564 l 468 564 l 468 468 l 431 468 q 265 434 315 468 q 215 340 215 399 q 253 251 215 281 q 340 220 290 220 q 368 222 342 220 q 356 277 356 249 q 378 322 356 304 q 439 340 400 340 q 541 313 496 340 q 586 242 586 285 q 571 198 586 220 q 528 159 557 176 l 604 14 l 505 -29 l 424 127 q 357 123 395 123 z "},"७":{"ha":766,"x_min":81,"x_max":715,"o":"m 175 190 q 106 313 131 238 q 81 482 81 387 q 108 672 81 577 q 183 846 136 768 l 291 817 q 221 647 248 744 q 194 476 194 551 q 254 260 194 332 q 406 187 314 187 q 551 258 498 187 q 367 342 434 277 q 300 496 300 408 q 353 639 300 585 q 492 694 406 694 q 654 627 592 694 q 715 448 715 561 q 630 191 715 291 q 406 92 544 92 q 175 190 267 92 m 593 344 q 606 460 606 393 q 577 563 606 527 q 506 599 548 599 q 438 571 465 599 q 412 494 412 543 q 452 403 412 442 q 593 344 495 361 z "},"८":{"ha":620,"x_min":68,"x_max":559,"o":"m 184 359 q 233 250 184 290 q 360 212 281 211 q 454 220 418 212 q 545 248 490 227 l 559 144 q 460 117 505 125 q 345 109 416 109 q 209 140 273 109 q 106 231 145 172 q 68 365 68 290 q 205 626 68 493 l 448 861 l 530 794 l 288 553 q 184 359 184 452 z "},"९":{"ha":625,"x_min":63,"x_max":551,"o":"m 400 733 q 382 751 400 733 q 307 769 363 769 q 215 730 250 769 q 180 626 180 691 q 194 563 180 591 q 254 484 208 534 q 388 532 340 490 q 437 642 435 574 q 400 733 438 698 m 422 22 l 422 79 q 405 157 422 124 q 351 228 388 191 l 168 413 q 63 634 63 520 q 129 802 63 735 q 298 868 195 868 q 482 802 413 868 q 551 642 551 736 q 493 480 551 547 q 335 399 435 413 l 454 274 q 541 88 541 184 l 541 22 l 422 22 z "},"॰":{"ha":509,"x_min":41,"x_max":457,"o":"m 353 448 q 353 473 353 448 q 323 529 353 498 q 249 560 294 560 q 174 529 204 560 q 144 449 144 498 q 174 368 144 399 q 248 337 204 337 q 322 368 292 337 q 353 448 353 399 m 398 303 q 369 275 398 303 q 251 247 339 247 q 102 306 163 247 q 41 452 41 366 q 98 594 41 538 q 246 650 156 650 q 396 592 336 650 q 457 447 457 534 q 398 303 457 360 z "},"ॱ":{"ha":466,"x_min":168,"x_max":288,"o":"m 288 876 l 288 753 l 168 753 l 168 876 l 288 876 z "},"ॲ":{"ha":962,"x_min":60,"x_max":983,"o":"m 510 294 q 444 125 510 186 q 266 64 377 64 q 172 74 216 64 q 60 108 127 83 l 76 205 q 173 170 138 180 q 248 161 208 161 q 352 198 315 161 q 390 294 390 236 q 358 391 390 352 q 269 439 326 429 q 155 429 219 429 l 155 524 q 321 564 269 524 q 373 667 373 604 q 341 746 373 716 q 248 775 309 775 q 189 768 215 775 q 116 738 162 760 l 101 833 q 248 871 174 871 q 427 817 361 871 q 493 665 493 762 q 396 488 493 553 q 443 452 418 475 l 692 452 l 692 772 l 553 772 l 553 867 l 983 867 l 983 772 l 812 772 l 812 0 l 692 0 l 693 356 l 501 356 q 510 294 510 324 m 746 1046 q 963 1133 878 1046 l 983 1042 q 749 945 899 945 q 611 974 678 945 q 497 1048 545 1003 l 517 1140 q 625 1070 565 1095 q 746 1046 684 1046 z "},"ॳ":{"ha":962,"x_min":60,"x_max":983,"o":"m 510 294 q 444 125 510 186 q 266 64 377 64 q 172 74 216 64 q 60 108 127 83 l 76 205 q 173 170 138 180 q 248 161 208 161 q 352 198 315 161 q 390 294 390 236 q 358 391 390 352 q 269 439 326 429 q 155 429 219 429 l 155 524 q 321 564 269 524 q 373 667 373 604 q 341 746 373 716 q 248 775 309 775 q 189 768 215 775 q 116 738 162 760 l 101 833 q 248 871 174 871 q 427 817 361 871 q 493 665 493 762 q 396 488 493 553 q 443 452 418 475 l 692 452 l 692 772 l 553 772 l 553 867 l 684 867 l 684 991 l 804 991 l 804 867 l 983 867 l 983 772 l 812 772 l 812 0 l 692 0 l 693 356 l 501 356 q 510 294 510 324 z "},"ॴ":{"ha":1327,"x_min":60,"x_max":1348,"o":"m 510 294 q 444 125 510 186 q 266 64 377 64 q 172 74 216 64 q 60 108 127 83 l 76 205 q 173 170 138 180 q 248 161 208 161 q 352 198 315 161 q 390 294 390 236 q 358 391 390 352 q 269 439 326 429 q 155 429 219 429 l 155 524 q 321 564 269 524 q 373 667 373 604 q 341 746 373 716 q 248 775 309 775 q 189 768 215 775 q 116 738 162 760 l 101 833 q 248 871 174 871 q 427 817 361 871 q 493 665 493 762 q 396 488 493 553 q 443 452 418 475 l 692 452 l 692 772 l 553 772 l 553 867 l 1049 867 l 1049 991 l 1169 991 l 1169 867 l 1348 867 l 1348 772 l 1177 772 l 1177 0 l 1057 0 l 1057 772 l 812 772 l 812 0 l 692 0 l 693 356 l 501 356 q 510 294 510 324 z "},"ॵ":{"ha":1327,"x_min":58,"x_max":1348,"o":"m 508 294 q 441 125 508 186 q 264 64 375 64 q 170 74 214 64 q 58 108 125 83 l 74 205 q 171 170 136 180 q 246 161 205 161 q 350 198 313 161 q 388 294 388 236 q 356 391 388 352 q 267 439 323 429 q 153 429 217 429 l 153 524 q 319 564 267 524 q 371 667 371 604 q 339 746 371 716 q 245 775 307 775 q 186 768 213 775 q 114 738 160 760 l 99 833 q 245 871 171 871 q 425 817 359 871 q 491 665 491 762 q 394 488 491 553 q 441 452 416 475 l 690 452 l 690 772 l 551 772 l 551 867 l 999 867 q 952 919 975 906 q 904 932 930 932 q 831 922 879 932 q 763 912 783 912 q 615 965 686 912 l 641 1037 q 752 998 695 998 q 829 1011 770 998 q 911 1025 887 1025 q 1068 936 1008 1025 l 1068 1019 q 1053 1067 1068 1049 q 1015 1085 1037 1085 q 949 1077 994 1085 q 882 1068 904 1068 q 732 1132 798 1068 l 764 1203 q 825 1163 799 1173 q 878 1154 850 1154 q 960 1166 905 1154 q 1042 1179 1016 1179 q 1140 1138 1103 1179 q 1177 1023 1177 1098 l 1177 867 l 1348 867 l 1348 772 l 1177 772 l 1177 0 l 1057 0 l 1057 772 l 812 772 l 812 0 l 692 0 l 691 356 l 499 356 q 508 294 508 324 z "},"ॶ":{"ha":962,"x_min":60,"x_max":983,"o":"m 766 -129 q 499 -221 659 -221 q 213 -133 338 -221 l 245 -47 q 493 -124 354 -124 q 728 -44 633 -124 l 766 -129 m 510 294 q 444 125 510 186 q 266 64 377 64 q 172 74 216 64 q 60 108 127 83 l 76 205 q 173 170 138 180 q 248 161 208 161 q 352 198 315 161 q 390 294 390 236 q 358 391 390 352 q 269 439 326 429 q 155 429 219 429 l 155 524 q 321 564 269 524 q 373 667 373 604 q 341 746 373 716 q 248 775 309 775 q 189 768 215 775 q 116 738 162 760 l 101 833 q 248 871 174 871 q 427 817 361 871 q 493 665 493 762 q 396 488 493 553 q 443 452 418 475 l 692 452 l 692 772 l 553 772 l 553 867 l 983 867 l 983 772 l 812 772 l 812 0 l 692 0 l 693 356 l 501 356 q 510 294 510 324 z "},"ॷ":{"ha":962,"x_min":60,"x_max":983,"o":"m 772 -290 q 493 -372 663 -372 q 193 -294 323 -372 l 227 -217 q 488 -286 340 -286 q 734 -215 635 -286 l 772 -290 m 758 -124 q 489 -208 651 -208 q 205 -127 328 -208 l 237 -49 q 485 -120 347 -120 q 720 -46 624 -120 l 758 -124 m 510 294 q 444 125 510 186 q 266 64 377 64 q 172 74 216 64 q 60 108 127 83 l 76 205 q 173 170 138 180 q 248 161 208 161 q 352 198 315 161 q 390 294 390 236 q 358 391 390 352 q 269 439 326 429 q 155 429 219 429 l 155 524 q 321 564 269 524 q 373 667 373 604 q 341 746 373 716 q 248 775 309 775 q 189 768 215 775 q 116 738 162 760 l 101 833 q 248 871 174 871 q 427 817 361 871 q 493 665 493 762 q 396 488 493 553 q 443 452 418 475 l 692 452 l 692 772 l 553 772 l 553 867 l 983 867 l 983 772 l 812 772 l 812 0 l 692 0 l 693 356 l 501 356 q 510 294 510 324 z "},"ॸ":{"ha":731,"x_min":-21,"x_max":751,"o":"m 462 68 q 523 176 505 127 q 541 280 541 225 q 503 373 541 336 q 400 410 465 410 q 286 391 336 410 l 286 332 q 267 271 286 292 q 213 250 248 250 q 105 297 154 250 q 56 402 56 345 q 76 447 56 429 q 135 473 97 465 l 165 479 l 165 772 l -21 772 l -21 867 l 751 867 l 751 772 l 286 772 l 286 500 q 406 512 336 512 q 594 447 527 512 q 661 280 661 382 q 637 159 661 223 q 574 47 614 95 l 462 68 z "},"ॹ":{"ha":918,"x_min":-20,"x_max":939,"o":"m 338 -94 l 338 -204 l 218 -204 l 218 -94 l 338 -94 m 498 20 l 498 -90 l 378 -90 l 378 20 l 498 20 m 174 20 l 174 -90 l 54 -90 l 54 20 l 174 20 m 492 318 q 425 141 492 208 q 234 75 357 75 q 141 86 184 75 q 41 123 97 97 l 64 218 q 145 184 112 193 q 218 176 178 175 q 331 214 292 177 q 371 322 371 251 q 318 439 371 393 q 176 486 265 486 l 125 486 l 125 582 l 648 582 l 648 772 l -20 772 l -20 867 l 939 867 l 939 772 l 768 772 l 768 0 l 648 0 l 649 487 l 413 487 q 471 412 450 456 q 492 318 492 368 z "},"ॺ":{"ha":805,"x_min":-20,"x_max":825,"o":"m 376 294 l 378 294 q 493 318 448 294 l 339 574 q 282 477 326 517 q 181 427 239 437 q 262 328 211 362 q 376 294 313 294 m 534 772 l 309 772 l 534 399 l 534 772 m 384 194 q 181 261 269 194 q 44 466 92 329 l 47 487 q 189 535 144 499 q 233 629 233 570 q 215 704 233 670 q 155 772 197 738 l -20 772 l -20 867 l 825 867 l 825 772 l 655 772 l 655 0 l 535 0 l 534 227 q 384 194 472 194 z "},"ॻ":{"ha":819,"x_min":-20,"x_max":840,"o":"m 142 -62 l 142 30 l 549 30 l 549 772 l 294 772 l 294 352 q 228 271 294 271 q 116 321 169 271 q 62 429 62 372 q 84 472 62 456 q 143 488 105 488 l 174 488 l 174 772 l -20 772 l -20 867 l 840 867 l 840 772 l 669 772 l 669 -62 l 142 -62 z "},"ॼ":{"ha":918,"x_min":-20,"x_max":939,"o":"m 649 15 l 649 487 l 413 487 q 471 412 450 456 q 492 318 492 368 q 425 141 492 208 q 234 75 357 75 q 141 86 184 75 q 41 123 97 97 l 64 218 q 145 184 112 193 q 218 176 178 175 q 331 214 292 177 q 371 322 371 251 q 318 439 371 393 q 176 486 265 486 l 125 486 l 125 582 l 648 582 l 648 772 l -20 772 l -20 867 l 939 867 l 939 772 l 768 772 l 768 -77 l 36 -77 l 37 15 l 649 15 z "},"ॽ":{"ha":678,"x_min":137,"x_max":588,"o":"m 229 448 q 403 495 338 448 q 467 625 467 541 q 423 735 467 692 q 314 778 379 778 q 240 770 270 778 q 162 738 210 762 l 137 834 q 315 873 222 873 q 513 804 439 873 q 588 624 588 735 q 513 442 588 512 q 328 361 437 372 l 328 0 l 208 0 l 208 448 l 229 448 z "},"ॾ":{"ha":734,"x_min":-20,"x_max":754,"o":"m 630 -55 l 630 -146 l 123 -146 l 123 -55 l 630 -55 m 356 122 q 486 152 439 122 q 532 229 532 182 q 503 300 532 275 q 419 326 474 326 q 266 281 337 326 l 252 281 q 132 357 178 303 q 85 481 85 412 q 141 597 85 551 q 296 643 196 643 l 463 643 l 463 771 l -20 771 l -20 867 l 754 867 l 754 771 l 584 771 l 584 547 l 300 547 q 201 464 201 547 q 256 385 201 410 q 416 422 336 422 q 589 368 526 422 q 651 225 651 315 q 574 82 651 136 q 366 27 497 27 l 366 26 q 208 49 288 26 q 64 107 127 72 l 94 207 q 222 148 147 173 q 356 122 297 122 z "},"ॿ":{"ha":756,"x_min":-20,"x_max":777,"o":"m 120 -62 l 120 30 l 487 30 l 487 188 q 323 145 420 145 q 123 219 201 145 q 45 400 45 293 q 118 574 45 508 q 317 641 190 641 q 487 606 409 641 l 487 772 l -20 772 l -20 867 l 777 867 l 777 772 l 607 772 l 607 -62 l 120 -62 m 323 243 q 369 247 346 243 l 222 513 q 165 397 165 472 q 209 282 165 322 q 323 243 252 243 m 486 500 q 331 545 418 545 q 297 543 311 545 l 446 273 q 486 303 470 287 l 486 500 z "},"​":{"ha":0,"x_min":0,"x_max":0,"o":""},"‌":{"ha":0,"x_min":-26,"x_max":26,"o":"m 26 -237 l -26 -237 l -26 1101 l 26 1101 l 26 -237 z "},"‍":{"ha":0,"x_min":-184,"x_max":184,"o":"m 26 -236 l -26 -236 l -26 849 l -149 723 l -184 758 l -34 911 l -182 1063 l -149 1097 l 0 945 l 148 1097 l 184 1063 l 35 911 l 184 758 l 148 724 l 26 850 l 26 -236 z "},"–":{"ha":864,"x_min":97,"x_max":694,"o":"m 694 525 l 694 439 l 97 439 l 97 525 l 694 525 z "},"—":{"ha":1013,"x_min":98,"x_max":833,"o":"m 833 525 l 833 439 l 98 439 l 98 525 l 833 525 z "},"―":{"ha":1187,"x_min":0,"x_max":0,"o":""},"‘":{"ha":397,"x_min":120,"x_max":277,"o":"m 120 623 l 120 735 l 218 952 l 277 952 l 240 731 l 240 623 l 120 623 z "},"’":{"ha":397,"x_min":120,"x_max":277,"o":"m 277 952 l 277 834 l 179 623 l 120 623 l 157 833 l 157 952 l 277 952 z "},"‚":{"ha":248,"x_min":22,"x_max":193,"o":"m 193 31 q 163 -92 193 -31 q 86 -192 133 -154 l 22 -147 q 79 19 79 -69 l 79 92 l 193 92 l 193 31 z "},"“":{"ha":597,"x_min":120,"x_max":477,"o":"m 120 623 l 120 735 l 218 952 l 277 952 l 240 731 l 240 623 l 120 623 m 321 623 l 321 735 l 418 952 l 477 952 l 441 731 l 441 623 l 321 623 z "},"”":{"ha":602,"x_min":120,"x_max":482,"o":"m 277 952 l 277 834 l 179 623 l 120 623 l 157 833 l 157 952 l 277 952 m 482 952 l 482 834 l 385 623 l 326 623 l 362 833 l 362 952 l 482 952 z "},"„":{"ha":431,"x_min":22,"x_max":374,"o":"m 193 30 q 163 -99 193 -35 q 86 -204 133 -163 l 22 -160 q 79 17 79 -75 l 79 130 l 193 130 l 193 30 m 374 30 q 345 -100 374 -36 q 267 -204 315 -163 l 203 -160 q 260 17 259 -77 l 260 130 l 374 130 l 374 30 z "},"†":{"ha":689,"x_min":43,"x_max":647,"o":"m 647 661 l 647 567 l 400 567 l 400 0 l 287 0 l 287 567 l 43 567 l 43 661 l 287 661 l 287 888 l 400 888 l 400 661 l 647 661 z "},"‡":{"ha":712,"x_min":53,"x_max":656,"o":"m 656 64 l 656 -28 l 409 -28 l 409 -282 l 296 -282 l 296 -28 l 53 -28 l 53 64 l 296 64 l 296 539 l 53 539 l 53 632 l 296 632 l 296 861 l 409 861 l 409 632 l 656 632 l 656 539 l 409 539 l 409 64 l 656 64 z "},"•":{"ha":425,"x_min":83,"x_max":336,"o":"m 83 484 l 83 520 q 118 608 83 574 q 210 642 152 642 q 302 608 267 642 q 336 520 336 574 l 336 484 q 302 396 336 429 q 210 363 268 363 q 118 396 152 363 q 83 484 83 429 z "},"…":{"ha":842,"x_min":89,"x_max":724,"o":"m 197 111 l 197 0 l 89 0 l 89 111 l 197 111 m 467 111 l 467 0 l 359 0 l 359 111 l 467 111 m 724 111 l 724 0 l 616 0 l 616 111 l 724 111 z "},"‰":{"ha":1198,"x_min":41,"x_max":1146,"o":"m 586 214 l 586 169 q 613 90 586 120 q 684 59 640 59 q 755 89 729 59 q 781 172 781 119 l 781 216 q 754 295 781 265 q 684 326 728 326 q 613 295 640 326 q 586 214 586 264 m 866 214 l 866 168 q 893 89 866 119 q 964 58 920 58 q 1035 89 1008 58 q 1061 171 1061 120 l 1061 216 q 1034 295 1061 264 q 963 325 1007 325 q 892 294 919 325 q 866 214 866 264 m 684 399 q 823 325 777 399 q 964 399 871 399 q 1095 347 1044 399 q 1146 211 1146 296 l 1146 168 q 1096 36 1146 87 q 965 -16 1045 -16 q 824 58 873 -16 q 686 -16 777 -16 q 554 36 605 -16 q 503 172 503 87 l 502 216 q 553 348 502 296 q 684 399 604 399 m 696 760 l 262 65 l 199 105 l 632 800 l 696 760 m 125 713 l 125 669 q 153 590 125 621 q 224 559 180 559 q 295 589 269 559 q 321 671 321 619 l 321 715 q 295 795 321 764 q 224 825 269 825 q 152 794 179 825 q 125 713 125 764 m 41 673 l 41 715 q 92 848 41 796 q 223 899 143 899 q 355 847 304 899 q 406 713 406 795 l 406 669 q 355 538 406 589 q 224 486 304 486 q 93 537 144 486 q 41 673 41 589 z "},"‹":{"ha":375,"x_min":66,"x_max":332,"o":"m 332 589 l 174 346 l 332 104 l 246 104 l 66 340 l 66 352 l 246 589 l 332 589 z "},"›":{"ha":375,"x_min":54,"x_max":321,"o":"m 54 589 l 141 589 l 321 352 l 321 340 l 141 103 l 54 103 l 212 346 l 54 589 z "},"⁄":{"ha":568,"x_min":36,"x_max":534,"o":"m 534 769 l 100 75 l 36 115 l 470 810 l 534 769 z "},"€":{"ha":702,"x_min":60,"x_max":643,"o":"m 518 405 l 518 329 l 284 329 q 341 145 286 209 q 497 81 395 81 q 631 102 566 81 l 643 5 q 497 -14 574 -14 q 258 76 345 -14 q 168 329 172 165 l 60 329 l 60 405 l 168 405 l 168 488 l 60 488 l 60 564 l 168 564 q 260 812 174 724 q 496 899 347 899 q 643 881 555 899 l 631 782 q 496 803 562 803 q 342 742 396 803 q 284 564 288 681 l 518 564 l 518 488 l 284 488 l 284 405 l 518 405 z "},"₹":{"ha":887,"x_min":130,"x_max":723,"o":"m 163 453 l 283 453 q 468 566 432 453 l 130 566 l 130 662 l 474 662 q 425 741 465 712 q 315 770 385 770 l 130 770 l 130 867 l 723 867 l 723 770 l 550 770 q 595 662 587 724 l 723 662 l 723 566 l 590 566 q 497 415 570 468 q 336 361 425 361 l 326 361 l 631 6 l 629 0 l 489 0 l 163 377 l 163 453 z "},"₺":{"ha":696,"x_min":20,"x_max":642,"o":"m 524 469 l 642 469 l 642 408 q 596 184 640 279 q 471 39 552 89 q 283 -12 392 -12 q 168 -1 233 -12 l 168 366 l 20 298 l 20 407 l 168 475 l 168 568 l 20 500 l 20 609 l 168 677 l 168 888 l 286 888 l 286 730 l 439 801 l 439 692 l 286 622 l 286 528 l 439 599 l 439 490 l 286 420 l 286 87 q 464 171 403 88 q 524 416 524 254 l 524 469 z "},"₽":{"ha":829,"x_min":19,"x_max":783,"o":"m 262 791 l 262 443 l 473 443 q 617 487 568 443 q 667 614 667 532 q 615 744 667 696 q 477 791 564 791 l 262 791 m 467 264 l 467 168 l 262 168 l 262 -1 l 145 -1 l 145 168 l 19 168 l 19 264 l 145 264 l 145 347 l 19 347 l 19 443 l 145 443 l 145 888 l 473 888 q 700 815 616 888 q 783 616 783 743 q 703 418 783 488 q 475 348 623 349 l 262 348 l 262 264 l 467 264 z "},"™":{"ha":782,"x_min":63,"x_max":659,"o":"m 604 623 l 604 864 l 519 623 l 487 623 l 401 863 l 401 623 l 347 623 l 347 951 l 415 951 l 503 707 l 591 951 l 659 951 l 659 623 l 604 623 m 298 951 l 298 901 l 209 901 l 209 623 l 153 623 l 153 901 l 63 901 l 63 951 l 298 951 z "},"℮":{"ha":795,"x_min":94,"x_max":715,"o":"m 576 545 q 412 614 504 614 q 246 539 321 614 l 246 370 l 576 370 l 576 545 m 412 -14 q 251 34 325 -14 q 135 161 176 81 q 94 327 94 237 q 137 496 94 417 q 257 623 181 574 q 414 671 333 671 q 564 629 495 671 q 673 513 633 587 q 715 350 713 439 l 715 313 l 246 313 l 246 112 q 412 45 319 45 q 637 119 532 45 l 638 56 q 412 -14 528 -14 z "},"∂":{"ha":712,"x_min":64,"x_max":656,"o":"m 360 530 q 226 473 275 530 q 178 318 178 416 l 178 308 q 226 140 178 203 q 360 78 275 78 q 494 153 446 78 q 543 363 543 229 l 543 401 l 541 410 l 541 410 q 475 498 524 466 q 360 530 426 530 m 64 322 q 143 540 64 457 q 349 623 221 623 q 457 599 406 623 q 543 534 507 576 q 503 686 535 620 q 420 789 471 752 q 310 825 369 825 q 137 789 229 825 l 127 882 l 157 895 q 320 924 228 924 q 569 792 481 924 q 656 414 656 660 l 656 383 q 619 178 656 268 q 515 37 583 87 q 359 -14 448 -14 q 144 75 224 -14 q 64 313 64 163 l 64 322 z "},"∏":{"ha":868,"x_min":103,"x_max":765,"o":"m 765 874 l 765 -144 l 652 -144 l 652 781 l 216 781 l 216 -144 l 103 -144 l 103 874 l 765 874 z "},"∑":{"ha":732,"x_min":42,"x_max":730,"o":"m 730 -90 l 730 -182 l 42 -182 l 42 -95 l 414 342 l 42 783 l 42 871 l 682 871 l 682 778 l 179 778 l 534 349 l 534 334 l 180 -90 l 730 -90 z "},"−":{"ha":714,"x_min":102,"x_max":612,"o":"m 612 534 l 612 439 l 102 439 l 102 534 l 612 534 z "},"√":{"ha":745,"x_min":39,"x_max":718,"o":"m 39 383 l 39 477 l 231 477 l 342 174 l 602 888 l 718 888 l 387 0 l 301 0 l 151 383 l 39 383 z "},"∞":{"ha":1285,"x_min":60,"x_max":1218,"o":"m 355 79 q 481 136 425 79 q 576 317 543 197 l 576 342 q 526 463 562 405 q 355 579 456 579 q 222 512 273 579 q 172 332 172 445 l 171 321 q 221 145 171 212 q 355 79 272 79 m 1104 326 l 1104 337 q 1054 512 1104 444 q 922 579 1003 579 q 794 522 851 579 q 705 361 736 465 l 699 342 l 699 317 q 749 196 713 256 q 827 107 785 136 q 920 78 873 78 q 1054 145 1004 78 q 1104 326 1104 213 m 1072 30 q 918 -14 1004 -14 q 759 42 831 -14 q 638 206 687 98 q 518 41 590 97 q 360 -14 446 -14 q 206 29 273 -14 q 100 151 138 73 q 60 321 60 230 l 60 336 q 99 504 60 427 q 205 627 138 582 q 359 671 273 671 q 517 615 446 671 q 638 450 589 559 q 760 615 687 558 q 922 671 833 671 q 1134 574 1049 671 q 1218 328 1218 477 l 1217 320 q 1179 152 1217 230 q 1072 30 1140 75 z "},"∫":{"ha":320,"x_min":-49,"x_max":399,"o":"m 218 694 l 218 -95 q 168 -245 218 -195 q 22 -296 119 -296 q -49 -284 -14 -296 l -38 -196 q 10 -203 -8 -203 q 105 -96 105 -203 l 105 701 q 159 863 105 806 q 311 921 213 921 q 399 908 345 921 l 385 821 q 329 828 362 828 q 218 694 218 828 z "},"≈":{"ha":705,"x_min":61,"x_max":632,"o":"m 486 293 q 630 371 566 293 l 631 256 q 486 189 567 189 q 399 208 437 189 l 306 256 q 216 276 261 277 q 130 255 170 276 q 61 198 90 235 l 61 313 q 130 363 91 345 q 215 381 170 380 q 305 360 260 382 l 396 313 q 486 293 439 293 m 488 548 q 632 626 568 548 l 632 510 q 488 444 568 444 q 400 463 439 444 l 302 513 q 132 511 213 553 q 62 454 92 490 l 62 568 q 130 617 91 600 q 307 614 216 655 l 400 567 q 488 548 439 548 z "},"≠":{"ha":686,"x_min":93,"x_max":602,"o":"m 602 352 l 602 254 l 278 254 l 191 105 l 133 141 l 199 254 l 93 254 l 93 352 l 256 352 l 347 507 l 93 507 l 93 606 l 404 606 l 498 766 l 555 730 l 483 606 l 602 606 l 602 507 l 425 507 l 335 352 l 602 352 z "},"≤":{"ha":635,"x_min":26,"x_max":537,"o":"m 536 94 l 536 -1 l 26 -1 l 26 94 l 536 94 m 537 507 l 196 378 l 144 368 l 144 365 l 196 355 l 537 229 l 537 119 l 39 327 l 39 409 l 537 616 l 537 507 z "},"≥":{"ha":654,"x_min":70,"x_max":597,"o":"m 580 94 l 580 -1 l 70 -1 l 70 94 l 580 94 m 439 393 l 74 522 l 74 629 l 597 421 l 597 339 l 74 131 l 74 239 l 439 370 l 491 379 l 491 382 l 439 393 z "},"◊":{"ha":630,"x_min":26,"x_max":603,"o":"m 487 444 l 313 766 l 143 444 l 316 123 l 487 444 m 26 444 l 271 888 l 357 888 l 603 444 l 359 0 l 273 0 l 26 444 z "},"◌":{"ha":730,"x_min":83,"x_max":652,"o":"m 368 193 q 408 157 408 193 q 368 120 408 120 q 338 130 348 120 q 328 157 328 140 q 338 183 328 173 q 368 193 348 193 m 189 273 q 229 236 229 273 q 189 200 229 200 q 159 210 170 200 q 149 236 149 220 q 159 263 149 253 q 189 273 170 273 m 548 273 q 578 263 568 273 q 588 236 588 253 q 578 210 588 220 q 548 200 568 200 q 508 236 508 200 q 548 273 508 273 m 611 381 q 572 417 572 381 q 611 454 572 454 q 642 444 631 454 q 652 420 652 435 q 648 398 652 406 q 611 381 638 381 m 123 454 q 153 444 142 454 q 163 417 163 434 q 153 391 163 401 q 123 381 142 381 q 83 417 83 381 q 123 454 83 454 m 189 635 q 229 599 229 635 q 189 563 229 563 q 159 573 170 563 q 149 599 149 583 q 159 626 149 616 q 189 635 170 635 m 548 635 q 578 626 568 635 q 588 599 588 616 q 578 573 588 583 q 548 563 568 563 q 508 599 508 563 q 548 635 508 635 m 408 677 q 368 642 408 642 q 338 652 348 642 q 328 678 328 662 q 368 714 328 714 q 408 677 408 714 z "}}}
